<?xml version="1.0" standalone="no"?>
<!DOCTYPE svg PUBLIC "-//W3C//DTD SVG 1.1//EN" "http://www.w3.org/Graphics/SVG/1.1/DTD/svg11.dtd" >
<svg>
<metadata>
Created by FontForge 20090914 at Tue Aug 27 10:54:39 2013
 By www-data
&#194;&#169; copyright by Fontbit
</metadata>
<defs>
<font id="Aa_TypoCellcom-Black" horiz-adv-x="1556" >
  <font-face 
    font-family="Aa_TypoCellcom Black"
    font-weight="400"
    font-stretch="normal"
    units-per-em="2048"
    panose-1="2 2 6 3 5 4 5 2 3 4"
    ascent="1638"
    descent="-410"
    x-height="1098"
    cap-height="1516"
    bbox="-251 -503 3258 1972"
    underline-thickness="50"
    underline-position="-175"
    unicode-range="U+0020-U+FB4C"
  />
<missing-glyph horiz-adv-x="1593" 
d="M284 0v1280h1024v-1280h-1024zM316 32h960v1216h-960v-1216z" />
    <glyph glyph-name=".notdef" horiz-adv-x="1593" 
d="M284 0v1280h1024v-1280h-1024zM316 32h960v1216h-960v-1216z" />
    <glyph glyph-name="space" unicode=" " horiz-adv-x="585" 
 />
    <glyph glyph-name="exclam" unicode="!" horiz-adv-x="768" 
d="M139 1516h510l-98 -1010h-314zM182 348h424v-348h-424v348z" />
    <glyph glyph-name="quotedbl" unicode="&#x22;" horiz-adv-x="987" 
d="M536 1350v166h336v-166l-35 -402h-266zM114 1350v166h336v-166l-35 -402h-266z" />
    <glyph glyph-name="numbersign" unicode="#" horiz-adv-x="1446" 
d="M229 320h-197v264h253l41 195h-214v264h269l68 321h304l-66 -321h185l69 321h305l-69 -321h236v-264h-292l-40 -195h253v-264h-308l-67 -320h-304l66 320h-185l-68 -320h-305zM777 584l40 195h-185l-43 -195h188z" />
    <glyph glyph-name="dollar" unicode="$" horiz-adv-x="1284" 
d="M539 -18c-199.333 21.333 -357 122.997 -473 304.997l243 156l54 -70c14.667 -19.333 33 -39.333 55 -60c40.667 -39.333 85 -65.666 133 -78.999v317c-140 32.667 -243.333 73.667 -310 123c-92 68 -138 163.333 -138 286c0 126.667 41.667 227.667 125 303
c77.333 70 181 110.333 311 121v125h211v-130c166.667 -24 301 -107.333 403 -250l-240 -174c-56 78.667 -113 130.334 -171 155.001v-294c150 -33.333 259.667 -77.666 329 -132.999c84 -66.667 126 -160.667 126 -282c0 -128 -43.333 -228.667 -130 -302
c-77.333 -64.667 -183 -103.667 -317 -117v-153h-211v153zM551 1128c-77.333 -16.667 -116 -61.333 -116 -134c0 -61.333 38.667 -105.333 116 -132v266zM742 228.998c82.667 16.667 124 62.667 124 138c0 61.333 -41.333 106 -124 134v-272z" />
    <glyph glyph-name="percent" unicode="%" horiz-adv-x="2146" 
d="M1687 -18c-130 0 -230.665 46 -301.998 138c-64.667 83.333 -97 192 -97 326s32.667 242.667 98 326c71.333 91.333 171.666 137 300.999 137c130 0 230.333 -46 301 -138c64.667 -82.667 97 -191 97 -325s-32 -242.667 -96 -326
c-70.667 -92 -171.334 -138 -302.001 -138zM828.002 0h-332l821 1365h331zM460.002 461c-130 0 -230.666 46 -301.999 138c-64.667 83.333 -97 192 -97 326s32.333 242.667 97 326c71.333 91.333 172 137 302 137c129.333 0 229.666 -46 300.999 -138
c64 -82.667 96 -191 96 -325s-32 -242.667 -96 -326c-70.667 -92 -171 -138 -301 -138zM1687 674c-63.333 0 -95 -76 -95 -228c0 -155.333 31.667 -233 95 -233c62.667 0 94 77.667 94 233c0 152 -31.333 228 -94 228zM460.003 1153c-64 0 -96 -76 -96 -228
c0 -154.667 32 -232 96 -232c62 0 93 77.333 93 232c0 152 -31 228 -93 228z" />
    <glyph glyph-name="ampersand" unicode="&#x26;" horiz-adv-x="1540" 
d="M14 375c0 116 34.6689 212.334 104.002 289.001c30 32.667 66.667 63 110 91c35.333 22 78.666 44.667 129.999 68c-61.333 123.333 -92 232.666 -92 327.999c0 110.667 36.333 201.667 109 273c82.667 80 199.334 120 350.001 120c142 0 250.667 -36.333 326 -109
c65.333 -63.333 98 -143 98 -239c0 -105.333 -34.667 -195.333 -104 -270c-28 -31.333 -63.333 -61 -106 -89c-34 -22.667 -75.333 -46.334 -124 -71.001c22 -30 45.667 -60 71 -90c51.333 -61.333 93.666 -107.666 126.999 -138.999c34.667 75.333 58 159 70 251h340
c-11.333 -78 -27.333 -151.667 -48 -221c-24 -80.667 -54.333 -153.667 -91 -219c79.333 -30 168.666 -45 267.999 -45v-323c-205.333 0 -378 33.333 -518 100c-118.667 -72.667 -260 -109 -424 -109c-397.333 0 -596 134.667 -596 404zM819.002 1182
c0 70.667 -28 106 -84 106c-66.667 0 -100 -38 -100 -114c0 -60.667 18.333 -127.667 55 -201c86 54 129 123.667 129 209zM764.002 279.001c-28 25.333 -57 55.333 -87 90c-24 27.333 -52.333 61.333 -85 102l-93 121c-50 -44 -75 -96 -75 -156
c0 -126.667 62.667 -190 188 -190c53.333 0 104 11 152 33z" />
    <glyph glyph-name="quotesingle" unicode="'" horiz-adv-x="565" 
d="M114 1350v166h336v-166l-35 -402h-266z" />
    <glyph glyph-name="parenleft" unicode="(" horiz-adv-x="831" 
d="M603 -420c-174 146.667 -303.667 297.998 -389 453.998c-92.667 170 -139 356.667 -139 560s46.333 390 139 560c85.333 156 215 307.333 389 454l189 -197c-93.333 -112.667 -165 -234.667 -215 -366c-54.667 -143.333 -82 -293.666 -82 -450.999
c0 -161.333 28.333 -314.666 85 -459.999c52 -134 126.667 -258 224 -372z" />
    <glyph glyph-name="parenright" unicode=")" horiz-adv-x="831" 
d="M26 -238c97.333 114 172.333 238.002 225 372.002c56 145.333 84 298.666 84 459.999c0 157.333 -27 307.666 -81 450.999c-50 131.333 -122 253.333 -216 366l189 197c174 -146.667 303.667 -298 389 -454c92.667 -170 139 -356.667 139 -560s-46.333 -390 -139 -560
c-85.333 -156 -215 -307.333 -389 -454z" />
    <glyph glyph-name="asterisk" unicode="*" horiz-adv-x="1040" 
d="M179 696l183 265l-322 -23v225l324 -22l-185 266l201 119l139 -293l139 293l203 -119l-184 -266l321 22v-225l-321 23l184 -265l-200 -118l-142 290l-139 -290z" />
    <glyph glyph-name="plus" unicode="+" horiz-adv-x="1331" 
d="M506 578h-367v315h367v389h319v-389h367v-315h-367v-390h-319v390z" />
    <glyph glyph-name="comma" unicode="," horiz-adv-x="587" 
d="M243 0h-162v369h424v-314l-176 -315h-189z" />
    <glyph glyph-name="hyphen" unicode="-" horiz-adv-x="731" 
d="M81 774h567v-262h-567v262z" />
    <glyph glyph-name="period" unicode="." horiz-adv-x="587" 
d="M81 369h424v-369h-424v369z" />
    <glyph glyph-name="slash" unicode="/" horiz-adv-x="1388" 
d="M928 1516h413l-880 -1516h-414z" />
    <glyph glyph-name="zero" unicode="0" horiz-adv-x="1460" 
d="M244 187c-116.667 141.333 -175 331.666 -175 570.999c0 238.667 58.333 428.667 175 570c118.667 144 281 216 487 216c205.333 0 367 -72 485 -216c116 -140.667 174 -330.667 174 -570s-58 -429.666 -174 -570.999c-118 -144 -279.667 -216 -485 -216
c-206 0 -368.333 72 -487 216zM982 758c0 307.333 -83.667 461 -251 461c-169.333 0 -254 -153.667 -254 -461c0 -312.667 84.667 -469 254 -469c167.333 0 251 156.333 251 469z" />
    <glyph glyph-name="one" unicode="1" horiz-adv-x="960" 
d="M43 315h268v838c-88 -46.667 -176 -70 -264 -70v334c116 4 206.667 37 272 99h390v-1201h231v-315h-897v315z" />
    <glyph glyph-name="two" unicode="2" horiz-adv-x="1280" 
d="M34 33c0 65.333 3.66406 120 10.9971 164c10 60 28 116 54 168c30.667 60 73.667 118.333 129 175c62 62 140.667 123.667 236 185l153 97c46 30 80.333 55 103 75c50.667 45.333 76 101.333 76 168c0 92.667 -51.333 139 -154 139c-115.333 0 -220.333 -66 -315 -198
l-285 208c76.667 106 160.334 185.333 251.001 238c104.667 61.333 225.334 92 362.001 92c358.667 0 538 -150 538 -450c0 -46 -2.66699 -84.333 -8 -115c-7.33301 -42 -20.333 -81.333 -39 -118c-46 -86.667 -134.667 -171.667 -266 -255l-137 -88
c-46 -30 -83 -56 -111 -78c-67.333 -51.333 -102.666 -93 -105.999 -125h677v-315h-1169v33z" />
    <glyph glyph-name="three" unicode="3" horiz-adv-x="1302" 
d="M8 221l246.001 229.999c46 -50 102.667 -89.333 170 -118c62 -26.667 122 -40 180 -40c147.333 0 221 56 221 168c0 68.667 -28.333 116.667 -85 144c-47.333 22.667 -123.333 34 -228 34h-84v295h86c116 0 195.333 17.333 238 52c17.333 13.333 29 29.666 35 48.999
c2.66699 8 4.66699 16.667 6 26c0.666992 7.33301 1 15.333 1 24c0 83.333 -59.333 125 -178 125c-56.667 0 -109.334 -7.66699 -158.001 -23c-64.667 -20 -124 -53.333 -178 -100l-215 259c72 62.667 163.333 111.334 274 146.001c105.333 33.333 214 50 326 50
c355.333 0 533 -130.333 533 -391c0 -188.667 -97 -304.667 -291 -348c110 -17.333 196 -60.666 258 -129.999c58.667 -66 88 -145.667 88 -239c0 -147.333 -58 -262 -174 -344c-112 -79.333 -263.667 -119 -455 -119c-260.667 0 -466 83.333 -616 250z" />
    <glyph glyph-name="four" unicode="4" horiz-adv-x="1441" 
d="M773 266h-737v297l690 953h443v-932h256v-318h-256v-266h-396v266zM773 584v440h-4l-315 -440h319z" />
    <glyph glyph-name="five" unicode="5" horiz-adv-x="1269" 
d="M269 17c-91.333 28 -177 70 -257 126l197 275c118.667 -83.333 242 -125 370 -125c169.333 0 254 71.667 254 215c0 152.667 -76.333 229 -229 229c-94.667 0 -178.667 -41.667 -252 -125l-256 78l61 826h969l-20 -304h-639l-23 -256c24 20.667 59 37.667 105 51
c56 16.667 118.667 25 188 25c165.333 0 292.333 -48.667 381 -146c82 -90 123 -212 123 -366c0 -166 -56.333 -298.667 -169 -398c-114 -100.667 -268.667 -151 -464 -151c-124.667 0 -237.667 15.333 -339 46z" />
    <glyph glyph-name="six" unicode="6" horiz-adv-x="1374" 
d="M248 169c-119.333 135.333 -179.002 322.67 -179.002 562.003c0 150 22 280.667 66 392c38.667 100.667 94.334 184 167.001 250c64.667 59.333 140 103.666 226 132.999c76 25.333 155.667 38 239 38c113.333 0 212 -14 296 -42c34 -11.333 66.667 -25.333 98 -42
c24.667 -12.667 50.334 -28.334 77.001 -47.001l-170 -274c-88 56 -181.333 84 -280 84c-184 0 -290 -114.667 -318 -344c112 72 231 108 357 108c140.667 0 254 -35 340 -105c103.333 -83.333 155 -209.333 155 -378c0 -162.667 -55.667 -292.334 -167 -389.001
c-110 -96 -255 -144 -435 -144c-198.667 0 -356 66 -472 198zM890.998 345.004c32 39.333 48 86 48 140c0 58.667 -12.667 105 -38 139c-33.333 44 -87.333 66 -162 66c-106.667 0 -197 -28 -271 -84c8.66699 -220 98.334 -330 269.001 -330c65.333 0 116.666 23 153.999 69
z" />
    <glyph glyph-name="seven" unicode="7" horiz-adv-x="1095" 
d="M690 1192h-698v324h1114v-297l-559 -1219h-414z" />
    <glyph glyph-name="eight" unicode="8" horiz-adv-x="1331" 
d="M197 82c-112.667 74.667 -168.999 181 -168.999 319c0 85.333 31.667 164.333 95 237c56 62.667 127.333 112 214 148c-81.333 45.333 -140 92.333 -176 141c-42 59.333 -63 134.666 -63 225.999c0 106 46.667 195.667 140 269c104 81.333 246.333 122 427 122
c185.333 0 329.333 -40.667 432 -122c90 -72 135 -161.667 135 -269c0 -167.333 -77.667 -286 -233 -356c48 -21.333 87.667 -42 119 -62c38.667 -24 70.667 -50 96 -78c58.667 -65.333 88 -150.666 88 -255.999c0 -138 -56.667 -244.333 -170 -319
c-110.667 -74 -266.334 -111 -467.001 -111s-356.667 37 -468 111zM837.001 1114c0 38 -12.001 70.333 -36.001 97c-30 34 -74.667 51 -134 51c-60.667 0 -106 -15.333 -136 -46c-25.333 -25.333 -38 -58 -38 -98c0 -46.667 19 -85.667 57 -117
c30.667 -26 79.334 -50.333 146.001 -73c94 50.667 141 112.667 141 186zM890 424c0 80.667 -85.333 153.667 -256 219c-129.333 -67.333 -194 -140.333 -194 -219c0 -120 75 -180 225 -180s225 60 225 180z" />
    <glyph glyph-name="nine" unicode="9" horiz-adv-x="1374" 
d="M311 13c-34.667 11.333 -67.668 25.332 -99.001 41.999c-24.667 13.333 -50.334 29 -77.001 47l170 265c88 -56 181.667 -84 281 -84c182.667 0 288.334 118 317.001 354c-111.333 -72.667 -230 -109 -356 -109c-141.333 0 -255 35 -341 105
c-103.333 84 -155 210.333 -155 379c0 162 55.667 291.667 167 389c110 95.333 255 143 435 143c198.667 0 356 -66 472 -198c119.333 -135.333 179 -322.666 179 -561.999c0 -149.333 -21.667 -280 -65 -392c-39.333 -100 -95.333 -183.333 -168 -250
c-64 -58.667 -139 -102.667 -225 -132c-76 -26 -156 -39 -240 -39c-113.333 0 -211.666 14 -294.999 42zM904.999 908.999c-8 213.333 -97.332 319.999 -267.999 319.999c-66 0 -117.667 -21 -155 -63c-32 -37.333 -48 -82.666 -48 -135.999
c0 -58.667 12.667 -104.667 38 -138c33.333 -44.667 87.666 -67 162.999 -67c106 0 196 28 270 84z" />
    <glyph glyph-name="colon" unicode=":" horiz-adv-x="624" 
d="M100 1098h424v-369h-424v369zM100 369h424v-369h-424v369z" />
    <glyph glyph-name="semicolon" unicode=";" horiz-adv-x="624" 
d="M100 1098h424v-369h-424v369zM256 0h-156v369h424v-303l-182 -326h-189z" />
    <glyph glyph-name="less" unicode="&#x3c;" horiz-adv-x="1331" 
d="M131 559v209l1083 481v-325l-655 -260l655 -261v-325z" />
    <glyph glyph-name="equal" unicode="=" horiz-adv-x="1331" 
d="M147 1047h1034v-279h-1034v279zM147 580h1034v-279h-1034v279z" />
    <glyph glyph-name="greater" unicode="&#x3e;" horiz-adv-x="1331" 
d="M131 403l655 261l-655 260v325l1083 -481v-209l-1083 -481v325z" />
    <glyph glyph-name="question" unicode="?" horiz-adv-x="1263" 
d="M430 500c-4 27.333 -6.33301 54 -7 80c-0.666992 16 -1 40.333 -1 73c0 73.333 23.667 138.333 71 195c37.333 44.667 90 84.334 158 119.001c88.667 45.333 133 100.666 133 165.999c0 62.667 -48.333 94 -145 94c-56.667 0 -120 -17.333 -190 -52
c-64 -32.667 -116 -70.667 -156 -114l-238 229c70.667 75.333 155.667 135 255 179c114.667 50 239.334 75 374.001 75c159.333 0 283.333 -35.667 372 -107c83.333 -67.333 125 -157.333 125 -270c0 -86.667 -22.667 -159.667 -68 -219
c-36.667 -47.333 -91.667 -89 -165 -125c-90.667 -44 -145.334 -85.333 -164.001 -124c-10 -20 -16.333 -46.667 -19 -80c-0.666992 -14 -1 -31.667 -1 -53v-66h-334zM385 348h424v-348h-424v348z" />
    <glyph glyph-name="at" unicode="@" horiz-adv-x="1777" 
d="M288 195c-138 144 -206.999 330.333 -206.999 559c0 226.667 73.667 414 221 562c151.333 152 348 228 590 228c242.667 0 438 -72 586 -216c144.667 -141.333 217 -324.666 217 -549.999c0 -140 -35.667 -252 -107 -336c-76 -88.667 -182.333 -133 -319 -133
c-82.667 0 -147.334 17.333 -194.001 52c-40.667 30 -71 76.333 -91 139c-39.333 -46 -80 -81.333 -122 -106c-58 -33.333 -122.333 -50 -193 -50c-173.333 0 -260 103 -260 309c0 167.333 38 302 114 404c71.333 95.333 159 143 263 143c60.667 0 109.667 -10 147 -30
c28.667 -15.333 54.667 -39.333 78 -72l14 86h303l-106 -613c-13.333 -72 18 -108 94 -108c140.667 0 211 101.667 211 305c0 183.333 -56.667 330.666 -170 441.999c-116 113.333 -271.667 170 -467 170c-194 0 -348.333 -58.667 -463 -176
c-110.667 -114.667 -166 -264.667 -166 -450c0 -188.667 53.333 -340.667 160 -456c111.333 -120.667 263.666 -181 456.999 -181c153.333 0 277.333 34.667 372 104l82 -115c-119.333 -90 -275.666 -135 -468.999 -135c-240 0 -431.667 74.667 -575 224zM929.001 631
l47 270c-32 34 -66.667 51 -104 51c-53.333 0 -94 -28.333 -122 -85c-24 -48.667 -36 -109 -36 -181c0 -76.667 33.333 -115 100 -115c40 0 78.333 20 115 60z" />
    <glyph glyph-name="A" unicode="A" horiz-adv-x="1495" 
d="M557 1522h381l536 -1522h-414l-92 283h-477l-98 -283h-373zM876 573l-139 420h-4l-146 -420h289z" />
    <glyph glyph-name="B" unicode="B" horiz-adv-x="1482" 
d="M141 1516l636.999 -0.00195312c74 0 138 -4 192 -12c70 -9.33301 129.333 -26 178 -50c56.667 -27.333 100 -64.666 130 -111.999c34 -53.333 51 -119.666 51 -198.999c0 -102.667 -29 -184.334 -87 -245.001c-48.667 -51.333 -115.334 -85 -200.001 -101v-4
c102.667 -18.667 179.667 -53.667 231 -105c62 -61.333 93 -150.666 93 -267.999c0 -78.667 -17.333 -147 -52 -205c-31.333 -52 -76 -95 -134 -129c-51.333 -30 -111.666 -52.333 -180.999 -67c-61.333 -12.667 -126.666 -19 -195.999 -19h-662v1516zM736.999 910.998
c135.333 0 203 48.667 203 146c0 96.667 -66.333 145 -199 145h-199v-291h195zM746.999 306.998c146 0 219 54.667 219 164c0 105.333 -74.333 158 -223 158h-201v-322h205z" />
    <glyph glyph-name="C" unicode="C" horiz-adv-x="1517" 
d="M275 156c-137.333 136.667 -205.998 337.332 -205.998 601.999c0 134 19 253 57 357c35.333 96.667 86.666 178 153.999 244c125.333 123.333 292 185 500 185c192.667 0 343 -46.667 451 -140c91.333 -78.667 154.666 -193 189.999 -343l-387 -115
c-24 84.667 -52.333 146.334 -85 185.001c-42 50 -99 75 -171 75c-199.333 0 -299 -149.333 -299 -448c0 -142.667 25 -254 75 -334c52.667 -83.333 128.667 -125 228 -125c76 0 135.333 24.667 178 74c38 43.333 69.333 115 94 215l387 -86
c-40 -168 -107.667 -295 -203 -381c-110.667 -100 -263.334 -150 -458.001 -150c-213.333 0 -381.666 61.667 -504.999 185z" />
    <glyph glyph-name="D" unicode="D" horiz-adv-x="1542" 
d="M141 1516l498.001 0.00195312c118.667 0 225.334 -12 320.001 -36c104 -26.667 192.333 -67.334 265 -122.001c79.333 -60 139.666 -136.667 180.999 -230c44.667 -101.333 67 -221.333 67 -360c0 -144 -22.667 -267.667 -68 -371c-41.333 -96 -102 -174.667 -182 -236
c-72.667 -56.667 -161.334 -98.334 -266.001 -125.001c-93.333 -24 -199 -36 -317 -36h-498v1516zM661.001 330.002c151.333 0 257 34 317 102c56.667 64 85 174.667 85 332c0 145.333 -28.667 249 -86 311c-62 67.333 -168.667 101 -320 101h-108v-846h112z" />
    <glyph glyph-name="E" unicode="E" horiz-adv-x="1320" 
d="M141 1516h1081v-340h-671v-246h479v-320h-479v-280h706v-330h-1116v1516z" />
    <glyph glyph-name="F" unicode="F" horiz-adv-x="1218" 
d="M141 1516h1047v-340h-637v-304h444v-319h-444v-553h-410v1516z" />
    <glyph glyph-name="G" unicode="G" horiz-adv-x="1589" 
d="M227 196c-105.333 136 -158 325.333 -158 568c0 240 62.333 429.333 187 568c127.333 141.333 302.666 212 525.999 212c76.667 0 145.334 -7 206.001 -21c68 -16 128.333 -41.667 181 -77c118 -78.667 202 -210.334 252 -395.001l-375 -105
c-53.333 173.333 -142 260 -266 260h-15c-5.33301 0 -11 -0.333008 -17 -1c-14.667 -1.33301 -29 -3.66602 -43 -6.99902c-37.333 -9.33301 -70.333 -26 -99 -50c-38 -31.333 -67.333 -74.666 -88 -129.999c-24.667 -66.667 -37 -149.334 -37 -248.001
c0 -99.333 11.333 -183.333 34 -252c19.333 -59.333 47.333 -106.666 84 -141.999c29.333 -29.333 64 -50.333 104 -63c29.333 -9.33301 61 -14 95 -14c130 0 218.667 60.667 266 182h-221v299h610v-780h-321v201h-4c-13.333 -48.667 -51 -96.334 -113 -143.001
c-35.333 -26 -74 -46.333 -116 -61c-48 -17.333 -98.667 -26 -152 -26c-230.667 0 -404 75 -520 225z" />
    <glyph glyph-name="H" unicode="H" horiz-adv-x="1605" 
d="M141 1516h410v-564h503v564h410v-1516h-410v612h-503v-612h-410v1516z" />
    <glyph glyph-name="I" unicode="I" horiz-adv-x="716" 
d="M153 1516h410v-1516h-410v1516z" />
    <glyph glyph-name="J" unicode="J" horiz-adv-x="1126" 
d="M199 14c-59.333 21.333 -120.332 55.667 -182.999 103l207 276c34.667 -28 68 -50 100 -66c43.333 -21.333 85.666 -32 126.999 -32c106.667 0 160 79 160 237v984h410v-1055c0 -151.333 -40.333 -268 -121 -350c-90.667 -93.333 -232 -140 -424 -140
c-106 0 -198 14.333 -276 43z" />
    <glyph glyph-name="K" unicode="K" horiz-adv-x="1511" 
d="M141 1516h410v-549l417 549h476l-510 -598l555 -918h-463l-359 606l-116 -135v-471h-410v1516z" />
    <glyph glyph-name="L" unicode="L" horiz-adv-x="1218" 
d="M141 1516h410v-1186h637v-330h-1047v1516z" />
    <glyph glyph-name="M" unicode="M" horiz-adv-x="1890" 
d="M141 1516l542.999 0.00195312l266 -1029h4l240 1029h555v-1516h-391v938h-5c-11.333 -72 -23.666 -138.333 -36.999 -199c-10.667 -46.667 -25.667 -103.334 -45 -170.001l-159 -569h-361l-155 569c-20 70.667 -34.667 126 -44 166
c-13.333 57.333 -27.333 131.666 -42 222.999h-4v-958h-365v1516z" />
    <glyph glyph-name="N" unicode="N" horiz-adv-x="1619" 
d="M141 1516h403l555 -850h5v850h374v-1516h-379l-579 848h-4v-848h-375v1516z" />
    <glyph glyph-name="O" unicode="O" horiz-adv-x="1628" 
d="M304 156c-74 67.333 -130.667 149 -170 245c-43.333 104.667 -65 223.667 -65 357s21.667 252.333 65 357c39.333 96 96 177.333 170 244c136.667 123.333 306.667 185 510 185s373 -61.667 509 -185c73.333 -66.667 130 -148 170 -244
c43.333 -104.667 65 -223.667 65 -357s-21.667 -252.333 -65 -357c-40 -96 -96.667 -177.667 -170 -245c-136 -123.333 -305.667 -185 -509 -185s-373.333 61.667 -510 185zM1061 424c58 81.333 87.001 192.666 87.001 333.999c0 298.667 -111.333 448 -334 448
c-223.333 0 -335 -149.333 -335 -448c0 -141.333 29 -252.666 87 -333.999c59.333 -83.333 142 -125 248 -125c105.333 0 187.666 41.667 246.999 125z" />
    <glyph glyph-name="P" unicode="P" horiz-adv-x="1413" 
d="M141 1516l567 -0.000976562c92 0 171.667 -6 239 -18c83.333 -14.667 153.333 -38.667 210 -72c66 -38.667 116 -91 150 -157c38 -72.667 57 -162.667 57 -270c0 -106 -20.333 -195.667 -61 -269c-36 -65.333 -88 -117.666 -156 -156.999
c-58 -33.333 -128.333 -57.333 -211 -72c-66 -12 -142 -18 -228 -18h-161v-483h-406v1516zM723 794.999c89.333 0 153.333 17.998 192 53.998c32.667 30.667 49 77.334 49 140.001s-16.333 109.334 -49 140.001c-38.667 36.667 -102.667 55 -192 55h-176v-389h176z" />
    <glyph glyph-name="Q" unicode="Q" horiz-adv-x="1628" 
d="M1095 -416c-152 0 -275.335 40 -370.002 120c-92 76.667 -140.667 176.667 -146 300c-151.333 43.333 -271.666 124.333 -360.999 243c-102 134 -153 304.333 -153 511c0 133.333 21.667 252.333 65 357c39.333 96 96 177.333 170 244
c136.667 123.333 306.667 185 510 185s373 -61.667 509 -185c73.333 -66.667 130 -148 170 -244c43.333 -104.667 65 -223.667 65 -357c0 -216.667 -56 -393.667 -168 -531c-98.667 -120 -229 -198.333 -391 -235c22.667 -43.333 62.334 -70.333 119.001 -81
c22.667 -4 51.667 -6.33301 87 -7h205v-320h-311zM1057 424c58 81.333 87.001 192.666 87.001 333.999c0 298.667 -111.333 448 -334 448c-223.333 0 -335 -149.333 -335 -448c0 -141.333 29 -252.666 87 -333.999c59.333 -83.333 142 -125 248 -125
c105.333 0 187.666 41.667 246.999 125z" />
    <glyph glyph-name="R" unicode="R" horiz-adv-x="1472" 
d="M141 1516l592 -0.000976562c204 0 357 -37 459 -111c112 -80 168 -207.667 168 -383c0 -227.333 -99.667 -374.666 -299 -441.999l321 -580h-434l-293 526h-113v-526h-401v1516zM719 837.999c160.667 0 241 58 241 174c0 114.667 -80.333 172 -241 172h-177v-346h177z
" />
    <glyph glyph-name="S" unicode="S" horiz-adv-x="1452" 
d="M315 75c-103.333 60 -190.001 146.329 -260.001 258.996l303 188c94.667 -152.667 227 -229 397 -229c146.667 0 220 43.667 220 131c0 43.333 -26.667 79 -80 107c-22 12 -50.333 23.333 -85 34c-26 8.66699 -61.333 18.334 -106 29.001l-96 24
c-38 10 -71 19.333 -99 28c-75.333 23.333 -137.333 49.333 -186 78c-62 36.667 -109 80.334 -141 131.001c-36.667 58.667 -55 128.667 -55 210c0 152 53 270.667 159 356c103.333 82 242.666 123 417.999 123c146.667 0 277.667 -31 393 -93
c48.667 -26 94.334 -57.667 137.001 -95c36.667 -32 71.667 -68.333 105 -109l-274 -225c-44 53.333 -98.667 98 -164 134c-69.333 37.333 -135.666 56 -198.999 56c-117.333 0 -176 -36.667 -176 -110c0 -45.333 26 -82.333 78 -111c22 -12 50.333 -23.667 85 -35
c26 -8 61 -17.333 105 -28l96 -24c37.333 -9.33301 70.333 -18.666 99 -27.999c75.333 -23.333 138 -50.333 188 -81c62 -37.333 109 -81.666 141 -132.999c37.333 -59.333 56 -129 56 -209c0 -136 -47.667 -246.667 -143 -332c-53.333 -47.333 -119.333 -83.333 -198 -108
c-85.333 -28 -184 -42 -296 -42c-163.333 0 -304 34.667 -422 104z" />
    <glyph glyph-name="T" unicode="T" horiz-adv-x="1351" 
d="M470 1176h-436v340h1282v-340h-436v-1176h-410v1176z" />
    <glyph glyph-name="U" unicode="U" horiz-adv-x="1492" 
d="M110 608v908h410v-906c0 -202 77 -303 231 -303c152.667 0 229 101 229 303v906h402v-908c0 -420.667 -211.667 -631 -635 -631c-424.667 0 -637 210.333 -637 631z" />
    <glyph glyph-name="V" unicode="V" horiz-adv-x="1462" 
d="M20 1516h414l303 -986h4l319 986h381l-516 -1522h-389z" />
    <glyph glyph-name="W" unicode="W" horiz-adv-x="1984" 
d="M28 1516l412 -0.00195312l133 -615c0.666992 -1.33301 1.33398 -4.33301 2.00098 -9l28 -114c12 -53.333 22.333 -110.666 31 -171.999h4c8 58.667 17.667 115.334 29 170.001l29 123l129 617h370l136 -601l36 -143c11.333 -48 21.666 -103.333 30.999 -166h4
c8 60.667 17 115 27 163l151 747h375l-393 -1516h-342l-207 948h-4l-229 -948h-349z" />
    <glyph glyph-name="X" unicode="X" horiz-adv-x="1540" 
d="M534 797l-436 719h467l227 -400l209 400h420l-422 -723l475 -793h-457l-268 463l-252 -463h-432z" />
    <glyph glyph-name="Y" unicode="Y" horiz-adv-x="1476" 
d="M532 633l-528 883h422l313 -537l316 537h417l-530 -883v-633h-410v633z" />
    <glyph glyph-name="Z" unicode="Z" horiz-adv-x="1382" 
d="M51 281l741 895h-692v340h1213v-291l-721 -895h721v-330h-1262v281z" />
    <glyph glyph-name="bracketleft" unicode="[" horiz-adv-x="954" 
d="M126 1516h784v-279h-376v-1368h376v-279h-784v1926z" />
    <glyph glyph-name="backslash" unicode="\" horiz-adv-x="1306" 
d="M6 1516h414l880 -1516h-413z" />
    <glyph glyph-name="bracketright" unicode="]" horiz-adv-x="954" 
d="M43 -131h377v1368h-377v279h784v-1926h-784v279z" />
    <glyph glyph-name="asciicircum" unicode="^" horiz-adv-x="1167" 
d="M450 1583h266l265 -360h-228l-172 131l-168 -131h-227z" />
    <glyph glyph-name="underscore" unicode="_" horiz-adv-x="1024" 
d="M0 -76h1024v-274h-1024v274z" />
    <glyph glyph-name="grave" unicode="`" horiz-adv-x="1024" 
d="M159 1583h389l191 -371h-269z" />
    <glyph glyph-name="a" unicode="a" horiz-adv-x="1206" 
d="M132 59c-65.333 56 -97.999 134.667 -97.999 236c0 256.667 226 395.334 678 416.001v14c0 61.333 -40.333 92 -121 92c-60 0 -120.667 -11.667 -182 -35c-53.333 -20 -105.333 -48 -156 -84l-166 230c28 24.667 58 47.334 90 68.001
c37.333 23.333 77.666 43.666 120.999 60.999c104 40.667 223 61 357 61c301.333 0 452 -153.667 452 -461v-391c0 -127.333 10.333 -216 31 -266h-402c-16 51.333 -24 104.666 -24 159.999c-94 -117.333 -215.667 -176 -365 -176c-86 0 -157.667 25 -215 75zM640.001 304
c28 10.667 52 25.333 72 44v156c-188.667 -6 -283 -53.333 -283 -142c0 -51.333 30 -77 90 -77c46.667 0 87 6.33301 121 19z" />
    <glyph glyph-name="b" unicode="b" horiz-adv-x="1302" 
d="M516 119v-119h-406v1516h406v-588c38 56.667 80 100.667 126 132c58.667 38.667 125 58 199 58c273.333 0 410 -189.667 410 -569c0 -376.667 -138 -565 -414 -565c-136.667 0 -243.667 45 -321 135zM845 547c0 76 -10.666 132.667 -31.999 170
c-26.667 46 -71.334 69 -134.001 69c-28.667 0 -59.667 -8.66699 -93 -26c-28 -15.333 -51.333 -33 -70 -53v-353c52 -46 107.667 -69 167 -69c108 0 162 87.333 162 262z" />
    <glyph glyph-name="c" unicode="c" horiz-adv-x="1155" 
d="M417 3c-70 19.333 -130.329 49.335 -180.996 90.002c-58 46 -102.333 104.333 -133 175c-34.667 78.667 -52 171.667 -52 279c0 108 18.667 202 56 282c33.333 70.667 80.666 129 141.999 175c53.333 40 115.666 69.667 186.999 89c61.333 16.667 125.666 25 192.999 25
c148 0 264 -35 348 -105c36 -30 67.333 -67 94 -111c22 -36.667 41.667 -80.667 59 -132l-340 -106c-28.667 108.667 -84 163 -166 163c-111.333 0 -167 -94 -167 -282c0 -90.667 10.333 -158.334 31 -203.001c26 -56 70 -84 132 -84c38.667 0 72 11.333 100 34
c35.333 29.333 61.666 76.666 78.999 141.999l335 -112c-17.333 -45.333 -38.333 -86.333 -63 -123c-29.333 -43.333 -63 -80.333 -101 -111c-93.333 -74 -212 -111 -356 -111c-70 0 -135.667 8.66699 -197 26z" />
    <glyph glyph-name="d" unicode="d" horiz-adv-x="1302" 
d="M51 537c0 185.333 37.668 329.332 113.001 431.999c73.333 99.333 173.666 149 300.999 149c143.333 0 250.333 -50.333 321 -151v549h406v-1250c0 -128 11 -216.667 33 -266h-414c-4 5.33301 -7.66699 14.333 -11 27l-8 43c-4 30.667 -6 62 -6 94
c-36.667 -55.333 -78.667 -97.666 -126 -126.999c-58 -35.333 -124.333 -53 -199 -53c-273.333 0 -410 184.333 -410 553zM716.001 311.999c28 14.667 51.334 32.333 70.001 53v352c-52 46 -108 69 -168 69c-107.333 0 -161 -82.333 -161 -247
c0 -78 10.667 -137.333 32 -178c26.667 -50.667 71 -76 133 -76c29.333 0 60.666 9 93.999 27z" />
    <glyph glyph-name="e" unicode="e" horiz-adv-x="1206" 
d="M423 4c-73.333 20 -136.335 50.333 -189.002 91c-58 46 -102.333 104.333 -133 175c-33.333 78 -50 170.333 -50 277c0 104 19.667 195.667 59 275c34.667 69.333 83.334 128 146.001 176c54.667 40.667 117.334 71.667 188.001 93c61.333 18 123 27 185 27
c64 0 122 -6.66699 174 -20c66 -18 123 -47 171 -87c56.667 -47.333 100.334 -110.333 131.001 -189c34.667 -90 52 -199.333 52 -328v-62h-703c10 -67.333 34.333 -115 73 -143c33.333 -23.333 82.333 -35 147 -35c51.333 0 109 11.333 173 34c50.667 18 98 40 142 66
l145 -245c-134.667 -88 -298.334 -132 -491.001 -132c-80.667 0 -154 9 -220 27zM798.998 664c-14.667 114.667 -72.333 172 -173 172c-89.333 0 -145 -57.333 -167 -172h340z" />
    <glyph glyph-name="f" unicode="f" horiz-adv-x="890" 
d="M214 807h-177.999v291h178v41c0 54 3.66699 99.667 11 137c10 49.333 27.667 91 53 125c30 39.333 71 69.333 123 90c58.667 23.333 132.334 35 221.001 35c38 0 86.667 -2.33301 146 -7l65 -6l37 -6v-276c-24.667 8 -60.334 12 -107.001 12
c-22.667 0 -40.334 -0.666992 -53.001 -2c-18 -2.66699 -33.333 -7.66699 -46 -15c-29.333 -17.333 -44 -52 -44 -104v-24h237v-291h-237v-807h-406v807z" />
    <glyph glyph-name="g" unicode="g" horiz-adv-x="1300" 
d="M106 -346c-84 38 -126.001 95.999 -126.001 173.999c0 47.333 18.333 90 55 128c28 28.667 67 55.667 117 81c-44 32.667 -66 75 -66 127c0 47.333 17.333 94 52 140c28.667 38.667 68 74.667 118 108c-124 71.333 -186 176.333 -186 315c0 113.333 43 205.333 129 276
c93.333 76.667 222.333 115 387 115c170 0 299.667 -40.333 389 -121c83.333 74.667 181.666 114.334 294.999 119.001v-301h-28l-40 -2c-37.333 -2.66699 -74.666 -8 -111.999 -16c2.66699 -24.667 4 -48 4 -70c0 -114 -41.667 -206 -125 -276
c-90.667 -76.667 -218.334 -115 -383.001 -115c-52 0 -106.667 4.66699 -164 14c-10.667 -17.333 -16 -31 -16 -41c0 -26 35.333 -40.333 106 -43l136 -4c210.667 -6 360.334 -34 449.001 -84c88 -50 132 -130.333 132 -241c0 -114 -65 -201.667 -195 -263
c-119.333 -56 -279.666 -84 -480.999 -84c-205.333 0 -354.333 21.333 -447 64zM735.999 710.999c0 106 -48 159 -144 159c-95.333 0 -143 -53 -143 -159c0 -106.667 47.667 -160 143 -160c96 0 144 53.333 144 160zM878.999 -133.001c0 29.333 -13.666 48.667 -40.999 58
c-36.667 12.667 -119.334 21.334 -248.001 26.001l-155 6c-26 0 -51.333 2 -76 6c-8 -22.667 -12 -42.334 -12 -59.001c0 -79.333 92 -119 276 -119c170.667 0 256 27.333 256 82z" />
    <glyph glyph-name="h" unicode="h" horiz-adv-x="1296" 
d="M110 1516h406v-588c30.667 49.333 71.667 90.333 123 123c70 44.667 150.333 67 241 67c94 0 168 -23.333 222 -70c62 -54 93 -136.333 93 -247v-801h-405v668c0 78.667 -30.667 118 -92 118c-57.333 0 -118 -25.667 -182 -77v-709h-406v1516z" />
    <glyph glyph-name="i" unicode="i" horiz-adv-x="647" 
d="M120 1516h406v-312h-406v312zM120 1098h406v-1098h-406v1098z" />
    <glyph glyph-name="j" unicode="j" horiz-adv-x="647" 
d="M121 1516h405v-312h-405v312zM-27 -411l-66 6l-36 6v266c24.667 -8 60 -12 106 -12c96 0 144 53.667 144 161v1082h405v-1172c0 -46 -3.66699 -85.333 -11 -118c-10 -44 -27.667 -81 -53 -111c-29.333 -36 -70 -63.667 -122 -83c-59.333 -21.333 -133 -32 -221 -32
c-38 0 -86.667 2.33301 -146 7z" />
    <glyph glyph-name="k" unicode="k" horiz-adv-x="1245" 
d="M110 1516h406v-760l268 342h430l-356 -418l368 -680h-416l-202 385l-92 -109v-276h-406v1516z" />
    <glyph glyph-name="l" unicode="l" horiz-adv-x="647" 
d="M120 1516h406v-1516h-406v1516z" />
    <glyph glyph-name="m" unicode="m" horiz-adv-x="1923" 
d="M110 1098h406.003v-170c29.333 48 70 89 122 123c67.333 44.667 140.666 67 219.999 67c166 0 265.667 -63.333 299 -190c29.333 48 70 89 122 123c67.333 44.667 140.666 67 219.999 67c106 0 187.333 -32 244 -96c52.667 -59.333 79 -140 79 -242v-780h-405v668
c0 78.667 -28 118 -84 118c-28.667 0 -57.334 -7.33301 -86.001 -22c-19.333 -10.667 -45.333 -29 -78 -55v-709h-406v668c0 78.667 -28 118 -84 118c-28.667 0 -57 -7.33301 -85 -22c-20 -10.667 -46 -29 -78 -55v-709h-406v1098z" />
    <glyph glyph-name="n" unicode="n" horiz-adv-x="1296" 
d="M112 1098h406v-170c30.667 49.333 71.667 90.333 123 123c70 44.667 150.333 67 241 67c94 0 168 -23.333 222 -70c62 -54 93 -136.333 93 -247v-801h-405v668c0 78.667 -30.667 118 -92 118c-57.333 0 -118 -25.667 -182 -77v-709h-406v1098z" />
    <glyph glyph-name="o" unicode="o" horiz-adv-x="1273" 
d="M434 3c-72.667 19.333 -135.666 49.333 -188.999 90c-60.667 46 -107.334 104.333 -140.001 175c-36 78.667 -54 171.667 -54 279c0 108.667 18 202.667 54 282c32 70.667 78.333 129 139 175c53.333 40 116.333 69.667 189 89c62.667 16.667 130.667 25 204 25
c72 0 139.667 -8.33301 203 -25c72.667 -19.333 135.667 -49 189 -89c60 -46 106.333 -104.333 139 -175c36 -79.333 54 -173.333 54 -282c0 -107.333 -18 -200.333 -54 -279c-32.667 -70.667 -79 -129 -139 -175c-53.333 -40.667 -116.333 -70.667 -189 -90
c-63.333 -17.333 -131 -26 -203 -26s-139.667 8.66699 -203 26zM817.001 545c0 88 -12.668 155.001 -38.001 201.001c-29.333 54 -76.666 81 -141.999 81c-120 0 -180 -94 -180 -282c0 -88.667 12.333 -156.334 37 -203.001c29.333 -56 77 -84 143 -84
c120 0 180 95.667 180 287z" />
    <glyph glyph-name="p" unicode="p" horiz-adv-x="1302" 
d="M110 1098h406v-170c38 56.667 80 100.667 126 132c58.667 38.667 125 58 199 58c273.333 0 410 -189.667 410 -569c0 -376.667 -138 -565 -414 -565c-136.667 0 -243.667 45 -321 135v-529h-406v1508zM845 547c0 76 -10.666 132.667 -31.999 170
c-26.667 46 -71.334 69 -134.001 69c-28.667 0 -59.667 -8.66699 -93 -26c-28 -15.333 -51.333 -33 -70 -53v-353c52 -46 107.667 -69 167 -69c108 0 162 87.333 162 262z" />
    <glyph glyph-name="q" unicode="q" horiz-adv-x="1302" 
d="M786 154c-38 -51.333 -79.999 -90.667 -125.999 -118c-58.667 -34.667 -125 -52 -199 -52c-273.333 0 -410 184.333 -410 553c0 185.333 37.667 329.333 113 432c73.333 99.333 173.666 149 300.999 149c143.333 0 250.333 -50.333 321 -151v131h406v-1508h-406v564z
M716.001 311.999c28 14.667 51.334 32.333 70.001 53v352c-52 46 -108 69 -168 69c-107.333 0 -161 -82.333 -161 -247c0 -78 10.667 -137.333 32 -178c26.667 -50.667 71 -76 133 -76c29.333 0 60.666 9 93.999 27z" />
    <glyph glyph-name="r" unicode="r" horiz-adv-x="890" 
d="M110 1098l406 -0.000976562v-170h2c14 22.667 29 43 45 61c20.667 24 43.334 44.667 68.001 62c63.333 44.667 139.666 67 228.999 67h4v-358c-5.33301 0.666992 -11.666 1.33398 -18.999 2.00098l-58 5l-26 1c-50.667 0 -99.334 -11.333 -146.001 -34
c-29.333 -14.667 -62.333 -36.667 -99 -66v-668h-406v1098z" />
    <glyph glyph-name="s" unicode="s" horiz-adv-x="1116" 
d="M250 23c-81.333 26 -155.332 63.334 -221.999 112.001l150 227c110.667 -88.667 241.667 -133 393 -133c87.333 0 131 24 131 72c0 46 -56.667 76.667 -170 92l-73 11l-76 16c-58 14 -106.667 32 -146 54c-48.667 26.667 -86 60.667 -112 102
c-29.333 47.333 -44 104.666 -44 171.999c0 118 44 210.333 132 277c81.333 62 187 93 317 93c114 0 212.667 -13 296 -39c72.667 -23.333 144.667 -60.666 216 -111.999l-150 -224c-125.333 74 -233 111 -323 111c-75.333 0 -113 -23.333 -113 -70
c0 -41.333 56 -69.333 168 -84l73 -10c28 -4.66699 53.333 -9.33398 76 -14.001c58 -13.333 107 -30.333 147 -51c48.667 -25.333 86 -57.333 112 -96c30 -44 45 -97.333 45 -160c0 -135.333 -52.333 -237 -157 -305c-88.667 -58 -204.334 -87 -347.001 -87
c-120 0 -227.667 15.333 -323 46z" />
    <glyph glyph-name="t" unicode="t" horiz-adv-x="925" 
d="M266 78c-25.333 27.333 -43 63.333 -53 108c-7.33301 34.667 -11 82.667 -11 144v477h-178v291h178v368h406v-368h280v-291h-280v-387c0 -58.667 9.33301 -97.667 28 -117c19.333 -19.333 57.666 -29 114.999 -29c46.667 0 82.334 4.33301 107.001 13v-283l-37 -5l-65 -6
c-59.333 -4.66699 -108 -7 -146 -7c-172 0 -286.667 30.667 -344 92z" />
    <glyph glyph-name="u" unicode="u" horiz-adv-x="1296" 
d="M193 48c-62 54 -93 136.332 -93 246.999v803h406v-680c0 -79.333 30.667 -119 92 -119c57.333 0 118 26 182 78v721h405v-1098h-405v168c-30.667 -49.333 -72 -90.666 -124 -123.999c-70 -44.667 -150.333 -67 -241 -67c-94 0 -168 23.667 -222 71z" />
    <glyph glyph-name="v" unicode="v" horiz-adv-x="1130" 
d="M-26 1098h416l192 -654h4l195 654h377l-387 -1098h-410z" />
    <glyph glyph-name="w" unicode="w" horiz-adv-x="1609" 
d="M-16 1098h405.999l71 -334c22.667 -96.667 42.667 -203.334 60 -320.001h4c10 64 20.667 122.667 32 176l109 478h307l80 -328c23.333 -87.333 46.666 -196 69.999 -326h4c10.667 64.667 21.334 122.334 32.001 173.001c8.66699 42 20.334 91.667 35.001 149l78 332h354
l-313 -1098h-375l-133 575h-4l-129 -575h-375z" />
    <glyph glyph-name="x" unicode="x" horiz-adv-x="1153" 
d="M375 565l-342 533h422l151 -254l135 254h406l-348 -535l362 -563h-422l-168 281l-159 -281h-406z" />
    <glyph glyph-name="y" unicode="y" horiz-adv-x="1175" 
d="M105 -404c-26.667 4 -52.3311 8.66699 -76.998 14l-56 15l84 312l34 -9c8 -2 16 -3.66699 24 -5l28 -6c49.333 -8.66699 97.666 -13 144.999 -13c54 0 89 21 105 63l10 27l-418 1104h416l203 -627h4l203 627h391l-459 -1209c-38.667 -101.333 -87 -176.333 -145 -225
c-66.667 -56 -153.334 -84 -260.001 -84c-86 0 -163.333 5.33301 -232 16z" />
    <glyph glyph-name="z" unicode="z" horiz-adv-x="1105" 
d="M49 203l475 604h-442v291h944v-211l-477 -604h522v-283h-1022v203z" />
    <glyph glyph-name="braceleft" unicode="{" horiz-adv-x="954" 
d="M571 -410c-92 0 -165.667 30.002 -221 90.002c-53.333 58 -80 132.667 -80 224v262c0 96 -18.667 162 -56 198c-32.667 32 -89.667 48 -171 48v282c81.333 0 138.333 16 171 48c37.333 36 56 102 56 198v262c0 91.333 26.667 166 80 224c55.333 60 129 90 221 90h357
v-279h-90c-106.667 0 -160 -54.667 -160 -164v-192c0 -178.667 -58 -287.334 -174 -326.001v-4c116 -38.667 174 -147.334 174 -326.001v-192c0 -109.333 53.333 -164 160 -164h90v-279h-357z" />
    <glyph glyph-name="bar" unicode="|" horiz-adv-x="864" 
d="M231 1516h401v-1926h-401v1926z" />
    <glyph glyph-name="braceright" unicode="}" horiz-adv-x="954" 
d="M26 -131h90c106.667 0 160 54.667 160 164v233c0 93.333 15 161.333 45 204c24 33.333 67 60.333 129 81v4c-62 20.667 -105 47.667 -129 81c-30 42.667 -45 110.667 -45 204v233c0 109.333 -53.333 164 -160 164h-90v279h397c173.333 0 260 -91 260 -273v-303
c0 -96 18.667 -162 56 -198c33.333 -32 90.666 -48 171.999 -48v-282c-81.333 0 -138.666 -16 -171.999 -48c-37.333 -36 -56 -102 -56 -198v-303c0 -182 -86.667 -273 -260 -273h-397v279z" />
    <glyph glyph-name="asciitilde" unicode="~" horiz-adv-x="1085" 
d="M600 745c-22 8.66699 -45.668 21.667 -71.001 39l-16 11l-14 10c-11.333 8 -20.666 14.333 -27.999 19c-21.333 12 -42 18 -62 18c-56 0 -84 -37 -84 -111h-213c0 244.667 90 367 270 367c37.333 0 71.333 -6 102 -18c22 -8.66699 46 -22 72 -40
c3.33301 -2.66699 8.33301 -6 15 -10l14 -11c11.333 -7.33301 21 -13.333 29 -18c20.667 -12 41 -18 61 -18c56 0 84 37 84 111h213c0 -244.667 -90 -367 -270 -367c-37.333 0 -71.333 6 -102 18z" />
    <glyph glyph-name="exclamdown" unicode="&#xa1;" horiz-adv-x="768" 
d="M161 1516h424v-349h-424v349zM216 1010h314l98 -1010h-510z" />
    <glyph glyph-name="cent" unicode="&#xa2;" horiz-adv-x="1169" 
d="M342 35c-88 41.333 -156.665 101.335 -205.998 180.002c-56.667 90 -85 200.667 -85 332c0 102.667 18.667 193.334 56 272.001c33.333 70 80.333 128.667 141 176c54 42 116.333 73.667 187 95c62 18.667 125.667 28 191 28h22c8 0 15 -0.666992 21 -2l58 191h196
l-69 -224c74 -26.667 135.333 -69.334 184 -128.001c40.667 -48 74 -109.667 100 -185l-309 -106c-12.667 51.333 -37 92.666 -73 123.999l-164 -536c3.33301 -0.666992 7.66602 -1.33398 12.999 -2.00098h13c41.333 0 80.666 12.667 117.999 38
c48 33.333 81.667 82 101 146l306 -112c-17.333 -44.667 -39 -85.667 -65 -123c-30 -43.333 -65 -80.333 -105 -111c-96 -74 -216.333 -111 -361 -111c-29.333 0 -59.333 2.33301 -90 7l-76 -248h-196zM594.002 831.002c-114.667 -15.333 -172 -110.667 -172 -286
c0 -79.333 8.66699 -141 26 -185z" />
    <glyph glyph-name="sterling" unicode="&#xa3;" horiz-adv-x="1478" 
d="M186 659v204.997h164c-22.667 41.333 -39.667 79.666 -51 114.999c-14 43.333 -21 86.333 -21 129c0 123.333 44.667 226.333 134 309c92 84.667 210 127 354 127c92 0 171.667 -12 239 -36c60.667 -21.333 112.334 -52.666 155.001 -93.999
c36 -36 66.667 -80.333 92 -133c19.333 -40.667 37.333 -91.667 54 -153l-348 -79c-14 58.667 -30.667 101.334 -50 128.001c-28.667 38.667 -69.334 58 -122.001 58c-79.333 0 -119 -41.667 -119 -125c0 -39.333 10 -81 30 -125c8 -17.333 18.333 -37.333 31 -60l36 -61
h368v-205h-270c19.333 -59.333 29 -124.666 29 -195.999c0 -62.667 -16.667 -127 -50 -193c36.667 -13.333 71 -20 103 -20c51.333 0 88.333 11.667 111 35c28 28.667 43 81 45 157h342c-4 -65.333 -11.333 -121.333 -22 -168c-13.333 -60 -33.666 -110.667 -60.999 -152
c-31.333 -47.333 -73 -83.666 -125 -108.999c-57.333 -28 -128 -42 -212 -42c-74 0 -143 10 -207 30c-54 16.667 -105.333 41 -154 73c-101.333 -68.667 -212 -103 -332 -103c-90.667 0 -164.334 19.667 -221.001 59c-65.333 45.333 -98 111 -98 197
c0 90.667 33.333 162 100 214c58.667 46 129.667 69 213 69c71.333 0 146 -21.333 224 -64c-4 66 -27.333 137 -70 213h-291zM332 306.997c-50.667 0 -76 -23 -76 -69c0 -49.333 26.667 -74 80 -74c56 0 103 21 141 63c-62.667 53.333 -111 80 -145 80z" />
    <glyph glyph-name="yen" unicode="&#xa5;" 
d="M227 227v285l51 -4l10 98l-268 -61v420l268 -62l-10 103l-51 -5v285l22 -2l-2 21h285l-4 -50l100 -10l-61 271h420l-62 -271l101 10l-5 50h285l-2 -21l23 2v-285l-52 5l-10 -103l271 62v-420l-271 61l10 -98l52 4v-285l-23 2l2 -24h-285l7 53l-103 10l62 -268h-420
l61 268l-102 -10l6 -53h-285l2 24zM925 1040v-137h135l-12 125zM628 1040l-123 -12l-12 -125h135v137zM925 473l123 12l12 121h-135v-133zM493 606l12 -121l123 -12v133h-135z" />
    <glyph glyph-name="brokenbar" unicode="&#xa6;" 
d="M227 227v285l51 -4l10 98l-268 -61v420l268 -62l-10 103l-51 -5v285l22 -2l-2 21h285l-4 -50l100 -10l-61 271h420l-62 -271l101 10l-5 50h285l-2 -21l23 2v-285l-52 5l-10 -103l271 62v-420l-271 61l10 -98l52 4v-285l-23 2l2 -24h-285l7 53l-103 10l62 -268h-420
l61 268l-102 -10l6 -53h-285l2 24zM925 1040v-137h135l-12 125zM628 1040l-123 -12l-12 -125h135v137zM925 473l123 12l12 121h-135v-133zM493 606l12 -121l123 -12v133h-135z" />
    <glyph glyph-name="section" unicode="&#xa7;" horiz-adv-x="1236" 
d="M399 -383c-54 16 -101 38.6621 -141 67.9951c-34 26 -63 57 -87 93c-18.667 28.667 -35 61.667 -49 99l281 133c20.667 -47.333 45.334 -84.666 74.001 -111.999c34.667 -32 73.334 -48 116.001 -48c72.667 0 109 35.667 109 107c0 37.333 -25.333 74.333 -76 111
c-20.667 14.667 -47.667 31.334 -81 50.001l-149 80c-20.667 12 -39.334 23.333 -56.001 34c-44 27.333 -81 55.666 -111 84.999c-38 36.667 -67.333 75.334 -88 116.001c-23.333 47.333 -35 98.333 -35 153c0 66 17.667 128.333 53 187
c29.333 48.667 67.666 90 114.999 124c-74 71.333 -111 158 -111 260c0 112 40 203.667 120 275c84 74.667 197 112 339 112c80 0 151.333 -8.66699 214 -26c55.333 -16 103.666 -39 144.999 -69c35.333 -25.333 65.333 -56 90 -92
c20.667 -29.333 37.667 -62.666 51 -99.999l-281 -133c-45.333 106.667 -112 160 -200 160c-79.333 0 -119 -35.333 -119 -106c0 -37.333 27 -74.666 81 -111.999c20.667 -14 49 -30.667 85 -50l98 -51c44 -23.333 80.333 -43.666 109 -60.999
c43.333 -28 80.333 -56.667 111 -86c38 -36 67 -74.667 87 -116c23.333 -48 35 -99 35 -153c0 -66.667 -18 -129.667 -54 -189c-30 -48.667 -68.667 -90 -116 -124c68 -70.667 102 -157 102 -259c0 -112.667 -38 -204 -114 -274
c-81.333 -75.333 -192.666 -113 -333.999 -113c-80 0 -151 9 -213 27zM806 460.995c0 47.333 -14 85.666 -42 114.999c-28.667 30 -91 71.333 -187 124l-29 17l-84 47c-24 -31.333 -36 -61.333 -36 -90c0 -47.333 14 -85.666 42 -114.999c28.667 -30 91 -71.667 187 -125
l113 -63c24 31.333 36 61.333 36 90z" />
    <glyph glyph-name="dieresis" unicode="&#xa8;" horiz-adv-x="1105" 
d="M616 1556h328v-358h-328v358zM151 1556h328v-358h-328v358z" />
    <glyph glyph-name="copyright" unicode="&#xa9;" horiz-adv-x="1777" 
d="M326 195c-149.333 149.333 -224 335.668 -224 559.001s76 410.666 228 561.999c152 152 339.667 228 563 228c222.667 0 408.667 -74.667 558 -224c149.333 -148.667 224 -334.667 224 -558s-76 -411 -228 -563s-339.667 -228 -563 -228s-409.333 74.667 -558 224z
M1323 312.002c112 115.333 168 262.668 168 442.001s-57 327.666 -171 444.999c-114.667 118 -260 177 -436 177c-174.667 0 -318 -57.667 -430 -173c-112 -114.667 -168 -261.667 -168 -441c0 -180 57 -328.667 171 -446c114.667 -118 260 -177 436 -177
c174.667 0 318 57.667 430 173zM616 429.004c-68 77.333 -102.002 187 -102.002 329c0 294.667 124.667 442 374 442c196.667 0 311.334 -90 344.001 -270l-219 -58c-21.333 80.667 -61.333 121 -120 121c-89.333 0 -134 -78.333 -134 -235c0 -153.333 43.667 -230 131 -230
c67.333 0 109 46.667 125 140l226 -62c-26 -92.667 -64 -161.667 -114 -207c-59.333 -54.667 -141.666 -82 -246.999 -82c-111.333 0 -199.333 37.333 -264 112z" />
    <glyph glyph-name="ordfeminine" unicode="&#xaa;" horiz-adv-x="942" 
d="M139 781c-45.333 37.333 -68 88.333 -68 153c0 191.333 157.667 294.333 473 309v10c0 42.667 -28 64 -84 64c-80 0 -158.333 -27.333 -235 -82l-117 160c42 38 91 68 147 90c72.667 28.667 156 43 250 43c212 0 318 -107.333 318 -322v-274
c0 -92 6.66699 -154.333 20 -187h-280c-12.667 39.333 -19 77 -19 113c-65.333 -84.667 -150 -127 -254 -127c-60 0 -110.333 16.667 -151 50zM495 956c10 4.66699 19.667 10 29 16c7.33301 5.33301 14 11 20 17v109c-131.333 -4 -197 -38.333 -197 -103
c0 -36.667 21.333 -55 64 -55c31.333 0 59.333 5.33301 84 16z" />
    <glyph glyph-name="guillemotleft" unicode="&#xab;" horiz-adv-x="1390" 
d="M616 549l356 549h381l-338 -549l338 -549h-381zM30 549l356 549h381l-338 -549l338 -549h-381z" />
    <glyph glyph-name="logicalnot" unicode="&#xac;" 
d="M227 227v285l51 -4l10 98l-268 -61v420l268 -62l-10 103l-51 -5v285l22 -2l-2 21h285l-4 -50l100 -10l-61 271h420l-62 -271l101 10l-5 50h285l-2 -21l23 2v-285l-52 5l-10 -103l271 62v-420l-271 61l10 -98l52 4v-285l-23 2l2 -24h-285l7 53l-103 10l62 -268h-420
l61 268l-102 -10l6 -53h-285l2 24zM925 1040v-137h135l-12 125zM628 1040l-123 -12l-12 -125h135v137zM925 473l123 12l12 121h-135v-133zM493 606l12 -121l123 -12v133h-135z" />
    <glyph glyph-name="registered" unicode="&#xae;" horiz-adv-x="1777" 
d="M326 195c-149.333 149.333 -224 335.668 -224 559.001s76 410.666 228 561.999c152 152 339.667 228 563 228c222.667 0 408.667 -74.667 558 -224c149.333 -148.667 224 -334.667 224 -558s-76 -411 -228 -563s-339.667 -228 -563 -228s-409.333 74.667 -558 224z
M1323 312.002c112 115.333 168 262.668 168 442.001s-57 327.666 -171 444.999c-114.667 118 -260 177 -436 177c-174.667 0 -318 -57.667 -430 -173c-112 -114.667 -168 -261.667 -168 -441c0 -180 57 -328.667 171 -446c114.667 -118 260 -177 436 -177
c174.667 0 318 57.667 430 173zM567 1200h346c229.333 0 344 -98.333 344 -295c0 -117.333 -47 -201.333 -141 -252l149 -303h-258l-129 271h-67v-271h-244v850zM899 795.004c78.667 0 118 32 118 96c0 62.667 -39.333 94 -118 94h-88v-190h88z" />
    <glyph glyph-name="overscore" unicode="&#xaf;" horiz-adv-x="1024" 
d="M151 1513h721v-278h-721v278z" />
    <glyph glyph-name="degree" unicode="&#xb0;" horiz-adv-x="860" 
d="M179 947c-66.667 64.667 -99.999 147 -99.999 247s33.333 182.667 100 248c66 65.333 149.333 98 250 98c101.333 0 185 -32 251 -96s99 -146 99 -246s-33 -183 -99 -249c-66.667 -66 -150.334 -99 -251.001 -99s-184 32.333 -250 97zM575.001 1196
c0 108 -48.667 162 -146 162c-96.667 0 -145 -54 -145 -162c0 -109.333 48.333 -164 145 -164c97.333 0 146 54.667 146 164z" />
    <glyph glyph-name="plusminus" unicode="&#xb1;" 
d="M227 227v285l51 -4l10 98l-268 -61v420l268 -62l-10 103l-51 -5v285l22 -2l-2 21h285l-4 -50l100 -10l-61 271h420l-62 -271l101 10l-5 50h285l-2 -21l23 2v-285l-52 5l-10 -103l271 62v-420l-271 61l10 -98l52 4v-285l-23 2l2 -24h-285l7 53l-103 10l62 -268h-420
l61 268l-102 -10l6 -53h-285l2 24zM925 1040v-137h135l-12 125zM628 1040l-123 -12l-12 -125h135v137zM925 473l123 12l12 121h-135v-133zM493 606l12 -121l123 -12v133h-135z" />
    <glyph glyph-name="twosuperior" unicode="&#xb2;" 
d="M227 227v285l51 -4l10 98l-268 -61v420l268 -62l-10 103l-51 -5v285l22 -2l-2 21h285l-4 -50l100 -10l-61 271h420l-62 -271l101 10l-5 50h285l-2 -21l23 2v-285l-52 5l-10 -103l271 62v-420l-271 61l10 -98l52 4v-285l-23 2l2 -24h-285l7 53l-103 10l62 -268h-420
l61 268l-102 -10l6 -53h-285l2 24zM925 1040v-137h135l-12 125zM628 1040l-123 -12l-12 -125h135v137zM925 473l123 12l12 121h-135v-133zM493 606l12 -121l123 -12v133h-135z" />
    <glyph glyph-name="threesuperior" unicode="&#xb3;" 
d="M227 227v285l51 -4l10 98l-268 -61v420l268 -62l-10 103l-51 -5v285l22 -2l-2 21h285l-4 -50l100 -10l-61 271h420l-62 -271l101 10l-5 50h285l-2 -21l23 2v-285l-52 5l-10 -103l271 62v-420l-271 61l10 -98l52 4v-285l-23 2l2 -24h-285l7 53l-103 10l62 -268h-420
l61 268l-102 -10l6 -53h-285l2 24zM925 1040v-137h135l-12 125zM628 1040l-123 -12l-12 -125h135v137zM925 473l123 12l12 121h-135v-133zM493 606l12 -121l123 -12v133h-135z" />
    <glyph glyph-name="acute" unicode="&#xb4;" horiz-adv-x="1024" 
d="M474 1583h390l-312 -371h-268z" />
    <glyph glyph-name="mu1" unicode="&#xb5;" horiz-adv-x="1306" 
d="M110 1098h406v-670c0 -79.333 30.667 -119 92 -119c57.333 0 118 26 182 78v711h405v-1098h-405v168c-20 -32 -45 -61 -75 -87c-38.667 -33.333 -82.667 -59 -132 -77c-20.667 -8 -43 -14 -67 -18v-396h-406v1508z" />
    <glyph glyph-name="paragraph" unicode="&#xb6;" horiz-adv-x="1320" 
d="M571 621c-332 6 -498 154 -498 444c0 129.333 40.333 235.333 121 318c85.333 88.667 201.333 133 348 133h713v-1926h-262v1629h-160v-1629h-262v1031z" />
    <glyph glyph-name="periodcentered" unicode="&#xb7;" horiz-adv-x="608" 
d="M81 889h444v-369h-444v369z" />
    <glyph glyph-name="cedilla" unicode="&#xb8;" horiz-adv-x="1024" 
d="M225 -342l68.001 113c61.333 -41.333 135.666 -62 222.999 -62c54.667 0 82 19.333 82 58c0 32.667 -19.333 49 -58 49c-25.333 0 -51 -10.333 -77 -31l-93 45l54 170h155l-20 -86c32 20.667 79 31 141 31c100 0 150 -48.667 150 -146c0 -64 -29.333 -116.667 -88 -158
c-56.667 -40.667 -127.667 -61 -213 -61c-137.333 0 -245.333 26 -324 78z" />
    <glyph glyph-name="onesuperior" unicode="&#xb9;" 
d="M227 227v285l51 -4l10 98l-268 -61v420l268 -62l-10 103l-51 -5v285l22 -2l-2 21h285l-4 -50l100 -10l-61 271h420l-62 -271l101 10l-5 50h285l-2 -21l23 2v-285l-52 5l-10 -103l271 62v-420l-271 61l10 -98l52 4v-285l-23 2l2 -24h-285l7 53l-103 10l62 -268h-420
l61 268l-102 -10l6 -53h-285l2 24zM925 1040v-137h135l-12 125zM628 1040l-123 -12l-12 -125h135v137zM925 473l123 12l12 121h-135v-133zM493 606l12 -121l123 -12v133h-135z" />
    <glyph glyph-name="ordmasculine" unicode="&#xba;" horiz-adv-x="985" 
d="M350 749c-51.333 14 -95.666 35.333 -132.999 64c-90.667 68.667 -136 174.334 -136 317.001c0 145.333 45.333 252 136 320c37.333 28 81.666 48.667 132.999 62c44 12 91.667 18 143 18c50.667 0 97.667 -6 141 -18c51.333 -13.333 95.666 -34 132.999 -62
c90 -68 135 -174.667 135 -320c0 -142.667 -45 -248.334 -135 -317.001c-37.333 -28.667 -81.666 -50 -132.999 -64c-44 -12 -91 -18 -141 -18c-51.333 0 -99 6 -143 18zM618 1128c0 132.667 -41.668 199 -125.001 199c-84.667 0 -127 -66.333 -127 -199
c0 -61.333 8.66699 -108.333 26 -141c20.667 -39.333 54.334 -59 101.001 -59c83.333 0 125 66.667 125 200z" />
    <glyph glyph-name="guillemotright" unicode="&#xbb;" horiz-adv-x="1390" 
d="M960 549l-338 549h381l356 -549l-356 -549h-381zM374 549l-338 549h381l356 -549l-356 -549h-381z" />
    <glyph glyph-name="onequarter" unicode="&#xbc;" 
d="M227 227v285l51 -4l10 98l-268 -61v420l268 -62l-10 103l-51 -5v285l22 -2l-2 21h285l-4 -50l100 -10l-61 271h420l-62 -271l101 10l-5 50h285l-2 -21l23 2v-285l-52 5l-10 -103l271 62v-420l-271 61l10 -98l52 4v-285l-23 2l2 -24h-285l7 53l-103 10l62 -268h-420
l61 268l-102 -10l6 -53h-285l2 24zM925 1040v-137h135l-12 125zM628 1040l-123 -12l-12 -125h135v137zM925 473l123 12l12 121h-135v-133zM493 606l12 -121l123 -12v133h-135z" />
    <glyph glyph-name="onehalf" unicode="&#xbd;" 
d="M227 227v285l51 -4l10 98l-268 -61v420l268 -62l-10 103l-51 -5v285l22 -2l-2 21h285l-4 -50l100 -10l-61 271h420l-62 -271l101 10l-5 50h285l-2 -21l23 2v-285l-52 5l-10 -103l271 62v-420l-271 61l10 -98l52 4v-285l-23 2l2 -24h-285l7 53l-103 10l62 -268h-420
l61 268l-102 -10l6 -53h-285l2 24zM925 1040v-137h135l-12 125zM628 1040l-123 -12l-12 -125h135v137zM925 473l123 12l12 121h-135v-133zM493 606l12 -121l123 -12v133h-135z" />
    <glyph glyph-name="threequarters" unicode="&#xbe;" 
d="M227 227v285l51 -4l10 98l-268 -61v420l268 -62l-10 103l-51 -5v285l22 -2l-2 21h285l-4 -50l100 -10l-61 271h420l-62 -271l101 10l-5 50h285l-2 -21l23 2v-285l-52 5l-10 -103l271 62v-420l-271 61l10 -98l52 4v-285l-23 2l2 -24h-285l7 53l-103 10l62 -268h-420
l61 268l-102 -10l6 -53h-285l2 24zM925 1040v-137h135l-12 125zM628 1040l-123 -12l-12 -125h135v137zM925 473l123 12l12 121h-135v-133zM493 606l12 -121l123 -12v133h-135z" />
    <glyph glyph-name="questiondown" unicode="&#xbf;" horiz-adv-x="1263" 
d="M454 1516h424v-349h-424v349zM206 78c-83.333 67.333 -124.999 157.333 -124.999 270c0 87.333 22.667 160.333 68 219c36.667 47.333 91.667 89 165 125c91.333 44.667 146.333 86 165 124c10 20 16 46.667 18 80c1.33301 14 2 32 2 54v66h334
c3.33301 -28 5.66602 -54.667 6.99902 -80l1 -74c0 -73.333 -23.667 -138 -71 -194c-37.333 -44.667 -90.333 -84.334 -159 -119.001c-88.667 -45.333 -133 -100.666 -133 -165.999c0 -62.667 48.667 -94 146 -94c56.667 0 119.667 17.333 189 52
c64.667 32.667 117 70.667 157 114l237 -230c-70.667 -74.667 -155.667 -134 -255 -178c-114 -50.667 -238.333 -76 -373 -76c-160 0 -284.333 35.667 -373 107z" />
    <glyph glyph-name="Agrave" unicode="&#xc0;" horiz-adv-x="1495" 
d="M557 1522h381l536 -1522h-414l-92 283h-477l-98 -283h-373zM876 573l-139 420h-4l-146 -420h289zM333 1972h389l191 -370h-268z" />
    <glyph glyph-name="Aacute" unicode="&#xc1;" horiz-adv-x="1495" 
d="M557 1522h381l536 -1522h-414l-92 283h-477l-98 -283h-373zM876 573l-139 420h-4l-146 -420h289zM772 1972h389l-312 -370h-268z" />
    <glyph glyph-name="Acircumflex" unicode="&#xc2;" horiz-adv-x="1495" 
d="M557 1522h381l536 -1522h-414l-92 283h-477l-98 -283h-373zM876 573l-139 420h-4l-146 -420h289zM614 1972h266l264 -360h-227l-172 131l-168 -131h-227z" />
    <glyph glyph-name="Atilde" unicode="&#xc3;" horiz-adv-x="1495" 
d="M557 1522h381l536 -1522h-414l-92 283h-477l-98 -283h-373zM876 573l-139 420h-4l-146 -420h289zM805 1595c-22 8.66699 -46.001 21.666 -72.001 38.999c-3.33301 2.66699 -8.33301 6.33398 -15 11.001l-14 10c-11.333 8 -20.666 14.333 -27.999 19
c-21.333 12 -42 18 -62 18c-56 0 -84 -37 -84 -111h-213c0 244.667 90 367 270 367c37.333 0 71.333 -6 102 -18c22 -8.66699 46 -22 72 -40c3.33301 -2.66699 8.33301 -6 15 -10l14 -11c11.333 -7.33301 21 -13.333 29 -18c20.667 -12 41 -18 61 -18c56 0 84 37 84 111h213
c0 -244.667 -90 -367 -270 -367c-37.333 0 -71.333 6 -102 18z" />
    <glyph glyph-name="Adieresis" unicode="&#xc4;" horiz-adv-x="1495" 
d="M557 1522h381l536 -1522h-414l-92 283h-477l-98 -283h-373zM876 573l-139 420h-4l-146 -420h289zM811 1946h327v-359h-327v359zM346 1946h327v-359h-327v359z" />
    <glyph glyph-name="Aring" unicode="&#xc5;" horiz-adv-x="1495" 
d="M1474 0l-414 0.000976562l-92 283h-477l-98 -283h-373l524 1487c-24.667 40 -37 83.667 -37 131c0 67.333 23 123.666 69 168.999c45.333 45.333 102.333 68 171 68s125.667 -22.667 171 -68c46 -45.333 69 -101.666 69 -168.999c0 -50.667 -12.333 -94.334 -37 -131.001
zM835 1618c0 60 -29.333 90 -88 90s-88 -30 -88 -90c0 -61.333 29.333 -92 88 -92s88 30.667 88 92zM876 573.001l-139 420h-4l-146 -420h289z" />
    <glyph glyph-name="AE" unicode="&#xc6;" horiz-adv-x="2265" 
d="M882 1516h1280v-340h-672v-246h480v-320h-480v-280h707v-330h-1112v406h-428l-225 -406h-412zM1085 702v467h-2l-260 -467h262z" />
    <glyph glyph-name="Ccedilla" unicode="&#xc7;" horiz-adv-x="1517" 
d="M470 -342l68.0039 113c61.333 -41.333 135.666 -62 222.999 -62c54.667 0 82 19.333 82 58c0 32.667 -19 49 -57 49c-26 0 -52 -10.333 -78 -31l-92 45l47 147c-181.333 23.333 -323 96.333 -425 219c-112.667 135.333 -169 322.666 -169 561.999c0 134 19 253 57 357
c35.333 96.667 86.666 178 153.999 244c125.333 123.333 292 185 500 185c192.667 0 343 -46.667 451 -140c91.333 -78.667 154.666 -193 189.999 -343l-387 -115c-24 84.667 -52.333 146.334 -85 185.001c-42 50 -99 75 -171 75c-199.333 0 -299 -149.333 -299 -448
c0 -142.667 25 -254 75 -334c52.667 -83.333 128.667 -125 228 -125c76 0 135.333 24.667 178 74c38 43.333 69.333 115 94 215l387 -86c-38.667 -162 -103.334 -285.667 -194.001 -371c-104 -100 -246.667 -153.333 -428 -160l-15 -57c32 20.667 79.333 31 142 31
c99.333 0 149 -48.667 149 -146c0 -64 -29.333 -116.667 -88 -158c-56.667 -40.667 -127.667 -61 -213 -61c-136.667 0 -244.667 26 -324 78z" />
    <glyph glyph-name="Egrave" unicode="&#xc8;" horiz-adv-x="1320" 
d="M141 1516h1081v-340h-671v-246h479v-320h-479v-280h706v-330h-1116v1516zM307 1972h389l190 -370h-268z" />
    <glyph glyph-name="Eacute" unicode="&#xc9;" horiz-adv-x="1320" 
d="M141 1516h1081v-340h-671v-246h479v-320h-479v-280h706v-330h-1116v1516zM643 1972h389l-311 -370h-269z" />
    <glyph glyph-name="Ecircumflex" unicode="&#xca;" horiz-adv-x="1320" 
d="M141 1516h1081v-340h-671v-246h479v-320h-479v-280h706v-330h-1116v1516zM547 1972h266l264 -360h-227l-172 131l-168 -131h-228z" />
    <glyph glyph-name="Edieresis" unicode="&#xcb;" horiz-adv-x="1320" 
d="M141 1516h1081v-340h-671v-246h479v-320h-479v-280h706v-330h-1116v1516zM751 1946h328v-359h-328v359zM286 1946h328v-359h-328v359z" />
    <glyph glyph-name="Igrave" unicode="&#xcc;" horiz-adv-x="716" 
d="M154 1516h409v-1516h-409v1516zM-55 1972h389l191 -370h-269z" />
    <glyph glyph-name="Iacute" unicode="&#xcd;" horiz-adv-x="716" 
d="M153 1516h410v-1516h-410v1516zM382 1972h389l-311 -370h-268z" />
    <glyph glyph-name="Icircumflex" unicode="&#xce;" horiz-adv-x="716" 
d="M155 1516h409v-1516h-409v1516zM226 1972h266l265 -360h-228l-172 131l-168 -131h-227z" />
    <glyph glyph-name="Idieresis" unicode="&#xcf;" horiz-adv-x="716" 
d="M154 1516h409v-1516h-409v1516zM422 1946h328v-359h-328v359zM-43 1946h328v-359h-328v359z" />
    <glyph glyph-name="Ntilde" unicode="&#xd1;" horiz-adv-x="1619" 
d="M141 1516h403l555 -850h5v850h374v-1516h-379l-579 848h-4v-848h-375v1516zM871 1595c-22 8.66699 -45.999 21.666 -71.999 38.999c-4 2.66699 -9 6.33398 -15 11.001l-14 10c-11.333 8 -21 14.333 -29 19c-20.667 12 -41 18 -61 18c-56 0 -84 -37 -84 -111h-213
c0 244.667 90 367 270 367c36.667 0 70.667 -6 102 -18c22 -8.66699 45.667 -22 71 -40l15 -10l15 -11l28 -18c21.333 -12 42 -18 62 -18c56 0 84 37 84 111h213c0 -244.667 -90.333 -367 -271 -367c-36.667 0 -70.334 6 -101.001 18z" />
    <glyph glyph-name="Ograve" unicode="&#xd2;" horiz-adv-x="1628" 
d="M304 156c-74 67.333 -130.667 149 -170 245c-43.333 104.667 -65 223.667 -65 357s21.667 252.333 65 357c39.333 96 96 177.333 170 244c136.667 123.333 306.667 185 510 185s373 -61.667 509 -185c73.333 -66.667 130 -148 170 -244
c43.333 -104.667 65 -223.667 65 -357s-21.667 -252.333 -65 -357c-40 -96 -96.667 -177.667 -170 -245c-136 -123.333 -305.667 -185 -509 -185s-373.333 61.667 -510 185zM1061 424c58 81.333 87.001 192.666 87.001 333.999c0 298.667 -111.333 448 -334 448
c-223.333 0 -335 -149.333 -335 -448c0 -141.333 29 -252.666 87 -333.999c59.333 -83.333 142 -125 248 -125c105.333 0 187.666 41.667 246.999 125zM440.001 1972h389l190 -370h-268z" />
    <glyph glyph-name="Oacute" unicode="&#xd3;" horiz-adv-x="1628" 
d="M304 156c-74 67.333 -130.667 149 -170 245c-43.333 104.667 -65 223.667 -65 357s21.667 252.333 65 357c39.333 96 96 177.333 170 244c136.667 123.333 306.667 185 510 185s373 -61.667 509 -185c73.333 -66.667 130 -148 170 -244
c43.333 -104.667 65 -223.667 65 -357s-21.667 -252.333 -65 -357c-40 -96 -96.667 -177.667 -170 -245c-136 -123.333 -305.667 -185 -509 -185s-373.333 61.667 -510 185zM1061 424c58 81.333 87.001 192.666 87.001 333.999c0 298.667 -111.333 448 -334 448
c-223.333 0 -335 -149.333 -335 -448c0 -141.333 29 -252.666 87 -333.999c59.333 -83.333 142 -125 248 -125c105.333 0 187.666 41.667 246.999 125zM796.001 1972h389l-311 -370h-268z" />
    <glyph glyph-name="Ocircumflex" unicode="&#xd4;" horiz-adv-x="1628" 
d="M304 156c-74 67.333 -130.667 149 -170 245c-43.333 104.667 -65 223.667 -65 357s21.667 252.333 65 357c39.333 96 96 177.333 170 244c136.667 123.333 306.667 185 510 185s373 -61.667 509 -185c73.333 -66.667 130 -148 170 -244
c43.333 -104.667 65 -223.667 65 -357s-21.667 -252.333 -65 -357c-40 -96 -96.667 -177.667 -170 -245c-136 -123.333 -305.667 -185 -509 -185s-373.333 61.667 -510 185zM1061 424c58 81.333 87.001 192.666 87.001 333.999c0 298.667 -111.333 448 -334 448
c-223.333 0 -335 -149.333 -335 -448c0 -141.333 29 -252.666 87 -333.999c59.333 -83.333 142 -125 248 -125c105.333 0 187.666 41.667 246.999 125zM679.001 1972h267l264 -360h-228l-172 131l-168 -131h-227z" />
    <glyph glyph-name="Otilde" unicode="&#xd5;" horiz-adv-x="1628" 
d="M304 156c-74 67.333 -130.667 149 -170 245c-43.333 104.667 -65 223.667 -65 357s21.667 252.333 65 357c39.333 96 96 177.333 170 244c136.667 123.333 306.667 185 510 185s373 -61.667 509 -185c73.333 -66.667 130 -148 170 -244
c43.333 -104.667 65 -223.667 65 -357s-21.667 -252.333 -65 -357c-40 -96 -96.667 -177.667 -170 -245c-136 -123.333 -305.667 -185 -509 -185s-373.333 61.667 -510 185zM1061 424c58 81.333 87.001 192.666 87.001 333.999c0 298.667 -111.333 448 -334 448
c-223.333 0 -335 -149.333 -335 -448c0 -141.333 29 -252.666 87 -333.999c59.333 -83.333 142 -125 248 -125c105.333 0 187.666 41.667 246.999 125zM870.001 1595c-22 8.66699 -45.667 21.666 -71 38.999c-4 2.66699 -9 6.33398 -15 11.001l-15 10
c-10.667 8 -20 14.333 -28 19c-21.333 12 -42 18 -62 18c-56 0 -84 -37 -84 -111h-213c0 244.667 90.333 367 271 367c36.667 0 70.667 -6 102 -18c22 -8.66699 45.667 -22 71 -40l15 -10l15 -11c10.667 -7.33301 20 -13.333 28 -18c21.333 -12 42 -18 62 -18
c56 0 84 37 84 111h213c0 -244.667 -90.333 -367 -271 -367c-36.667 0 -70.667 6 -102 18z" />
    <glyph glyph-name="Odieresis" unicode="&#xd6;" horiz-adv-x="1628" 
d="M304 156c-74 67.333 -130.667 149 -170 245c-43.333 104.667 -65 223.667 -65 357s21.667 252.333 65 357c39.333 96 96 177.333 170 244c136.667 123.333 306.667 185 510 185s373 -61.667 509 -185c73.333 -66.667 130 -148 170 -244
c43.333 -104.667 65 -223.667 65 -357s-21.667 -252.333 -65 -357c-40 -96 -96.667 -177.667 -170 -245c-136 -123.333 -305.667 -185 -509 -185s-373.333 61.667 -510 185zM1061 424c58 81.333 87.001 192.666 87.001 333.999c0 298.667 -111.333 448 -334 448
c-223.333 0 -335 -149.333 -335 -448c0 -141.333 29 -252.666 87 -333.999c59.333 -83.333 142 -125 248 -125c105.333 0 187.666 41.667 246.999 125zM876.001 1946h328v-359h-328v359zM411.001 1946h328v-359h-328v359z" />
    <glyph glyph-name="multiply" unicode="&#xd7;" 
d="M227 227v285l51 -4l10 98l-268 -61v420l268 -62l-10 103l-51 -5v285l22 -2l-2 21h285l-4 -50l100 -10l-61 271h420l-62 -271l101 10l-5 50h285l-2 -21l23 2v-285l-52 5l-10 -103l271 62v-420l-271 61l10 -98l52 4v-285l-23 2l2 -24h-285l7 53l-103 10l62 -268h-420
l61 268l-102 -10l6 -53h-285l2 24zM925 1040v-137h135l-12 125zM628 1040l-123 -12l-12 -125h135v137zM925 473l123 12l12 121h-135v-133zM493 606l12 -121l123 -12v133h-135z" />
    <glyph glyph-name="Oslash" unicode="&#xd8;" horiz-adv-x="1628" 
d="M1417 1251c94 -129.333 141 -293.666 141 -492.999c0 -133.333 -21.667 -252.333 -65 -357c-39.333 -96 -96 -177.667 -170 -245c-136 -123.333 -305.333 -185 -508 -185c-162.667 0 -306 41 -430 123l-148 -166l-188 154l162 180
c-94.667 129.333 -142 294.666 -142 495.999c0 133.333 21.667 252.333 65 357c40 96 97 177.333 171 244c136 123.333 306 185 510 185c161.333 0 304 -41 428 -123l147 166l189 -153zM1012 1149c-55.333 42 -121 63 -197 63c-230.667 0 -346 -151.333 -346 -454
c0 -68.667 7.33301 -133 22 -193zM614 360c56 -44.667 123.001 -67 201.001 -67c107.333 0 191.666 42 252.999 126c60.667 83.333 91 196.333 91 339c0 68.667 -7.66699 132 -23 190z" />
    <glyph glyph-name="Ugrave" unicode="&#xd9;" horiz-adv-x="1492" 
d="M110 608v908h410v-906c0 -202 77 -303 231 -303c152.667 0 229 101 229 303v906h402v-908c0 -420.667 -211.667 -631 -635 -631c-424.667 0 -637 210.333 -637 631zM372 1972h389l191 -370h-269z" />
    <glyph glyph-name="Uacute" unicode="&#xda;" horiz-adv-x="1492" 
d="M110 608v908h410v-906c0 -202 77 -303 231 -303c152.667 0 229 101 229 303v906h402v-908c0 -420.667 -211.667 -631 -635 -631c-424.667 0 -637 210.333 -637 631zM708 1972h389l-311 -370h-268z" />
    <glyph glyph-name="Ucircumflex" unicode="&#xdb;" horiz-adv-x="1492" 
d="M110 608v908h410v-906c0 -202 77 -303 231 -303c152.667 0 229 101 229 303v906h402v-908c0 -420.667 -211.667 -631 -635 -631c-424.667 0 -637 210.333 -637 631zM612 1972h266l264 -360h-227l-172 131l-168 -131h-227z" />
    <glyph glyph-name="Udieresis" unicode="&#xdc;" horiz-adv-x="1492" 
d="M110 608v908h410v-906c0 -202 77 -303 231 -303c152.667 0 229 101 229 303v906h402v-908c0 -420.667 -211.667 -631 -635 -631c-424.667 0 -637 210.333 -637 631zM808 1946h328v-359h-328v359zM343 1946h328v-359h-328v359z" />
    <glyph glyph-name="germandbls" unicode="&#xdf;" horiz-adv-x="1458" 
d="M690 29c-60 25.333 -108.001 57.3359 -144.001 96.0029l172 211c59.333 -49.333 127.666 -74 204.999 -74c91.333 0 137 46.333 137 139c0 84.667 -43.333 143.334 -130 176.001c-36 13.333 -81.333 23 -136 29c-41.333 5.33301 -94.666 8.66602 -159.999 9.99902v267
c104 0 176.333 18 217 54c33.333 29.333 50 76 50 140c0 37.333 -14 69.666 -42 96.999c-32.667 31.333 -77.667 47 -135 47c-143.333 0 -215 -78.667 -215 -236v-985h-399v977c0 186 55.667 324.333 167 415c101.333 82.667 246.333 124 435 124
c174.667 0 311.334 -35 410.001 -105c100.667 -70.667 151 -169.667 151 -297c0 -83.333 -27 -154 -81 -212c-44 -46.667 -103 -82.334 -177 -107.001c110 -10.667 203.667 -46 281 -106c91.333 -70 137 -160.333 137 -271c0 -144.667 -43 -255.334 -129 -332.001
c-81.333 -72.667 -193.333 -109 -336 -109c-105.333 0 -198 17.333 -278 52z" />
    <glyph glyph-name="agrave" unicode="&#xe0;" horiz-adv-x="1206" 
d="M132 59c-65.333 56 -97.999 134.667 -97.999 236c0 256.667 226 395.334 678 416.001v14c0 61.333 -40.333 92 -121 92c-60 0 -120.667 -11.667 -182 -35c-53.333 -20 -105.333 -48 -156 -84l-166 230c28 24.667 58 47.334 90 68.001
c37.333 23.333 77.666 43.666 120.999 60.999c104 40.667 223 61 357 61c301.333 0 452 -153.667 452 -461v-391c0 -127.333 10.333 -216 31 -266h-402c-16 51.333 -24 104.666 -24 159.999c-94 -117.333 -215.667 -176 -365 -176c-86 0 -157.667 25 -215 75zM640.001 304
c28 10.667 52 25.333 72 44v156c-188.667 -6 -283 -53.333 -283 -142c0 -51.333 30 -77 90 -77c46.667 0 87 6.33301 121 19zM229.001 1583h389l190 -371h-268z" />
    <glyph glyph-name="aacute" unicode="&#xe1;" horiz-adv-x="1206" 
d="M132 59c-65.333 56 -97.999 134.667 -97.999 236c0 256.667 226 395.334 678 416.001v14c0 61.333 -40.333 92 -121 92c-60 0 -120.667 -11.667 -182 -35c-53.333 -20 -105.333 -48 -156 -84l-166 230c28 24.667 58 47.334 90 68.001
c37.333 23.333 77.666 43.666 120.999 60.999c104 40.667 223 61 357 61c301.333 0 452 -153.667 452 -461v-391c0 -127.333 10.333 -216 31 -266h-402c-16 51.333 -24 104.666 -24 159.999c-94 -117.333 -215.667 -176 -365 -176c-86 0 -157.667 25 -215 75zM640.001 304
c28 10.667 52 25.333 72 44v156c-188.667 -6 -283 -53.333 -283 -142c0 -51.333 30 -77 90 -77c46.667 0 87 6.33301 121 19zM585.001 1583h389l-311 -371h-269z" />
    <glyph glyph-name="acircumflex" unicode="&#xe2;" horiz-adv-x="1206" 
d="M132 59c-65.333 56 -97.999 134.667 -97.999 236c0 256.667 226 395.334 678 416.001v14c0 61.333 -40.333 92 -121 92c-60 0 -120.667 -11.667 -182 -35c-53.333 -20 -105.333 -48 -156 -84l-166 230c28 24.667 58 47.334 90 68.001
c37.333 23.333 77.666 43.666 120.999 60.999c104 40.667 223 61 357 61c301.333 0 452 -153.667 452 -461v-391c0 -127.333 10.333 -216 31 -266h-402c-16 51.333 -24 104.666 -24 159.999c-94 -117.333 -215.667 -176 -365 -176c-86 0 -157.667 25 -215 75zM640.001 304
c28 10.667 52 25.333 72 44v156c-188.667 -6 -283 -53.333 -283 -142c0 -51.333 30 -77 90 -77c46.667 0 87 6.33301 121 19zM468.001 1583h266l265 -360h-228l-172 131l-168 -131h-227z" />
    <glyph glyph-name="atilde" unicode="&#xe3;" horiz-adv-x="1206" 
d="M132 59c-65.333 56 -97.999 134.667 -97.999 236c0 256.667 226 395.334 678 416.001v14c0 61.333 -40.333 92 -121 92c-60 0 -120.667 -11.667 -182 -35c-53.333 -20 -105.333 -48 -156 -84l-166 230c28 24.667 58 47.334 90 68.001
c37.333 23.333 77.666 43.666 120.999 60.999c104 40.667 223 61 357 61c301.333 0 452 -153.667 452 -461v-391c0 -127.333 10.333 -216 31 -266h-402c-16 51.333 -24 104.666 -24 159.999c-94 -117.333 -215.667 -176 -365 -176c-86 0 -157.667 25 -215 75zM640.001 304
c28 10.667 52 25.333 72 44v156c-188.667 -6 -283 -53.333 -283 -142c0 -51.333 30 -77 90 -77c46.667 0 87 6.33301 121 19zM659.001 1206c-22 8 -45.6689 21 -71.002 39c-4 2.66699 -9 6.33398 -15 11.001l-15 10c-11.333 8 -20.666 14.333 -27.999 19
c-21.333 12 -42 18 -62 18c-56 0 -84 -37 -84 -111h-213c0 244.667 90.333 367 271 367c36.667 0 70.334 -6 101.001 -18c22 -8.66699 46 -22 72 -40c4 -2.66699 9 -6.33398 15 -11.001l14 -10c11.333 -8 21 -14 29 -18c20.667 -12 41 -18 61 -18c56 0 84 36.667 84 110h213
c0 -244 -90 -366 -270 -366c-36.667 0 -70.667 6 -102 18z" />
    <glyph glyph-name="adieresis" unicode="&#xe4;" horiz-adv-x="1206" 
d="M132 59c-65.333 56 -97.999 134.667 -97.999 236c0 256.667 226 395.334 678 416.001v14c0 61.333 -40.333 92 -121 92c-60 0 -120.667 -11.667 -182 -35c-53.333 -20 -105.333 -48 -156 -84l-166 230c28 24.667 58 47.334 90 68.001
c37.333 23.333 77.666 43.666 120.999 60.999c104 40.667 223 61 357 61c301.333 0 452 -153.667 452 -461v-391c0 -127.333 10.333 -216 31 -266h-402c-16 51.333 -24 104.666 -24 159.999c-94 -117.333 -215.667 -176 -365 -176c-86 0 -157.667 25 -215 75zM640.001 304
c28 10.667 52 25.333 72 44v156c-188.667 -6 -283 -53.333 -283 -142c0 -51.333 30 -77 90 -77c46.667 0 87 6.33301 121 19zM665.001 1556h327v-358h-327v358zM200.001 1556h328v-358h-328v358z" />
    <glyph glyph-name="aring" unicode="&#xe5;" horiz-adv-x="1206" 
d="M132 59c-65.333 56 -97.999 134.667 -97.999 236c0 256.667 226 395.334 678 416.001v14c0 61.333 -40.333 92 -121 92c-60 0 -120.667 -11.667 -182 -35c-53.333 -20 -105.333 -48 -156 -84l-166 230c28 24.667 58 47.334 90 68.001
c37.333 23.333 77.666 43.666 120.999 60.999c104 40.667 223 61 357 61c301.333 0 452 -153.667 452 -461v-391c0 -127.333 10.333 -216 31 -266h-402c-16 51.333 -24 104.666 -24 159.999c-94 -117.333 -215.667 -176 -365 -176c-86 0 -157.667 25 -215 75zM640.001 304
c28 10.667 52 25.333 72 44v156c-188.667 -6 -283 -53.333 -283 -142c0 -51.333 30 -77 90 -77c46.667 0 87 6.33301 121 19zM430.001 1262c-45.333 46 -68 103.333 -68 172c0 67.333 22.667 123.666 68 168.999c46 45.333 103 68 171 68c68.667 0 126 -22.667 172 -68
c45.333 -45.333 68 -101.666 68 -168.999c0 -68.667 -22.667 -126 -68 -172c-46 -45.333 -103.333 -68 -172 -68s-125.667 22.667 -171 68zM689.001 1434c0 60 -29.333 90 -88 90s-88 -30 -88 -90c0 -62 29.333 -93 88 -93s88 31 88 93z" />
    <glyph glyph-name="ae" unicode="&#xe6;" horiz-adv-x="1837" 
d="M132 57c-65.333 56 -98.002 134.667 -98.002 236c0 258 226 397.333 678 418v14c0 61.333 -40.333 92 -121 92c-60 0 -120.667 -11.667 -182 -35c-53.333 -20 -105.333 -48 -156 -84l-166 230c28 24.667 58 47.334 90 68.001c37.333 23.333 77.666 43.666 120.999 60.999
c104 40.667 223 61 357 61c144.667 0 248.334 -33.333 311.001 -100c75.333 66.667 173 100 293 100c66.667 0 126.334 -6.66699 179.001 -20c66.667 -18 123.667 -47 171 -87c55.333 -47.333 98 -110.333 128 -189c33.333 -89.333 50 -198.666 50 -327.999v-62h-702
c9.33301 -67.333 33.333 -114.333 72 -141c32.667 -22 81.667 -33 147 -33c52 0 110 10.667 174 32c52 17.333 99 38.666 141 63.999l146 -245c-135.333 -88 -299.333 -132 -492 -132c-107.333 0 -199 16 -275 48c-87.333 35.333 -154.666 92 -201.999 170
c-64 -78.667 -135.333 -135 -214 -169c-68.667 -29.333 -147 -44 -235 -44c-86 0 -157.667 25 -215 75zM1429 664c-14 111.333 -71.333 167 -172 167c-90 0 -146 -55.667 -168 -167h340zM729.998 362l-13.999 80c-2.66699 27.333 -4 48 -4 62
c-188.667 -6 -283 -55.333 -283 -148c0 -51.333 30 -77 90 -77c83.333 0 153.666 27.667 210.999 83z" />
    <glyph glyph-name="ccedilla" unicode="&#xe7;" horiz-adv-x="1155" 
d="M301 -342l67.0049 113.002c62 -41.333 136.667 -62 224 -62c54.667 0 82 19.333 82 58c0 32.667 -19.333 49 -58 49c-25.333 0 -51.333 -10.333 -78 -31l-92 45l51 164c-60 8.66699 -114.667 24 -164 46c-56 25.333 -103.667 58.333 -143 99
c-92.667 95.333 -139 231.333 -139 408c0 108 18.667 202 56 282c33.333 70.667 80.666 129 141.999 175c53.333 40 115.666 69.667 186.999 89c61.333 16.667 125.666 25 192.999 25c148 0 264 -35 348 -105c36 -30 67.333 -67 94 -111c22 -36.667 41.667 -80.667 59 -132
l-340 -106c-28.667 108.667 -84 163 -166 163c-111.333 0 -167 -94 -167 -282c0 -90.667 10.333 -158.334 31 -203.001c26 -56 70 -84 132 -84c38.667 0 72 11.333 100 34c35.333 29.333 61.666 76.666 78.999 141.999l335 -112c-36 -93.333 -87.667 -167.333 -155 -222
c-86 -70 -195.333 -108 -328 -114l-16 -72c31.333 20.667 78.333 31 141 31c99.333 0 149 -48.667 149 -146c0 -64 -29 -116.667 -87 -158c-56.667 -40.667 -128 -61 -214 -61c-136.667 0 -244.334 26 -323.001 78z" />
    <glyph glyph-name="egrave" unicode="&#xe8;" horiz-adv-x="1206" 
d="M423 4c-73.333 20 -136.335 50.333 -189.002 91c-58 46 -102.333 104.333 -133 175c-33.333 78 -50 170.333 -50 277c0 104 19.667 195.667 59 275c34.667 69.333 83.334 128 146.001 176c54.667 40.667 117.334 71.667 188.001 93c61.333 18 123 27 185 27
c64 0 122 -6.66699 174 -20c66 -18 123 -47 171 -87c56.667 -47.333 100.334 -110.333 131.001 -189c34.667 -90 52 -199.333 52 -328v-62h-703c10 -67.333 34.333 -115 73 -143c33.333 -23.333 82.333 -35 147 -35c51.333 0 109 11.333 173 34c50.667 18 98 40 142 66
l145 -245c-134.667 -88 -298.334 -132 -491.001 -132c-80.667 0 -154 9 -220 27zM798.998 664c-14.667 114.667 -72.333 172 -173 172c-89.333 0 -145 -57.333 -167 -172h340zM228.999 1583h389l191 -371h-269z" />
    <glyph glyph-name="eacute" unicode="&#xe9;" horiz-adv-x="1206" 
d="M423 4c-73.333 20 -136.335 50.333 -189.002 91c-58 46 -102.333 104.333 -133 175c-33.333 78 -50 170.333 -50 277c0 104 19.667 195.667 59 275c34.667 69.333 83.334 128 146.001 176c54.667 40.667 117.334 71.667 188.001 93c61.333 18 123 27 185 27
c64 0 122 -6.66699 174 -20c66 -18 123 -47 171 -87c56.667 -47.333 100.334 -110.333 131.001 -189c34.667 -90 52 -199.333 52 -328v-62h-703c10 -67.333 34.333 -115 73 -143c33.333 -23.333 82.333 -35 147 -35c51.333 0 109 11.333 173 34c50.667 18 98 40 142 66
l145 -245c-134.667 -88 -298.334 -132 -491.001 -132c-80.667 0 -154 9 -220 27zM798.998 664c-14.667 114.667 -72.333 172 -173 172c-89.333 0 -145 -57.333 -167 -172h340zM585.999 1583h389l-312 -371h-268z" />
    <glyph glyph-name="ecircumflex" unicode="&#xea;" horiz-adv-x="1206" 
d="M423 4c-73.333 20 -136.335 50.333 -189.002 91c-58 46 -102.333 104.333 -133 175c-33.333 78 -50 170.333 -50 277c0 104 19.667 195.667 59 275c34.667 69.333 83.334 128 146.001 176c54.667 40.667 117.334 71.667 188.001 93c61.333 18 123 27 185 27
c64 0 122 -6.66699 174 -20c66 -18 123 -47 171 -87c56.667 -47.333 100.334 -110.333 131.001 -189c34.667 -90 52 -199.333 52 -328v-62h-703c10 -67.333 34.333 -115 73 -143c33.333 -23.333 82.333 -35 147 -35c51.333 0 109 11.333 173 34c50.667 18 98 40 142 66
l145 -245c-134.667 -88 -298.334 -132 -491.001 -132c-80.667 0 -154 9 -220 27zM798.998 664c-14.667 114.667 -72.333 172 -173 172c-89.333 0 -145 -57.333 -167 -172h340zM468.999 1583h266l264 -360h-227l-172 131l-168 -131h-227z" />
    <glyph glyph-name="edieresis" unicode="&#xeb;" horiz-adv-x="1206" 
d="M423 4c-73.333 20 -136.335 50.333 -189.002 91c-58 46 -102.333 104.333 -133 175c-33.333 78 -50 170.333 -50 277c0 104 19.667 195.667 59 275c34.667 69.333 83.334 128 146.001 176c54.667 40.667 117.334 71.667 188.001 93c61.333 18 123 27 185 27
c64 0 122 -6.66699 174 -20c66 -18 123 -47 171 -87c56.667 -47.333 100.334 -110.333 131.001 -189c34.667 -90 52 -199.333 52 -328v-62h-703c10 -67.333 34.333 -115 73 -143c33.333 -23.333 82.333 -35 147 -35c51.333 0 109 11.333 173 34c50.667 18 98 40 142 66
l145 -245c-134.667 -88 -298.334 -132 -491.001 -132c-80.667 0 -154 9 -220 27zM798.998 664c-14.667 114.667 -72.333 172 -173 172c-89.333 0 -145 -57.333 -167 -172h340zM664.999 1556h328v-358h-328v358zM200.999 1556h327v-358h-327v358z" />
    <glyph glyph-name="igrave" unicode="&#xec;" horiz-adv-x="647" 
d="M121 1098h406v-1098h-406v1098zM-110 1583h389l191 -371h-269z" />
    <glyph glyph-name="iacute" unicode="&#xed;" horiz-adv-x="647" 
d="M120 1098h406v-1098h-406v1098zM360 1583h389l-312 -371h-268z" />
    <glyph glyph-name="icircumflex" unicode="&#xee;" horiz-adv-x="647" 
d="M122 1098h405v-1098h-405v1098zM191 1583h266l265 -360h-228l-172 131l-168 -131h-227z" />
    <glyph glyph-name="idieresis" unicode="&#xef;" horiz-adv-x="647" 
d="M122 1098h405v-1098h-405v1098zM388 1556h328v-358h-328v358zM-77 1556h328v-358h-328v358z" />
    <glyph glyph-name="ntilde" unicode="&#xf1;" horiz-adv-x="1296" 
d="M112 1098h406v-170c30.667 49.333 71.667 90.333 123 123c70 44.667 150.333 67 241 67c94 0 168 -23.333 222 -70c62 -54 93 -136.333 93 -247v-801h-405v668c0 78.667 -30.667 118 -92 118c-57.333 0 -118 -25.667 -182 -77v-709h-406v1098zM704 1206
c-22 8 -45.667 21 -71 39c-4 2.66699 -9 6.33398 -15 11.001l-15 10c-10.667 8 -20 14.333 -28 19c-21.333 12 -42 18 -62 18c-56 0 -84 -37 -84 -111h-213c0 244.667 90.333 367 271 367c36.667 0 70.667 -6 102 -18c22 -8.66699 45.667 -22 71 -40
c4 -2.66699 9 -6.33398 15 -11.001l15 -10c10.667 -8 20 -14 28 -18c21.333 -12 42 -18 62 -18c56 0 84 36.667 84 110h213c0 -244 -90.333 -366 -271 -366c-36.667 0 -70.667 6 -102 18z" />
    <glyph glyph-name="ograve" unicode="&#xf2;" horiz-adv-x="1273" 
d="M434 3c-72.667 19.333 -135.666 49.333 -188.999 90c-60.667 46 -107.334 104.333 -140.001 175c-36 78.667 -54 171.667 -54 279c0 108.667 18 202.667 54 282c32 70.667 78.333 129 139 175c53.333 40 116.333 69.667 189 89c62.667 16.667 130.667 25 204 25
c72 0 139.667 -8.33301 203 -25c72.667 -19.333 135.667 -49 189 -89c60 -46 106.333 -104.333 139 -175c36 -79.333 54 -173.333 54 -282c0 -107.333 -18 -200.333 -54 -279c-32.667 -70.667 -79 -129 -139 -175c-53.333 -40.667 -116.333 -70.667 -189 -90
c-63.333 -17.333 -131 -26 -203 -26s-139.667 8.66699 -203 26zM817.001 545c0 88 -12.668 155.001 -38.001 201.001c-29.333 54 -76.666 81 -141.999 81c-120 0 -180 -94 -180 -282c0 -88.667 12.333 -156.334 37 -203.001c29.333 -56 77 -84 143 -84
c120 0 180 95.667 180 287zM264 1583h389l191 -371h-269z" />
    <glyph glyph-name="oacute" unicode="&#xf3;" horiz-adv-x="1273" 
d="M434 3c-72.667 19.333 -135.666 49.333 -188.999 90c-60.667 46 -107.334 104.333 -140.001 175c-36 78.667 -54 171.667 -54 279c0 108.667 18 202.667 54 282c32 70.667 78.333 129 139 175c53.333 40 116.333 69.667 189 89c62.667 16.667 130.667 25 204 25
c72 0 139.667 -8.33301 203 -25c72.667 -19.333 135.667 -49 189 -89c60 -46 106.333 -104.333 139 -175c36 -79.333 54 -173.333 54 -282c0 -107.333 -18 -200.333 -54 -279c-32.667 -70.667 -79 -129 -139 -175c-53.333 -40.667 -116.333 -70.667 -189 -90
c-63.333 -17.333 -131 -26 -203 -26s-139.667 8.66699 -203 26zM817.001 545c0 88 -12.668 155.001 -38.001 201.001c-29.333 54 -76.666 81 -141.999 81c-120 0 -180 -94 -180 -282c0 -88.667 12.333 -156.334 37 -203.001c29.333 -56 77 -84 143 -84
c120 0 180 95.667 180 287zM620 1583h389l-311 -371h-268z" />
    <glyph glyph-name="ocircumflex" unicode="&#xf4;" horiz-adv-x="1273" 
d="M434 3c-72.667 19.333 -135.666 49.333 -188.999 90c-60.667 46 -107.334 104.333 -140.001 175c-36 78.667 -54 171.667 -54 279c0 108.667 18 202.667 54 282c32 70.667 78.333 129 139 175c53.333 40 116.333 69.667 189 89c62.667 16.667 130.667 25 204 25
c72 0 139.667 -8.33301 203 -25c72.667 -19.333 135.667 -49 189 -89c60 -46 106.333 -104.333 139 -175c36 -79.333 54 -173.333 54 -282c0 -107.333 -18 -200.333 -54 -279c-32.667 -70.667 -79 -129 -139 -175c-53.333 -40.667 -116.333 -70.667 -189 -90
c-63.333 -17.333 -131 -26 -203 -26s-139.667 8.66699 -203 26zM817.001 545c0 88 -12.668 155.001 -38.001 201.001c-29.333 54 -76.666 81 -141.999 81c-120 0 -180 -94 -180 -282c0 -88.667 12.333 -156.334 37 -203.001c29.333 -56 77 -84 143 -84
c120 0 180 95.667 180 287zM504 1583h266l264 -360h-227l-172 131l-168 -131h-228z" />
    <glyph glyph-name="otilde" unicode="&#xf5;" horiz-adv-x="1273" 
d="M434 3c-72.667 19.333 -135.666 49.333 -188.999 90c-60.667 46 -107.334 104.333 -140.001 175c-36 78.667 -54 171.667 -54 279c0 108.667 18 202.667 54 282c32 70.667 78.333 129 139 175c53.333 40 116.333 69.667 189 89c62.667 16.667 130.667 25 204 25
c72 0 139.667 -8.33301 203 -25c72.667 -19.333 135.667 -49 189 -89c60 -46 106.333 -104.333 139 -175c36 -79.333 54 -173.333 54 -282c0 -107.333 -18 -200.333 -54 -279c-32.667 -70.667 -79 -129 -139 -175c-53.333 -40.667 -116.333 -70.667 -189 -90
c-63.333 -17.333 -131 -26 -203 -26s-139.667 8.66699 -203 26zM817.001 545c0 88 -12.668 155.001 -38.001 201.001c-29.333 54 -76.666 81 -141.999 81c-120 0 -180 -94 -180 -282c0 -88.667 12.333 -156.334 37 -203.001c29.333 -56 77 -84 143 -84
c120 0 180 95.667 180 287zM695 1206c-22 8 -45.998 21 -71.998 39c-4 2.66699 -9 6.33398 -15 11.001l-14 10c-11.333 8 -21 14.333 -29 19c-20.667 12 -41 18 -61 18c-56 0 -84 -37 -84 -111h-213c0 244.667 90 367 270 367c36.667 0 70.667 -6 102 -18
c22 -8.66699 45.667 -22 71 -40c4 -2.66699 9 -6.33398 15 -11.001l15 -10c11.333 -8 20.666 -14 27.999 -18c21.333 -12 42 -18 62 -18c56 0 84 36.667 84 110h213c0 -244 -90.333 -366 -271 -366c-36.667 0 -70.334 6 -101.001 18z" />
    <glyph glyph-name="odieresis" unicode="&#xf6;" horiz-adv-x="1273" 
d="M434 3c-72.667 19.333 -135.666 49.333 -188.999 90c-60.667 46 -107.334 104.333 -140.001 175c-36 78.667 -54 171.667 -54 279c0 108.667 18 202.667 54 282c32 70.667 78.333 129 139 175c53.333 40 116.333 69.667 189 89c62.667 16.667 130.667 25 204 25
c72 0 139.667 -8.33301 203 -25c72.667 -19.333 135.667 -49 189 -89c60 -46 106.333 -104.333 139 -175c36 -79.333 54 -173.333 54 -282c0 -107.333 -18 -200.333 -54 -279c-32.667 -70.667 -79 -129 -139 -175c-53.333 -40.667 -116.333 -70.667 -189 -90
c-63.333 -17.333 -131 -26 -203 -26s-139.667 8.66699 -203 26zM817.001 545c0 88 -12.668 155.001 -38.001 201.001c-29.333 54 -76.666 81 -141.999 81c-120 0 -180 -94 -180 -282c0 -88.667 12.333 -156.334 37 -203.001c29.333 -56 77 -84 143 -84
c120 0 180 95.667 180 287zM700 1556h328v-358h-328v358zM235 1556h328v-358h-328v358z" />
    <glyph glyph-name="divide" unicode="&#xf7;" horiz-adv-x="1331" 
d="M506 1280h319v-270h-319v270zM139 893h1053v-315h-1053v315zM506 457h319v-271h-319v271z" />
    <glyph glyph-name="oslash" unicode="&#xf8;" horiz-adv-x="1273" 
d="M1132 891c60 -91.333 90 -206.001 90 -344.001c0 -107.333 -18 -200.333 -54 -279c-32.667 -70.667 -79.334 -129 -140.001 -175c-53.333 -40.667 -116.333 -70.667 -189 -90c-62.667 -17.333 -130.334 -26 -203.001 -26c-124 0 -232.333 24.667 -325 74l-141 -143
l-150 149l129 133c-65.333 95.333 -98 214.333 -98 357c0 108.667 18 202.667 54 282c32 70.667 78.333 129 139 175c52.667 40 115.667 69.667 189 89c62.667 16.667 130.334 25 203.001 25c62 0 120.333 -6 175 -18c62.667 -13.333 118.334 -34.666 167.001 -63.999
l125 129l150 -149zM751 794.999c-30 26 -68.333 39 -115 39c-126.667 0 -190 -96.333 -190 -289c0 -27.333 0.666992 -47.333 2 -60zM528 286.999c29.333 -23.333 65.334 -35.001 108.001 -35.001c127.333 0 191 97.667 191 293v22
c-0.666992 8.66699 -1.33398 16.334 -2.00098 23.001z" />
    <glyph glyph-name="ugrave" unicode="&#xf9;" horiz-adv-x="1296" 
d="M193 48c-62 54 -93 136.332 -93 246.999v803h406v-680c0 -79.333 30.667 -119 92 -119c57.333 0 118 26 182 78v721h405v-1098h-405v168c-30.667 -49.333 -72 -90.666 -124 -123.999c-70 -44.667 -150.333 -67 -241 -67c-94 0 -168 23.667 -222 71zM274 1583h389
l191 -371h-269z" />
    <glyph glyph-name="uacute" unicode="&#xfa;" horiz-adv-x="1296" 
d="M193 48c-62 54 -93 136.332 -93 246.999v803h406v-680c0 -79.333 30.667 -119 92 -119c57.333 0 118 26 182 78v721h405v-1098h-405v168c-30.667 -49.333 -72 -90.666 -124 -123.999c-70 -44.667 -150.333 -67 -241 -67c-94 0 -168 23.667 -222 71zM610 1583h389
l-311 -371h-269z" />
    <glyph glyph-name="ucircumflex" unicode="&#xfb;" horiz-adv-x="1296" 
d="M193 48c-62 54 -93 136.332 -93 246.999v803h406v-680c0 -79.333 30.667 -119 92 -119c57.333 0 118 26 182 78v721h405v-1098h-405v168c-30.667 -49.333 -72 -90.666 -124 -123.999c-70 -44.667 -150.333 -67 -241 -67c-94 0 -168 23.667 -222 71zM508 1583h266
l264 -360h-227l-172 131l-168 -131h-228z" />
    <glyph glyph-name="udieresis" unicode="&#xfc;" horiz-adv-x="1296" 
d="M193 48c-62 54 -93 136.332 -93 246.999v803h406v-680c0 -79.333 30.667 -119 92 -119c57.333 0 118 26 182 78v721h405v-1098h-405v168c-30.667 -49.333 -72 -90.666 -124 -123.999c-70 -44.667 -150.333 -67 -241 -67c-94 0 -168 23.667 -222 71zM704 1556h328v-358
h-328v358zM239 1556h328v-358h-328v358z" />
    <glyph glyph-name="ydieresis" unicode="&#xff;" horiz-adv-x="1175" 
d="M105 -404c-26.667 4 -52.3311 8.66699 -76.998 14l-56 15l84 312l34 -9c8 -2 16 -3.66699 24 -5l28 -6c49.333 -8.66699 97.666 -13 144.999 -13c54 0 89 21 105 63l10 27l-418 1104h416l203 -627h4l203 627h391l-459 -1209c-38.667 -101.333 -87 -176.333 -145 -225
c-66.667 -56 -153.334 -84 -260.001 -84c-86 0 -163.333 5.33301 -232 16zM668.003 1556h328v-358h-328v358zM203.003 1556h328v-358h-328v358z" />
    <glyph glyph-name="Lslash" unicode="&#x141;" 
d="M227 227v285l51 -4l10 98l-268 -61v420l268 -62l-10 103l-51 -5v285l22 -2l-2 21h285l-4 -50l100 -10l-61 271h420l-62 -271l101 10l-5 50h285l-2 -21l23 2v-285l-52 5l-10 -103l271 62v-420l-271 61l10 -98l52 4v-285l-23 2l2 -24h-285l7 53l-103 10l62 -268h-420
l61 268l-102 -10l6 -53h-285l2 24zM925 1040v-137h135l-12 125zM628 1040l-123 -12l-12 -125h135v137zM925 473l123 12l12 121h-135v-133zM493 606l12 -121l123 -12v133h-135z" />
    <glyph glyph-name="lslash" unicode="&#x142;" 
d="M227 227v285l51 -4l10 98l-268 -61v420l268 -62l-10 103l-51 -5v285l22 -2l-2 21h285l-4 -50l100 -10l-61 271h420l-62 -271l101 10l-5 50h285l-2 -21l23 2v-285l-52 5l-10 -103l271 62v-420l-271 61l10 -98l52 4v-285l-23 2l2 -24h-285l7 53l-103 10l62 -268h-420
l61 268l-102 -10l6 -53h-285l2 24zM925 1040v-137h135l-12 125zM628 1040l-123 -12l-12 -125h135v137zM925 473l123 12l12 121h-135v-133zM493 606l12 -121l123 -12v133h-135z" />
    <glyph glyph-name="OE" unicode="&#x152;" horiz-adv-x="2324" 
d="M300 156c-74 67.333 -130.667 149 -170 245c-43.333 104.667 -65 223.667 -65 357s21.667 252.333 65 357c39.333 96 96 177.333 170 244c136.667 123.333 306.667 185 510 185c140.667 0 266.334 -30.667 377.001 -92v64h1039v-340h-672v-246h479v-320h-479v-280h706
v-330h-1073v63c-110.667 -61.333 -236.334 -92 -377.001 -92c-203.333 0 -373.333 61.667 -510 185zM1057 424c58 81.333 87.001 192.666 87.001 333.999c0 298.667 -111.333 448 -334 448c-223.333 0 -335 -149.333 -335 -448c0 -141.333 29 -252.666 87 -333.999
c59.333 -83.333 142 -125 248 -125c105.333 0 187.666 41.667 246.999 125z" />
    <glyph glyph-name="oe" unicode="&#x153;" horiz-adv-x="1957" 
d="M434 3c-72.667 19.333 -135.666 49.332 -188.999 89.999c-60.667 46 -107.334 104.333 -140.001 175c-36 78.667 -54 171.667 -54 279c0 108.667 18 202.667 54 282c32 70.667 78.333 129 139 175c53.333 40 116.333 69.667 189 89c62.667 16.667 130.667 25 204 25
s139.333 -11.667 198 -35c68.667 -28 126.667 -72.333 174 -133c51.333 60 112.333 104.333 183 133c58.667 23.333 121.334 35 188.001 35c67.333 0 127 -6.66699 179 -20c66.667 -18 123.667 -47 171 -87c56 -47.333 98.667 -110.333 128 -189
c34 -89.333 51 -198.666 51 -327.999v-62h-703c9.33301 -67.333 33.666 -114.333 72.999 -141c32 -22 80.667 -33 146 -33c52.667 0 110.667 10.667 174 32c52.667 17.333 100 38.666 142 63.999l145 -245c-135.333 -88 -299.333 -132 -492 -132
c-78.667 0 -149 11.333 -211 34c-70 25.333 -130 65.333 -180 120c-45.333 -55.333 -102.333 -95.666 -171 -120.999c-57.333 -22 -122.333 -33 -195 -33c-72 0 -139.667 8.66699 -203 26zM1550 663.999c-14 111.333 -71.333 167 -172 167c-90 0 -146 -55.667 -168 -167h340
zM817.001 544.999c0 86.667 -12.6689 152 -38.002 196c-29.333 50.667 -76.666 76 -141.999 76c-120 0 -180 -90.667 -180 -272c0 -88 12.333 -154 37 -198c28.667 -52.667 76.334 -79 143.001 -79c120 0 180 92.333 180 277z" />
    <glyph glyph-name="Scaron" unicode="&#x160;" 
d="M227 227v285l51 -4l10 98l-268 -61v420l268 -62l-10 103l-51 -5v285l22 -2l-2 21h285l-4 -50l100 -10l-61 271h420l-62 -271l101 10l-5 50h285l-2 -21l23 2v-285l-52 5l-10 -103l271 62v-420l-271 61l10 -98l52 4v-285l-23 2l2 -24h-285l7 53l-103 10l62 -268h-420
l61 268l-102 -10l6 -53h-285l2 24zM925 1040v-137h135l-12 125zM628 1040l-123 -12l-12 -125h135v137zM925 473l123 12l12 121h-135v-133zM493 606l12 -121l123 -12v133h-135z" />
    <glyph glyph-name="scaron" unicode="&#x161;" 
d="M227 227v285l51 -4l10 98l-268 -61v420l268 -62l-10 103l-51 -5v285l22 -2l-2 21h285l-4 -50l100 -10l-61 271h420l-62 -271l101 10l-5 50h285l-2 -21l23 2v-285l-52 5l-10 -103l271 62v-420l-271 61l10 -98l52 4v-285l-23 2l2 -24h-285l7 53l-103 10l62 -268h-420
l61 268l-102 -10l6 -53h-285l2 24zM925 1040v-137h135l-12 125zM628 1040l-123 -12l-12 -125h135v137zM925 473l123 12l12 121h-135v-133zM493 606l12 -121l123 -12v133h-135z" />
    <glyph glyph-name="Ydieresis" unicode="&#x178;" horiz-adv-x="1476" 
d="M532 633l-528 883h422l313 -537l316 537h417l-530 -883v-633h-410v633zM807 1946h327v-359h-327v359zM342 1946h328v-359h-328v359z" />
    <glyph glyph-name="Zcaron" unicode="&#x17d;" 
d="M227 227v285l51 -4l10 98l-268 -61v420l268 -62l-10 103l-51 -5v285l22 -2l-2 21h285l-4 -50l100 -10l-61 271h420l-62 -271l101 10l-5 50h285l-2 -21l23 2v-285l-52 5l-10 -103l271 62v-420l-271 61l10 -98l52 4v-285l-23 2l2 -24h-285l7 53l-103 10l62 -268h-420
l61 268l-102 -10l6 -53h-285l2 24zM925 1040v-137h135l-12 125zM628 1040l-123 -12l-12 -125h135v137zM925 473l123 12l12 121h-135v-133zM493 606l12 -121l123 -12v133h-135z" />
    <glyph glyph-name="zcaron" unicode="&#x17e;" 
d="M227 227v285l51 -4l10 98l-268 -61v420l268 -62l-10 103l-51 -5v285l22 -2l-2 21h285l-4 -50l100 -10l-61 271h420l-62 -271l101 10l-5 50h285l-2 -21l23 2v-285l-52 5l-10 -103l271 62v-420l-271 61l10 -98l52 4v-285l-23 2l2 -24h-285l7 53l-103 10l62 -268h-420
l61 268l-102 -10l6 -53h-285l2 24zM925 1040v-137h135l-12 125zM628 1040l-123 -12l-12 -125h135v137zM925 473l123 12l12 121h-135v-133zM493 606l12 -121l123 -12v133h-135z" />
    <glyph glyph-name="circumflex" unicode="&#x2c6;" horiz-adv-x="1167" 
d="M450 1583h266l265 -360h-228l-172 131l-168 -131h-227z" />
    <glyph glyph-name="caron" unicode="&#x2c7;" horiz-adv-x="1167" 
d="M182 1583h227l168 -131l172 131h228l-265 -360h-266z" />
    <glyph glyph-name="ogonek" unicode="&#x2db;" horiz-adv-x="1024" 
d="M319 -225c0 78.667 56 153.666 168 224.999h205c-75.333 -52.667 -113 -106 -113 -160c0 -47.333 29.333 -71 88 -71c37.333 0 71 6 101 18c10.667 4.66699 21.667 10.334 33 17.001l26 16l78 -119c-92 -56 -206 -84 -342 -84c-162.667 0 -244 52.667 -244 158z" />
    <glyph glyph-name="hungarumlaut" unicode="&#x2dd;" horiz-adv-x="1095" 
d="M730 1583h390l-363 -371h-268zM292 1583h389l-342 -371h-268z" />
    <glyph glyph-name="sheva" unicode="&#x5b0;" horiz-adv-x="1" 
d="M64 -166c0 -43.333 -21 -65 -63 -65c-44 0 -66 21.667 -66 65c0 42.667 22 64 66 64c42 0 63 -21.333 63 -64zM69 -365c0 -43.333 -22 -65 -66 -65c-42 0 -63 21.667 -63 65c0 42.667 21 64 63 64c44 0 66 -21.333 66 -64z" />
    <glyph glyph-name="hatafsegol" unicode="&#x5b1;" horiz-adv-x="1" 
d="M253 -173c0 -39.333 -20.333 -58.999 -61 -58.999s-61 19.667 -61 59c0 42 20.333 63 61 63c18 0 32.667 -5.33301 44 -16s17 -26.334 17 -47.001zM253 -361.999c0 -16.667 -5.33301 -30.668 -16 -42.001s-25.667 -17 -45 -17c-40.667 0 -61 19.667 -61 59
c0 42 20.333 63 61 63c18.667 0 33 -4.66699 43 -14c12 -11.333 18 -27.666 18 -48.999zM71 -172c0 -44.667 -22.667 -67 -68 -67c-46.667 0 -70 22.333 -70 67c0 46.667 23.333 70 70 70c45.333 0 68 -23.333 68 -70zM-114 -172c0 -44.667 -23 -67 -69 -67
c-45.333 0 -68 22.333 -68 67c0 46.667 22.667 70 68 70c46 0 69 -23.333 69 -70zM-24 -348c0 -45.333 -22.333 -68 -67 -68c-46.667 0 -70 22.667 -70 68s23.333 68 70 68c44.667 0 67 -22.667 67 -68z" />
    <glyph glyph-name="hatafpatah" unicode="&#x5b2;" horiz-adv-x="1" 
d="M227 -173c0 -39.333 -20.333 -58.999 -61 -58.999s-61 19.667 -61 59c0 42 20.333 63 61 63c18 0 32.667 -5.33301 44 -16s17 -26.334 17 -47.001zM227 -361.999c0 -16.667 -5.33301 -30.668 -16 -42.001s-25.667 -17 -45 -17c-40.667 0 -61 19.667 -61 59
c0 42 20.333 63 61 63c18.667 0 33 -4.66699 43 -14c12 -11.333 18 -27.666 18 -48.999zM49 -163c0 -14 -2.66797 -26.333 -8.00098 -37h-260c-6.66699 10.667 -10 24.334 -10 41.001c0 14.667 3.33301 27 10 37h260c6.66699 -12.667 9.33398 -26.334 8.00098 -41.001z" />
    <glyph glyph-name="hatafqamats" unicode="&#x5b3;" horiz-adv-x="1" 
d="M247 -173c0 -39.333 -20.333 -58.999 -61 -58.999s-61 19.667 -61 59c0 42 20.333 63 61 63c18 0 32.667 -5.33301 44 -16s17 -26.334 17 -47.001zM247 -361.999c0 -16.667 -5.33301 -30.668 -16 -42.001s-25.667 -17 -45 -17c-40.667 0 -61 19.667 -61 59
c0 42 20.333 63 61 63c18.667 0 33 -4.66699 43 -14c12 -11.333 18 -27.666 18 -48.999zM65 -167c0 -10 -2.66699 -21.9961 -8 -35.9961h-124v-9c0 -24.667 7 -48.334 21 -71.001c17.333 -26.667 26 -47 26 -61c0 -43.333 -23 -65 -69 -65c-44 0 -66 23 -66 69
c0 11.333 5.66699 26.666 17 45.999c13.333 23.333 21.333 38.666 24 45.999c4 12.667 6 25 6 37v8h-123c-6.66699 10.667 -10 24 -10 40c0 14.667 3.33301 27 10 37h288c5.33301 -12.667 8 -26.334 8 -41.001z" />
    <glyph glyph-name="hiriq" unicode="&#x5b4;" horiz-adv-x="1" 
d="M66 -196c0 -43.333 -21.333 -65 -64 -65c-43.333 0 -65 21.667 -65 65c0 42.667 21.667 64 65 64c42.667 0 64 -21.333 64 -64z" />
    <glyph glyph-name="tsere" unicode="&#x5b5;" horiz-adv-x="1" 
d="M173 -166c0 -43.333 -21 -65 -63 -65c-44 0 -66 21.667 -66 65c0 42.667 22 64 66 64c42 0 63 -21.333 63 -64zM-40 -166c0 -43.333 -21.667 -65 -65 -65c-42.667 0 -64 21.667 -64 65c0 42.667 21.333 64 64 64c43.333 0 65 -21.333 65 -64z" />
    <glyph glyph-name="segol" unicode="&#x5b6;" horiz-adv-x="1" 
d="M165 -166c0 -43.333 -21.333 -65 -64 -65c-43.333 0 -65 21.667 -65 65c0 42.667 21.667 64 65 64c42.667 0 64 -21.333 64 -64zM-32 -166c0 -43.333 -21.667 -65 -65 -65c-42.667 0 -64 21.667 -64 65c0 42.667 21.333 64 64 64c43.333 0 65 -21.333 65 -64zM71 -332
c0 -43.333 -22 -65 -66 -65c-43.333 0 -65 21.667 -65 65c0 44 21.667 66 65 66c44 0 66 -22 66 -66z" />
    <glyph glyph-name="patah" unicode="&#x5b7;" horiz-adv-x="1" 
d="M174 -167c-1.33301 -14 -4 -26.333 -8 -37h-328c-6.66699 10.667 -10 24.334 -10 41.001c0 14.667 3.33301 27 10 37h328c5.33301 -12.667 8 -26.334 8 -41.001z" />
    <glyph glyph-name="qamats" unicode="&#x5b8;" horiz-adv-x="1" 
d="M174 -167c0 -10 -2.66699 -21.9961 -8 -35.9961h-145v-9c0 -24.667 7 -48.334 21 -71.001c17.333 -26.667 26 -47 26 -61c0 -43.333 -23 -65 -69 -65c-44 0 -66 23 -66 69c0 11.333 5.66699 26.666 17 45.999c14 23.333 22 38.666 24 45.999c4 12.667 6 21 6 25v20h-143
c-6.66699 10.667 -10 24 -10 40c0 14.667 3.33301 27 10 37h329c5.33301 -12.667 8 -26.334 8 -41.001z" />
    <glyph glyph-name="holam" unicode="&#x5b9;" horiz-adv-x="0" 
d="M75 1499c-0.666992 -41.333 -23.001 -63.668 -67.001 -67.001c-44 4 -67.333 25.333 -70 64c2.66699 38.667 25.334 60.334 68.001 65.001c42 -3.33301 65 -24 69 -62z" />
    <glyph glyph-name="qubuts" unicode="&#x5bb;" horiz-adv-x="1" 
d="M67 -158c0 -43.333 -21.667 -65 -65 -65c-44.667 0 -67 21.667 -67 65c0 44.667 22.333 67 67 67c43.333 0 65 -22.333 65 -67zM167 -297c0 -42.667 -21.667 -64 -65 -64c-44.667 0 -67 21.333 -67 64c0 45.333 22.333 68 67 68c43.333 0 65 -22.667 65 -68zM260 -438
c0 -43.333 -21.667 -65 -65 -65c-44.667 0 -67 21.667 -67 65c0 44.667 22.333 67 67 67c43.333 0 65 -22.333 65 -67z" />
    <glyph glyph-name="dagesh" unicode="&#x5bc;" horiz-adv-x="1" 
d="M75 529c-0.666992 -41.333 -23.001 -63.668 -67.001 -67.001c-44 4 -67.333 25.333 -70 64c2.66699 38.667 25.334 60.334 68.001 65.001c42 -3.33301 65 -24 69 -62z" />
    <glyph glyph-name="meteg" unicode="&#x5bd;" horiz-adv-x="1" 
d="M43 -443h-84v323h84v-323z" />
    <glyph glyph-name="maqaf" unicode="&#x5be;" horiz-adv-x="782" 
d="M634 936h-518v330h518v-330z" />
    <glyph glyph-name="rafe" unicode="&#x5bf;" horiz-adv-x="1" 
d="M210 1431c0 -18 -8 -27 -24 -27h-373c-15.333 0 -23 9 -23 27v43c0 18.667 7.66699 28 23 28h373c16 0 24 -9.33301 24 -28v-43z" />
    <glyph glyph-name="paseq" unicode="&#x5c0;" horiz-adv-x="864" 
d="M231 1516h401v-1926h-401v1926z" />
    <glyph glyph-name="shindot" unicode="&#x5c1;" horiz-adv-x="0" 
d="M75 1499c-0.666992 -41.333 -23.001 -63.668 -67.001 -67.001c-44 4 -67.333 25.333 -70 64c2.66699 38.667 25.334 60.334 68.001 65.001c42 -3.33301 65 -24 69 -62z" />
    <glyph glyph-name="sindot" unicode="&#x5c2;" horiz-adv-x="0" 
d="M75 1499c-0.666992 -41.333 -23.001 -63.668 -67.001 -67.001c-44 4 -67.333 25.333 -70 64c2.66699 38.667 25.334 60.334 68.001 65.001c42 -3.33301 65 -24 69 -62z" />
    <glyph glyph-name="sofpasuq" unicode="&#x5c3;" horiz-adv-x="624" 
d="M100 1098h424v-369h-424v369zM100 369h424v-369h-424v369z" />
    <glyph glyph-name="uni05C4" unicode="&#x5c4;" horiz-adv-x="0" 
d="M75 1499c-0.666992 -41.333 -23.001 -63.668 -67.001 -67.001c-44 4 -67.333 25.333 -70 64c2.66699 38.667 25.334 60.334 68.001 65.001c42 -3.33301 65 -24 69 -62z" />
    <glyph glyph-name="alef" unicode="&#x5d0;" horiz-adv-x="1476" 
d="M1423 0l-454.998 0.00195312c-162.667 240 -306.667 438.667 -432 596c-19.333 -8 -29 -68 -29 -180v-416h-430v354c0 101.333 15 176.666 45 225.999c40 65.333 124 132 252 200l-348 437v49h471c131.333 -142 270.666 -317 417.999 -525
c14.667 15.333 22 55.666 22 120.999v404h432v-281c0 -104 -19 -182.333 -57 -235c-40.667 -60.667 -126 -125.667 -256 -195c191.333 -255.333 313.666 -426 366.999 -512v-43z" />
    <glyph glyph-name="bet" unicode="&#x5d1;" horiz-adv-x="1298" 
d="M1218 0h-1151v319h557c32.667 15.333 56.5 39.666 71.5 72.999s22.5 111 22.5 233c0 134.667 -17.667 221.834 -53 261.501s-113 59.5 -233 59.5h-359v320h574c180 0 309.167 -37 387.5 -111s117.5 -203.667 117.5 -389c0 -160 -27 -275.333 -81 -346
c-15.333 -19.333 -42.666 -47.333 -81.999 -84c-4.66699 -2.66699 -6 -6 -4 -10c1.33301 -4.66699 4.66602 -7 9.99902 -7h223v-319z" />
    <glyph glyph-name="gimel" unicode="&#x5d2;" horiz-adv-x="1003" 
d="M933 0l-375 0.000976562c-16 83.333 -27 180.333 -33 291c-1.33301 5.33301 -5.33301 8.66602 -12 9.99902c-8 1.33301 -14 -2 -18 -10c-32.667 -70 -54.667 -114.333 -66 -133c-26 -46.667 -55.333 -85.667 -88 -117c-46.667 -45.333 -113 -68 -199 -68
c-34 0 -68.667 8.33301 -104 25l37 352c12 -5.33301 27.667 -8 47 -8c152.667 0 272 86 358 258v158c0 72 -14 121.333 -42 148s-78 40 -150 40h-172v320h340c164 0 278.667 -31.833 344 -95.5s98 -177.5 98 -341.5v-387c0 -132 11.667 -265.667 35 -401v-41z" />
    <glyph glyph-name="dalet" unicode="&#x5d3;" horiz-adv-x="1290" 
d="M1200 946h-154v-946h-424v946h-565v320h1143v-320z" />
    <glyph glyph-name="he" unicode="&#x5d4;" horiz-adv-x="1464" 
d="M1357 0h-425.998v678c0 98 -20.333 166.833 -61 206.5s-110.334 59.5 -209.001 59.5h-561v322h748c185.333 0 317.666 -41 396.999 -123c74.667 -78 112 -205.667 112 -383v-760zM534.002 0h-426v653l426 76v-729z" />
    <glyph glyph-name="vav" unicode="&#x5d5;" horiz-adv-x="645" 
d="M532 0h-426v1266h426v-1266z" />
    <glyph glyph-name="zayin" unicode="&#x5d6;" horiz-adv-x="878" 
d="M827 1266l-43.001 -318.001h-110c-46.667 -46 -70 -115.667 -70 -209c0 -43.333 3.33301 -108.666 10 -195.999l41 -543h-426l-41 446c-4 38.667 -6 73 -6 103c0 88.667 15.333 163 46 223s83 113.333 157 160c5.33301 4 7.33301 7.33301 6 10s-4.66602 4 -9.99902 4
h-330v320h776z" />
    <glyph glyph-name="het" unicode="&#x5d7;" horiz-adv-x="1492" 
d="M1388 0l-428 -0.000976562v729c0 82 -15.333 138.333 -46 169s-85 46 -163 46h-219v-944h-426v1266h762c191.333 0 327 -41.667 407 -125c75.333 -79.333 113 -209.666 113 -390.999v-750z" />
    <glyph glyph-name="tet" unicode="&#x5d8;" horiz-adv-x="1519" 
d="M1435 616c0 -160.667 -32 -292.334 -96 -395.001c-105.333 -168 -304.666 -252 -597.999 -252c-222.667 0 -386.334 50 -491.001 150c-100 96.667 -150 244 -150 442v705h428v-754c0 -150 76.333 -225 229 -225c82 0 141.667 15 179 45c44.667 38 67 106.333 67 205v151
c0 102.667 -12.333 172.334 -37 209.001c-18.667 26 -50 39 -94 39c-38 0 -77.667 -15 -119 -45l-80 301c72.667 60 171 90 295 90c148 0 259.333 -36 334 -108c88.667 -86.667 133 -228 133 -424v-134z" />
    <glyph glyph-name="yod" unicode="&#x5d9;" horiz-adv-x="630" 
d="M524 643l-428 -111v734h428v-623z" />
    <glyph glyph-name="finalkaf" unicode="&#x5da;" horiz-adv-x="1177" 
d="M1073 -362l-427.999 0.000976562v1026c0 99.333 -19.833 170.833 -59.5 214.5s-107.834 65.5 -204.501 65.5h-330v322h475c203.333 0 348 -50.667 434 -152c75.333 -88.667 113 -227.334 113 -416.001v-1060z" />
    <glyph glyph-name="kaf" unicode="&#x5db;" horiz-adv-x="1204" 
d="M1124 645c0 -430 -218.666 -645 -655.999 -645h-393v319h307c118.667 0 200.167 22.667 244.5 68s66.5 128 66.5 248c0 112 -24.833 191.5 -74.5 238.5s-131.834 70.5 -246.501 70.5h-297v322h399c220 0 382 -48 486 -144c109.333 -100.667 164 -259.667 164 -477z" />
    <glyph glyph-name="lamed" unicode="&#x5dc;" horiz-adv-x="1234" 
d="M1169 821c0 -198 -90 -381 -270 -549c-140.667 -130.667 -274.667 -222 -402 -274l-180 256c104 72 189.333 142.333 256 211c100 104 150 200.333 150 289v4c0 124 -71 186 -213 186h-453v619h428v-297h184c142 0 250 -24.667 324 -74
c117.333 -79.333 176 -201 176 -365v-6z" />
    <glyph glyph-name="finalmem" unicode="&#x5dd;" horiz-adv-x="1486" 
d="M1380 0l-1274 0.000976562v1266h719c202 0 346.667 -44.333 434 -133c80.667 -84.667 121 -219.334 121 -404.001v-729zM962 319.001v388.001c0 87.333 -16.667 148.666 -50 183.999s-94.333 53 -183 53h-197v-625h430z" />
    <glyph glyph-name="mem" unicode="&#x5de;" horiz-adv-x="1542" 
d="M1474 633c0 -173.333 -22 -301.667 -66 -385c-91.333 -174.667 -257.666 -262 -498.999 -262c-106.667 0 -184.667 11.333 -234 34l29 293c34 -13.333 75 -20 123 -20c100.667 0 164 34 190 102c16.667 45.333 25 119.666 25 222.999c0 128.667 -22.667 219 -68 271
c-36.667 42 -93.334 63 -170.001 63h-121c-68 -34 -111 -139.667 -129 -317l-63 -635h-414v59l51 508c10 97.333 32.667 173.333 68 228c31.333 48.667 80.333 92.334 147 131.001c7.33301 4 9.33301 8 6 12c-1.33301 5.33301 -6 8 -14 8h-262v320h782
c240.667 0 406.667 -58.667 498 -176c45.333 -57.333 76.833 -119.5 94.5 -186.5s26.5 -157.167 26.5 -270.5z" />
    <glyph glyph-name="finalnun" unicode="&#x5df;" horiz-adv-x="653" 
d="M538 -369h-428v1635h428v-1635z" />
    <glyph glyph-name="nun" unicode="&#x5e0;" horiz-adv-x="892" 
d="M784 0l-731 -0.000976562v315h313v443c0 68 -12.833 116.667 -38.5 146s-73.5 44 -143.5 44h-123v318h344c136.667 0 235 -32.333 295 -97c56 -61.333 84 -158.666 84 -291.999v-877z" />
    <glyph glyph-name="samekh" unicode="&#x5e1;" horiz-adv-x="1527" 
d="M1451 635c0 -203.333 -64.167 -365.168 -192.5 -485.501s-297.5 -180.5 -507.5 -180.5c-207.333 0 -369.333 50.5 -486 151.5s-175 241.833 -175 422.5c0 124 34.667 224.333 104 301c30 32.667 63.333 59.334 100 80.001c7.33301 4 9.33301 8 6 12
c-1.33301 5.33301 -5.33301 8 -12 8h-221v322h729c225.333 0 390.833 -53.667 496.5 -161s158.5 -264 158.5 -470zM1019 617.998c0 131.333 -27.333 222.332 -82 272.999c-40.667 38 -104 57 -190 57h-105c-54 -31.333 -90 -79.666 -108 -144.999
c-10.667 -41.333 -16 -104.333 -16 -189c0 -220.667 81 -331 243 -331c172 0 258 111.667 258 335z" />
    <glyph glyph-name="ayin" unicode="&#x5e2;" horiz-adv-x="1503" 
d="M1394 639c0 -426 -233 -639.001 -699 -639.001h-659v315h258l-180 918v33h467l117 -957h18c84.667 0 145.5 18.833 182.5 56.5s55.5 100.834 55.5 189.501v711h440v-627z" />
    <glyph glyph-name="finalpe" unicode="&#x5e3;" horiz-adv-x="1433" 
d="M1327 -360l-430 -0.00292969v1099c0 142 -71 213 -213 213h-80c-70 -43.333 -105 -106.666 -105 -189.999c0 -54.667 22.667 -110 68 -166c10.667 -14 10 -24.333 -2 -31l-344 -190c-90 64 -135 156 -135 276c0 102.667 66 194.334 198 275.001c4.66699 2.66699 6 6 4 10
c-1.33301 5.33301 -4.66602 8 -9.99902 8h-223v322h705c207.333 0 353.666 -40.667 438.999 -122s128 -223.666 128 -426.999v-1077z" />
    <glyph glyph-name="pe" unicode="&#x5e4;" horiz-adv-x="1460" 
d="M1391 645c0 -204.667 -53.668 -363.332 -161.001 -475.999s-257.333 -169 -450 -169h-680v319h600c104 0 173.333 22.667 208 68s52 131.333 52 258c0 126 -21 212.667 -63 260c-35.333 40 -94 60 -176 60h-70c-39.333 -15.333 -70 -40 -92 -74
c-20.667 -28.667 -31 -57.334 -31 -86.001c0 -64 26 -115.333 78 -154c16.667 -12 16.667 -22 0 -30l-344 -187c-38 20.667 -70.333 53.5 -97 98.5s-40 91.5 -40 139.5c0 98 58.667 184 176 258c2.66699 1.33301 4 4 4 8c-1.33301 5.33301 -4.66602 8 -9.99902 8h-207v320
h702c400.667 0 601 -207 601 -621z" />
    <glyph glyph-name="finaltsadi" unicode="&#x5e5;" horiz-adv-x="1384" 
d="M1294 1024c0 -120 -29.333 -218.333 -88 -295c-68 -88.667 -186.667 -167.667 -356 -237c110.667 -202.667 202.667 -377 276 -523l143 -282v-49h-423l-152 301l-393 747l-289 524v56h432l287 -516l20 -39c31.333 0 57.333 24.167 78 72.5s31 117.5 31 207.5v275h434
v-242z" />
    <glyph glyph-name="tsadi" unicode="&#x5e6;" horiz-adv-x="1378" 
d="M1281 985c0 -88.667 -18.999 -158.998 -56.999 -210.998c-42 -56 -124.667 -117.333 -248 -184c57.333 -68.667 121.666 -141.667 192.999 -219c34 -38.667 55.167 -65.5 63.5 -80.5s12.5 -37.5 12.5 -67.5v-223h-1147v319h641c9.33301 0 14 4.33301 14 13
c0 6.66699 -6.66699 12.667 -20 18c-1.33301 1.33301 -11.666 9.16602 -30.999 23.499s-33 25.166 -41 32.499c-100 74.667 -226.333 209.667 -379 405c-140.667 180 -226.667 319.333 -258 418v37h455c69.333 -142 162.666 -286 279.999 -432
c12.667 -16.667 32.667 -40 60 -70c20 10.667 30 74 30 190v312h432v-281z" />
    <glyph glyph-name="qof" unicode="&#x5e7;" horiz-adv-x="1521" 
d="M1443 760c0 -195.333 -72.334 -363.334 -217.001 -504.001c-129.333 -125.333 -274 -210.666 -434 -255.999l-129 274c62.667 27.333 123.5 64.333 182.5 111s99.833 91 122.5 133c28.667 52 43 105.333 43 160c0 104 -36.667 177.667 -110 221
c-50.667 30 -126 45 -226 45h-575v322h715c230.667 0 394.334 -48 491.001 -144c91.333 -90 137 -210.667 137 -362zM533.999 -369.001h-422v1041l422 78v-1119z" />
    <glyph glyph-name="resh" unicode="&#x5e8;" horiz-adv-x="1167" 
d="M1073 0h-428v672c0 96.667 -15.667 164 -47 202c-38 46.667 -109 70 -213 70h-342v322h504c200.667 0 340.667 -43.667 420 -131c70.667 -79.333 106 -213.333 106 -402v-733z" />
    <glyph glyph-name="shin" unicode="&#x5e9;" horiz-adv-x="1884" 
d="M1771 680c0 -229.333 -60.001 -398.666 -180.001 -507.999c-84.667 -76.667 -197.334 -129.334 -338.001 -158.001c-98 -20 -225 -30 -381 -30c-297.333 0 -505.666 60.667 -624.999 182c-98 100.667 -147 255 -147 463v637h424v-615c12 -4 22.333 -6 31 -6
c120 0 180 91 180 273v348h403v-346c0 -157.333 -43 -272.333 -129 -345c-78.667 -66.667 -194 -100 -346 -100c-38 0 -83.667 4.66699 -137 14c8 -58.667 26.333 -103 55 -133c50.667 -53.333 148.334 -80 293.001 -80c192.667 0 321.667 32.333 387 97
c57.333 56 86 154.333 86 295v598h424v-586z" />
    <glyph glyph-name="tav" unicode="&#x5ea;" horiz-adv-x="1560" 
d="M1451 0h-426v737c0 78 -11.5 132 -34.5 162s-72.833 45 -149.5 45h-199v-553c0 -147.333 -33 -252 -99 -314s-170.667 -93 -314 -93c-91.333 0 -159 9.33301 -203 28v305c27.333 -10.667 59.333 -16 96 -16c62.667 0 94 36.333 94 109v856h750
c181.333 0 307.5 -33.5 378.5 -100.5s106.5 -187.833 106.5 -362.5v-803z" />
    <glyph glyph-name="doublevav" unicode="&#x5f0;" horiz-adv-x="1289" 
d="M532 0h-426v1266h426v-1266zM1182 0h-426v1266h426v-1266z" />
    <glyph glyph-name="vavyod" unicode="&#x5f1;" horiz-adv-x="1308" 
d="M524 643l-428 -111v734h428v-623zM1172 0h-426v1266h426v-1266z" />
    <glyph glyph-name="doubleyod" unicode="&#x5f2;" horiz-adv-x="1270" 
d="M524 643l-428 -111v734h428v-623zM1144 643l-428 -111v734h428v-623z" />
    <glyph glyph-name="geresh" unicode="&#x5f3;" horiz-adv-x="565" 
d="M114 1350v166h336v-166l-35 -402h-266z" />
    <glyph glyph-name="gershayim" unicode="&#x5f4;" horiz-adv-x="987" 
d="M536 1350v166h336v-166l-35 -402h-266zM114 1350v166h336v-166l-35 -402h-266z" />
    <glyph glyph-name="endash" unicode="&#x2013;" horiz-adv-x="731" 
d="M81 774h567v-262h-567v262z" />
    <glyph glyph-name="emdash" unicode="&#x2014;" horiz-adv-x="1113" 
d="M81 774h921v-262h-921v262z" />
    <glyph glyph-name="quoteleft" unicode="&#x2018;" horiz-adv-x="565" 
d="M450 1114v-166h-336v166l35 402h266z" />
    <glyph glyph-name="quoteright" unicode="&#x2019;" horiz-adv-x="565" 
d="M114 1350v166h336v-166l-35 -402h-266z" />
    <glyph glyph-name="quotesinglbase" unicode="&#x201a;" horiz-adv-x="565" 
d="M114 120v166h336v-166l-35 -402h-266z" />
    <glyph glyph-name="quotedblleft" unicode="&#x201c;" horiz-adv-x="987" 
d="M450 1114v-166h-336v166l35 402h266zM872 1114v-166h-336v166l35 402h266z" />
    <glyph glyph-name="quotedblright" unicode="&#x201d;" horiz-adv-x="987" 
d="M536 1350v166h336v-166l-35 -402h-266zM114 1350v166h336v-166l-35 -402h-266z" />
    <glyph glyph-name="quotedblbase" unicode="&#x201e;" horiz-adv-x="987" 
d="M536 110v166h336v-166l-35 -402h-266zM114 110v166h336v-166l-35 -402h-266z" />
    <glyph glyph-name="dagger" unicode="&#x2020;" horiz-adv-x="1296" 
d="M500 709l-453 -39v366l453 -41l-62 521h420l-61 -521l452 41v-366l-452 39l61 -1119h-420z" />
    <glyph glyph-name="daggerdbl" unicode="&#x2021;" horiz-adv-x="1296" 
d="M499 -18l-401 -41v346l401 -39l-53 303l53 305l-401 -39v346l401 -41l-61 394h420l-62 -394l402 41v-346l-402 39l54 -305l-54 -303l402 39v-346l-402 41l62 -392h-420z" />
    <glyph glyph-name="bullet" unicode="&#x2022;" horiz-adv-x="948" 
d="M263 507c-55.333 56 -83 126 -83 210c0 84.667 27.667 155 83 211c56 56 126 84 210 84c84.667 0 155 -28 211 -84s84 -126.333 84 -211c0 -84 -28 -154 -84 -210c-56 -55.333 -126.333 -83 -211 -83c-84 0 -154 27.667 -210 83z" />
    <glyph glyph-name="ellipsis" unicode="&#x2026;" horiz-adv-x="1763" 
d="M1257 369h423v-369h-423v369zM669 369h424v-369h-424v369zM81 369h424v-369h-424v369z" />
    <glyph glyph-name="perthousand" unicode="&#x2030;" horiz-adv-x="3332" 
d="M190 656c-78 92.667 -117 217.334 -117 374.001c0 156 39 280 117 372c78.667 93.333 185.667 140 321 140c134.667 0 241.334 -46.667 320.001 -140c77.333 -92 116 -216 116 -372c0 -156.667 -38.667 -281.334 -116 -374.001
c-78.667 -93.333 -185.334 -140 -320.001 -140c-135.333 0 -242.333 46.667 -321 140zM1472 1516h344l-905 -1516h-344zM2500 120c-78 92.667 -117 217.334 -117 374.001c0 155.333 39 279.333 117 372c79.333 93.333 186.333 140 321 140s241.334 -46.667 320 -140
c78 -92.667 117 -216.667 117 -372c0 -156.667 -39 -281.334 -117 -374.001c-78.667 -93.333 -185.334 -140 -320 -140c-135.333 0 -242.333 46.667 -321 140zM1554 120c-78 92.667 -117 217.334 -117 374.001c0 155.333 39 279.333 117 372
c78.667 93.333 185.667 140 321 140c134.667 0 241.334 -46.667 320.001 -140c77.333 -92.667 116 -216.667 116 -372c0 -156.667 -38.667 -281.334 -116 -374.001c-78.667 -93.333 -185.334 -140 -320.001 -140c-135.333 0 -242.333 46.667 -321 140zM620 1030
c0 173.333 -36.333 260 -109 260c-74.667 0 -112 -86.667 -112 -260c0 -177.333 37.333 -266 112 -266c72.667 0 109 88.667 109 266zM2930 494c0 173.333 -36.333 260 -109 260c-74.667 0 -112 -86.667 -112 -260c0 -178 37.333 -267 112 -267c72.667 0 109 89 109 267z
M1984 494c0 173.333 -36.333 260 -109 260c-74.667 0 -112 -86.667 -112 -260c0 -178 37.333 -267 112 -267c72.667 0 109 89 109 267z" />
    <glyph glyph-name="guilsinglleft" unicode="&#x2039;" horiz-adv-x="804" 
d="M30 549l356 549h381l-338 -549l338 -549h-381z" />
    <glyph glyph-name="guilsinglright" unicode="&#x203a;" horiz-adv-x="804" 
d="M374 549l-338 549h381l356 -549l-356 -549h-381z" />
    <glyph glyph-name="peseta" unicode="&#x20a7;" 
d="M227 227v285l51 -4l10 98l-268 -61v420l268 -62l-10 103l-51 -5v285l22 -2l-2 21h285l-4 -50l100 -10l-61 271h420l-62 -271l101 10l-5 50h285l-2 -21l23 2v-285l-52 5l-10 -103l271 62v-420l-271 61l10 -98l52 4v-285l-23 2l2 -24h-285l7 53l-103 10l62 -268h-420
l61 268l-102 -10l6 -53h-285l2 24zM925 1040v-137h135l-12 125zM628 1040l-123 -12l-12 -125h135v137zM925 473l123 12l12 121h-135v-133zM493 606l12 -121l123 -12v133h-135z" />
    <glyph glyph-name="newsheqelsign" unicode="&#x20aa;" horiz-adv-x="1835" 
d="M1085 242h113.001c94 0 162.5 22.167 205.5 66.5s64.5 115.5 64.5 213.5v744h315v-713c0 -187.333 -50.833 -330.833 -152.5 -430.5s-241.834 -149.5 -420.501 -149.5h-127c-184.667 0 -317 41.667 -397 125c-76.667 79.333 -115 206.333 -115 381v328h297v-342
c0 -148.667 72.333 -223 217 -223zM1015 756c0 94 -24.334 157.333 -73.001 190c-37.333 24.667 -99.666 37 -186.999 37h-334v-985h-313v1268h725c316.667 0 475 -149 475 -447v-399h-293v336z" />
    <glyph glyph-name="Euro" unicode="&#x20ac;" horiz-adv-x="1525" 
d="M43 795l0.00195312 203.999h219c34.667 180.667 109 318.334 223 413.001c106.667 88 239.334 132 398.001 132c159.333 0 286.666 -36.333 381.999 -109c84 -64 148.333 -161.333 193 -292l-342 -129c-25.333 74.667 -53 127.667 -83 159c-34.667 37.333 -82 56 -142 56
c-120.667 0 -198.667 -76.667 -234 -230h271v-204h-291v-113h291v-207h-267c33.333 -130.667 111.333 -196 234 -196c99.333 0 173.666 79.667 222.999 239l350 -110c-94.667 -291.333 -286.334 -437 -575.001 -437c-156.667 0 -287.667 40 -393 120
c-113.333 86.667 -190 214.667 -230 384h-227v207h201c-1.33301 16.667 -2 42 -2 76v37h-199z" />
    <glyph glyph-name="trademark" unicode="&#x2122;" horiz-adv-x="1935" 
d="M882 1516h371l117 -515l119 515h364v-867h-260v518l-125 -518h-223l-125 512v-512h-238v867zM280 1296h-225v220h719v-220h-223v-647h-271v647z" />
    <glyph glyph-name="minus" unicode="&#x2212;" 
d="M227 227v285l51 -4l10 98l-268 -61v420l268 -62l-10 103l-51 -5v285l22 -2l-2 21h285l-4 -50l100 -10l-61 271h420l-62 -271l101 10l-5 50h285l-2 -21l23 2v-285l-52 5l-10 -103l271 62v-420l-271 61l10 -98l52 4v-285l-23 2l2 -24h-285l7 53l-103 10l62 -268h-420
l61 268l-102 -10l6 -53h-285l2 24zM925 1040v-137h135l-12 125zM628 1040l-123 -12l-12 -125h135v137zM925 473l123 12l12 121h-135v-133zM493 606l12 -121l123 -12v133h-135z" />
    <glyph glyph-name="fi" unicode="&#xf001;" horiz-adv-x="1431" 
d="M894 1516h406v-334h-406v334zM214 807l-177.999 -0.000976562v291h178v41c0 51.333 4.33301 97 13 137c10.667 48.667 28 90.334 52 125.001c57.333 83.333 154.666 125 291.999 125c110 0 185.667 -6.33301 227 -19v-272c-8.66699 2.66699 -22 4.66699 -40 6
c-14.667 1.33301 -30 2 -46 2c-61.333 0 -92 -40.333 -92 -121v-24h186v-291h-186v-807h-406v807zM894.001 1098h406v-1098h-406v1098z" />
    <glyph glyph-name="fl" unicode="&#xf002;" horiz-adv-x="1421" 
d="M214 807l-177.999 -0.000976562v291h178v41c0 51.333 4.33301 97 13 137c10.667 48.667 28 90.334 52 125.001c57.333 83.333 154.666 125 291.999 125c110 0 185.667 -6.33301 227 -19v-272c-8.66699 2.66699 -22 4.66699 -40 6c-14.667 1.33301 -30 2 -46 2
c-61.333 0 -92 -40.333 -92 -121v-24h186v-291h-186v-807h-406v807zM894.001 1516h406v-1516h-406v1516z" />
    <glyph glyph-name="uniFB1D" unicode="&#xfb1d;" 
d="M227 227v285l51 -4l10 98l-268 -61v420l268 -62l-10 103l-51 -5v285l22 -2l-2 21h285l-4 -50l100 -10l-61 271h420l-62 -271l101 10l-5 50h285l-2 -21l23 2v-285l-52 5l-10 -103l271 62v-420l-271 61l10 -98l52 4v-285l-23 2l2 -24h-285l7 53l-103 10l62 -268h-420
l61 268l-102 -10l6 -53h-285l2 24zM925 1040v-137h135l-12 125zM628 1040l-123 -12l-12 -125h135v137zM925 473l123 12l12 121h-135v-133zM493 606l12 -121l123 -12v133h-135z" />
    <glyph glyph-name="uniFB1E" unicode="&#xfb1e;" 
d="M227 227v285l51 -4l10 98l-268 -61v420l268 -62l-10 103l-51 -5v285l22 -2l-2 21h285l-4 -50l100 -10l-61 271h420l-62 -271l101 10l-5 50h285l-2 -21l23 2v-285l-52 5l-10 -103l271 62v-420l-271 61l10 -98l52 4v-285l-23 2l2 -24h-285l7 53l-103 10l62 -268h-420
l61 268l-102 -10l6 -53h-285l2 24zM925 1040v-137h135l-12 125zM628 1040l-123 -12l-12 -125h135v137zM925 473l123 12l12 121h-135v-133zM493 606l12 -121l123 -12v133h-135z" />
    <glyph glyph-name="uniFB1F" unicode="&#xfb1f;" 
d="M227 227v285l51 -4l10 98l-268 -61v420l268 -62l-10 103l-51 -5v285l22 -2l-2 21h285l-4 -50l100 -10l-61 271h420l-62 -271l101 10l-5 50h285l-2 -21l23 2v-285l-52 5l-10 -103l271 62v-420l-271 61l10 -98l52 4v-285l-23 2l2 -24h-285l7 53l-103 10l62 -268h-420
l61 268l-102 -10l6 -53h-285l2 24zM925 1040v-137h135l-12 125zM628 1040l-123 -12l-12 -125h135v137zM925 473l123 12l12 121h-135v-133zM493 606l12 -121l123 -12v133h-135z" />
    <glyph glyph-name="uniFB20" unicode="&#xfb20;" 
d="M227 227v285l51 -4l10 98l-268 -61v420l268 -62l-10 103l-51 -5v285l22 -2l-2 21h285l-4 -50l100 -10l-61 271h420l-62 -271l101 10l-5 50h285l-2 -21l23 2v-285l-52 5l-10 -103l271 62v-420l-271 61l10 -98l52 4v-285l-23 2l2 -24h-285l7 53l-103 10l62 -268h-420
l61 268l-102 -10l6 -53h-285l2 24zM925 1040v-137h135l-12 125zM628 1040l-123 -12l-12 -125h135v137zM925 473l123 12l12 121h-135v-133zM493 606l12 -121l123 -12v133h-135z" />
    <glyph glyph-name="uniFB21" unicode="&#xfb21;" 
d="M227 227v285l51 -4l10 98l-268 -61v420l268 -62l-10 103l-51 -5v285l22 -2l-2 21h285l-4 -50l100 -10l-61 271h420l-62 -271l101 10l-5 50h285l-2 -21l23 2v-285l-52 5l-10 -103l271 62v-420l-271 61l10 -98l52 4v-285l-23 2l2 -24h-285l7 53l-103 10l62 -268h-420
l61 268l-102 -10l6 -53h-285l2 24zM925 1040v-137h135l-12 125zM628 1040l-123 -12l-12 -125h135v137zM925 473l123 12l12 121h-135v-133zM493 606l12 -121l123 -12v133h-135z" />
    <glyph glyph-name="uniFB22" unicode="&#xfb22;" 
d="M227 227v285l51 -4l10 98l-268 -61v420l268 -62l-10 103l-51 -5v285l22 -2l-2 21h285l-4 -50l100 -10l-61 271h420l-62 -271l101 10l-5 50h285l-2 -21l23 2v-285l-52 5l-10 -103l271 62v-420l-271 61l10 -98l52 4v-285l-23 2l2 -24h-285l7 53l-103 10l62 -268h-420
l61 268l-102 -10l6 -53h-285l2 24zM925 1040v-137h135l-12 125zM628 1040l-123 -12l-12 -125h135v137zM925 473l123 12l12 121h-135v-133zM493 606l12 -121l123 -12v133h-135z" />
    <glyph glyph-name="uniFB23" unicode="&#xfb23;" 
d="M227 227v285l51 -4l10 98l-268 -61v420l268 -62l-10 103l-51 -5v285l22 -2l-2 21h285l-4 -50l100 -10l-61 271h420l-62 -271l101 10l-5 50h285l-2 -21l23 2v-285l-52 5l-10 -103l271 62v-420l-271 61l10 -98l52 4v-285l-23 2l2 -24h-285l7 53l-103 10l62 -268h-420
l61 268l-102 -10l6 -53h-285l2 24zM925 1040v-137h135l-12 125zM628 1040l-123 -12l-12 -125h135v137zM925 473l123 12l12 121h-135v-133zM493 606l12 -121l123 -12v133h-135z" />
    <glyph glyph-name="uniFB24" unicode="&#xfb24;" 
d="M227 227v285l51 -4l10 98l-268 -61v420l268 -62l-10 103l-51 -5v285l22 -2l-2 21h285l-4 -50l100 -10l-61 271h420l-62 -271l101 10l-5 50h285l-2 -21l23 2v-285l-52 5l-10 -103l271 62v-420l-271 61l10 -98l52 4v-285l-23 2l2 -24h-285l7 53l-103 10l62 -268h-420
l61 268l-102 -10l6 -53h-285l2 24zM925 1040v-137h135l-12 125zM628 1040l-123 -12l-12 -125h135v137zM925 473l123 12l12 121h-135v-133zM493 606l12 -121l123 -12v133h-135z" />
    <glyph glyph-name="uniFB25" unicode="&#xfb25;" 
d="M227 227v285l51 -4l10 98l-268 -61v420l268 -62l-10 103l-51 -5v285l22 -2l-2 21h285l-4 -50l100 -10l-61 271h420l-62 -271l101 10l-5 50h285l-2 -21l23 2v-285l-52 5l-10 -103l271 62v-420l-271 61l10 -98l52 4v-285l-23 2l2 -24h-285l7 53l-103 10l62 -268h-420
l61 268l-102 -10l6 -53h-285l2 24zM925 1040v-137h135l-12 125zM628 1040l-123 -12l-12 -125h135v137zM925 473l123 12l12 121h-135v-133zM493 606l12 -121l123 -12v133h-135z" />
    <glyph glyph-name="uniFB26" unicode="&#xfb26;" 
d="M227 227v285l51 -4l10 98l-268 -61v420l268 -62l-10 103l-51 -5v285l22 -2l-2 21h285l-4 -50l100 -10l-61 271h420l-62 -271l101 10l-5 50h285l-2 -21l23 2v-285l-52 5l-10 -103l271 62v-420l-271 61l10 -98l52 4v-285l-23 2l2 -24h-285l7 53l-103 10l62 -268h-420
l61 268l-102 -10l6 -53h-285l2 24zM925 1040v-137h135l-12 125zM628 1040l-123 -12l-12 -125h135v137zM925 473l123 12l12 121h-135v-133zM493 606l12 -121l123 -12v133h-135z" />
    <glyph glyph-name="uniFB27" unicode="&#xfb27;" 
d="M227 227v285l51 -4l10 98l-268 -61v420l268 -62l-10 103l-51 -5v285l22 -2l-2 21h285l-4 -50l100 -10l-61 271h420l-62 -271l101 10l-5 50h285l-2 -21l23 2v-285l-52 5l-10 -103l271 62v-420l-271 61l10 -98l52 4v-285l-23 2l2 -24h-285l7 53l-103 10l62 -268h-420
l61 268l-102 -10l6 -53h-285l2 24zM925 1040v-137h135l-12 125zM628 1040l-123 -12l-12 -125h135v137zM925 473l123 12l12 121h-135v-133zM493 606l12 -121l123 -12v133h-135z" />
    <glyph glyph-name="uniFB28" unicode="&#xfb28;" 
d="M227 227v285l51 -4l10 98l-268 -61v420l268 -62l-10 103l-51 -5v285l22 -2l-2 21h285l-4 -50l100 -10l-61 271h420l-62 -271l101 10l-5 50h285l-2 -21l23 2v-285l-52 5l-10 -103l271 62v-420l-271 61l10 -98l52 4v-285l-23 2l2 -24h-285l7 53l-103 10l62 -268h-420
l61 268l-102 -10l6 -53h-285l2 24zM925 1040v-137h135l-12 125zM628 1040l-123 -12l-12 -125h135v137zM925 473l123 12l12 121h-135v-133zM493 606l12 -121l123 -12v133h-135z" />
    <glyph glyph-name="uniFB29" unicode="&#xfb29;" 
d="M227 227v285l51 -4l10 98l-268 -61v420l268 -62l-10 103l-51 -5v285l22 -2l-2 21h285l-4 -50l100 -10l-61 271h420l-62 -271l101 10l-5 50h285l-2 -21l23 2v-285l-52 5l-10 -103l271 62v-420l-271 61l10 -98l52 4v-285l-23 2l2 -24h-285l7 53l-103 10l62 -268h-420
l61 268l-102 -10l6 -53h-285l2 24zM925 1040v-137h135l-12 125zM628 1040l-123 -12l-12 -125h135v137zM925 473l123 12l12 121h-135v-133zM493 606l12 -121l123 -12v133h-135z" />
    <glyph glyph-name="shinshindot" unicode="&#xfb2a;" horiz-adv-x="1884" 
d="M1771 680c0 -229.333 -60.001 -398.666 -180.001 -507.999c-84.667 -76.667 -197.334 -129.334 -338.001 -158.001c-98 -20 -225 -30 -381 -30c-297.333 0 -505.666 60.667 -624.999 182c-98 100.667 -147 255 -147 463v637h424v-615c12 -4 22.333 -6 31 -6
c120 0 180 91 180 273v348h403v-346c0 -157.333 -43 -272.333 -129 -345c-78.667 -66.667 -194 -100 -346 -100c-38 0 -83.667 4.66699 -137 14c8 -58.667 26.333 -103 55 -133c50.667 -53.333 148.334 -80 293.001 -80c192.667 0 321.667 32.333 387 97
c57.333 56 86 154.333 86 295v598h424v-586zM1626 1499c-0.666992 -41.333 -23.001 -63.668 -67.001 -67.001c-44 4 -67.333 25.333 -70 64c2.66699 38.667 25.334 60.334 68.001 65.001c42 -3.33301 65 -24 69 -62z" />
    <glyph glyph-name="shinsindot" unicode="&#xfb2b;" horiz-adv-x="1884" 
d="M1771 680c0 -229.333 -60.001 -398.666 -180.001 -507.999c-84.667 -76.667 -197.334 -129.334 -338.001 -158.001c-98 -20 -225 -30 -381 -30c-297.333 0 -505.666 60.667 -624.999 182c-98 100.667 -147 255 -147 463v637h424v-615c12 -4 22.333 -6 31 -6
c120 0 180 91 180 273v348h403v-346c0 -157.333 -43 -272.333 -129 -345c-78.667 -66.667 -194 -100 -346 -100c-38 0 -83.667 4.66699 -137 14c8 -58.667 26.333 -103 55 -133c50.667 -53.333 148.334 -80 293.001 -80c192.667 0 321.667 32.333 387 97
c57.333 56 86 154.333 86 295v598h424v-586zM374.999 1499c-0.666992 -41.333 -23.001 -63.668 -67.001 -67.001c-44 4 -67.333 25.333 -70 64c2.66699 38.667 25.334 60.334 68.001 65.001c42 -3.33301 65 -24 69 -62z" />
    <glyph glyph-name="shindageshshindot" unicode="&#xfb2c;" horiz-adv-x="1884" 
d="M1771 680c0 -229.333 -60.001 -398.666 -180.001 -507.999c-84.667 -76.667 -197.334 -129.334 -338.001 -158.001c-98 -20 -225 -30 -381 -30c-297.333 0 -505.666 60.667 -624.999 182c-98 100.667 -147 255 -147 463v637h424v-615c12 -4 22.333 -6 31 -6
c120 0 180 91 180 273v348h403v-346c0 -157.333 -43 -272.333 -129 -345c-78.667 -66.667 -194 -100 -346 -100c-38 0 -83.667 4.66699 -137 14c8 -58.667 26.333 -103 55 -133c50.667 -53.333 148.334 -80 293.001 -80c192.667 0 321.667 32.333 387 97
c57.333 56 86 154.333 86 295v598h424v-586zM1309 779c-0.666992 -46.667 -25.666 -72 -74.999 -76c-50 4.66699 -76.333 28.667 -79 72c3.33301 44 28.666 68.667 75.999 74c47.333 -4 73.333 -27.333 78 -70zM1626 1499
c-0.666992 -41.333 -23.001 -63.668 -67.001 -67.001c-44 4 -67.333 25.333 -70 64c2.66699 38.667 25.334 60.334 68.001 65.001c42 -3.33301 65 -24 69 -62z" />
    <glyph glyph-name="shindageshsindot" unicode="&#xfb2d;" horiz-adv-x="1884" 
d="M1771 680c0 -229.333 -60.001 -398.666 -180.001 -507.999c-84.667 -76.667 -197.334 -129.334 -338.001 -158.001c-98 -20 -225 -30 -381 -30c-297.333 0 -505.666 60.667 -624.999 182c-98 100.667 -147 255 -147 463v637h424v-615c12 -4 22.333 -6 31 -6
c120 0 180 91 180 273v348h403v-346c0 -157.333 -43 -272.333 -129 -345c-78.667 -66.667 -194 -100 -346 -100c-38 0 -83.667 4.66699 -137 14c8 -58.667 26.333 -103 55 -133c50.667 -53.333 148.334 -80 293.001 -80c192.667 0 321.667 32.333 387 97
c57.333 56 86 154.333 86 295v598h424v-586zM1309 779c-0.666992 -46.667 -25.666 -72 -74.999 -76c-50 4.66699 -76.333 28.667 -79 72c3.33301 44 28.666 68.667 75.999 74c47.333 -4 73.333 -27.333 78 -70zM375 1499c-0.666992 -41.333 -23.001 -63.668 -67.001 -67.001
c-44 4 -67.333 25.333 -70 64c2.66699 38.667 25.334 60.334 68.001 65.001c42 -3.33301 65 -24 69 -62z" />
    <glyph glyph-name="alefpatah" unicode="&#xfb2e;" horiz-adv-x="1476" 
d="M1423 0l-454.998 0.00195312c-162.667 240 -306.667 438.667 -432 596c-19.333 -8 -29 -68 -29 -180v-416h-430v354c0 101.333 15 176.666 45 225.999c40 65.333 124 132 252 200l-348 437v49h471c131.333 -142 270.666 -317 417.999 -525
c14.667 15.333 22 55.666 22 120.999v404h432v-281c0 -104 -19 -182.333 -57 -235c-40.667 -60.667 -126 -125.667 -256 -195c191.333 -255.333 313.666 -426 366.999 -512v-43zM894.002 -166.998c-1.33301 -14 -4 -26.333 -8 -37h-328
c-6.66699 10.667 -10 24.334 -10 41.001c0 14.667 3.33301 27 10 37h328c5.33301 -12.667 8 -26.334 8 -41.001z" />
    <glyph glyph-name="alefqamats" unicode="&#xfb2f;" horiz-adv-x="1476" 
d="M1423 0l-454.998 0.00195312c-162.667 240 -306.667 438.667 -432 596c-19.333 -8 -29 -68 -29 -180v-416h-430v354c0 101.333 15 176.666 45 225.999c40 65.333 124 132 252 200l-348 437v49h471c131.333 -142 270.666 -317 417.999 -525
c14.667 15.333 22 55.666 22 120.999v404h432v-281c0 -104 -19 -182.333 -57 -235c-40.667 -60.667 -126 -125.667 -256 -195c191.333 -255.333 313.666 -426 366.999 -512v-43zM934.002 -166.998c0 -10 -2.66699 -21.9961 -8 -35.9961h-145v-9
c0 -24.667 7 -48.334 21 -71.001c17.333 -26.667 26 -47 26 -61c0 -43.333 -23 -65 -69 -65c-44 0 -66 23 -66 69c0 11.333 5.66699 26.666 17 45.999c14 23.333 22 38.666 24 45.999c4 12.667 6 21 6 25v20h-143c-6.66699 10.667 -10 24 -10 40c0 14.667 3.33301 27 10 37
h329c5.33301 -12.667 8 -26.334 8 -41.001z" />
    <glyph glyph-name="alefmapiq" unicode="&#xfb30;" horiz-adv-x="1476" 
d="M1423 0l-454.998 0.00195312c-162.667 240 -306.667 438.667 -432 596c-19.333 -8 -29 -68 -29 -180v-416h-430v354c0 101.333 15 176.666 45 225.999c40 65.333 124 132 252 200l-348 437v49h471c131.333 -142 270.666 -317 417.999 -525
c14.667 15.333 22 55.666 22 120.999v404h432v-281c0 -104 -19 -182.333 -57 -235c-40.667 -60.667 -126 -125.667 -256 -195c191.333 -255.333 313.666 -426 366.999 -512v-43zM796.002 -195.998c0 -43.333 -21.333 -65 -64 -65c-43.333 0 -65 21.667 -65 65
c0 42.667 21.667 64 65 64c42.667 0 64 -21.333 64 -64z" />
    <glyph glyph-name="betdagesh" unicode="&#xfb31;" horiz-adv-x="1298" 
d="M1218 0h-1151v319h557c32.667 15.333 56.5 39.666 71.5 72.999s22.5 111 22.5 233c0 134.667 -17.667 221.834 -53 261.501s-113 59.5 -233 59.5h-359v320h574c180 0 309.167 -37 387.5 -111s117.5 -203.667 117.5 -389c0 -160 -27 -275.333 -81 -346
c-15.333 -19.333 -42.666 -47.333 -81.999 -84c-4.66699 -2.66699 -6 -6 -4 -10c1.33301 -4.66699 4.66602 -7 9.99902 -7h223v-319zM399 630c-0.666992 -46.667 -25.666 -72 -74.999 -76c-50 4.66699 -76.333 28.667 -79 72c3.33301 44 28.666 68.667 75.999 74
c47.333 -4 73.333 -27.333 78 -70z" />
    <glyph glyph-name="gimeldagesh" unicode="&#xfb32;" horiz-adv-x="1003" 
d="M933 0l-375 0.000976562c-16 83.333 -27 180.333 -33 291c-1.33301 5.33301 -5.33301 8.66602 -12 9.99902c-8 1.33301 -14 -2 -18 -10c-32.667 -70 -54.667 -114.333 -66 -133c-26 -46.667 -55.333 -85.667 -88 -117c-46.667 -45.333 -113 -68 -199 -68
c-34 0 -68.667 8.33301 -104 25l37 352c12 -5.33301 27.667 -8 47 -8c152.667 0 272 86 358 258v158c0 72 -14 121.333 -42 148s-78 40 -150 40h-172v320h340c164 0 278.667 -31.833 344 -95.5s98 -177.5 98 -341.5v-387c0 -132 11.667 -265.667 35 -401v-41zM331 669.001
c-0.666992 -46.667 -25.666 -72 -74.999 -76c-50 4.66699 -76.333 28.667 -79 72c3.33301 44 28.666 68.667 75.999 74c47.333 -4 73.333 -27.333 78 -70z" />
    <glyph glyph-name="daletdagesh" unicode="&#xfb33;" horiz-adv-x="1290" 
d="M1200 946h-154v-946h-424v946h-565v320h1143v-320zM399 477c-0.666992 -46.667 -25.666 -72 -74.999 -76c-50 4.66699 -76.333 28.667 -79 72c3.33301 44 28.666 68.667 75.999 74c47.333 -4 73.333 -27.333 78 -70z" />
    <glyph glyph-name="hedagesh" unicode="&#xfb34;" horiz-adv-x="1464" 
d="M1357 0h-425.998v678c0 98 -20.333 166.833 -61 206.5s-110.334 59.5 -209.001 59.5h-561v322h748c185.333 0 317.666 -41 396.999 -123c74.667 -78 112 -205.667 112 -383v-760zM534.002 0h-426v653l426 76v-729zM809.002 479
c-0.666992 -46.667 -25.666 -72 -74.999 -76c-50 4.66699 -76.333 28.667 -79 72c3.33301 44 28.666 68.667 75.999 74c47.333 -4 73.333 -27.333 78 -70z" />
    <glyph glyph-name="vavdagesh" unicode="&#xfb35;" horiz-adv-x="645" 
d="M532 0h-426v1266h426v-1266zM62 676c-0.666992 -46.667 -25.666 -72 -74.999 -76c-50 4.66699 -76.333 28.667 -79 72c3.33301 44 28.666 68.667 75.999 74c47.333 -4 73.333 -27.333 78 -70z" />
    <glyph glyph-name="zayindagesh" unicode="&#xfb36;" horiz-adv-x="878" 
d="M827 1266l-43.001 -318.001h-110c-46.667 -46 -70 -115.667 -70 -209c0 -43.333 3.33301 -108.666 10 -195.999l41 -543h-426l-41 446c-4 38.667 -6 73 -6 103c0 88.667 15.333 163 46 223s83 113.333 157 160c5.33301 4 7.33301 7.33301 6 10s-4.66602 4 -9.99902 4
h-330v320h776zM118.999 497.999c-0.666992 -46.667 -25.666 -72 -74.999 -76c-50 4.66699 -76.333 28.667 -79 72c3.33301 44 28.666 68.667 75.999 74c47.333 -4 73.333 -27.333 78 -70z" />
    <glyph glyph-name="tetdagesh" unicode="&#xfb38;" horiz-adv-x="1519" 
d="M1435 616c0 -160.667 -32 -292.334 -96 -395.001c-105.333 -168 -304.666 -252 -597.999 -252c-222.667 0 -386.334 50 -491.001 150c-100 96.667 -150 244 -150 442v705h428v-754c0 -150 76.333 -225 229 -225c82 0 141.667 15 179 45c44.667 38 67 106.333 67 205v151
c0 102.667 -12.333 172.334 -37 209.001c-18.667 26 -50 39 -94 39c-38 0 -77.667 -15 -119 -45l-80 301c72.667 60 171 90 295 90c148 0 259.333 -36 334 -108c88.667 -86.667 133 -228 133 -424v-134zM840 620c-0.666992 -46.667 -25.666 -72 -74.999 -76
c-50 4.66699 -76.333 28.667 -79 72c3.33301 44 28.666 68.667 75.999 74c47.333 -4 73.333 -27.333 78 -70z" />
    <glyph glyph-name="yoddagesh" unicode="&#xfb39;" horiz-adv-x="630" 
d="M524 643l-428 -111v734h428v-623zM50 901c-0.666992 -46.667 -25.666 -72 -74.999 -76c-50 4.66699 -76.333 28.667 -79 72c3.33301 44 28.666 68.667 75.999 74c47.333 -4 73.333 -27.333 78 -70z" />
    <glyph glyph-name="finalkafdagesh" unicode="&#xfb3a;" horiz-adv-x="1177" 
d="M1073 -362l-427.999 0.000976562v1026c0 99.333 -19.833 170.833 -59.5 214.5s-107.834 65.5 -204.501 65.5h-330v322h475c203.333 0 348 -50.667 434 -152c75.333 -88.667 113 -227.334 113 -416.001v-1060zM366.001 596.001c-0.666992 -46.667 -25.666 -72 -74.999 -76
c-50 4.66699 -76.333 28.667 -79 72c3.33301 44 28.666 68.667 75.999 74c47.333 -4 73.333 -27.333 78 -70z" />
    <glyph glyph-name="kafdagesh" unicode="&#xfb3b;" horiz-adv-x="1204" 
d="M1124 645c0 -430 -218.666 -645 -655.999 -645h-393v319h307c118.667 0 200.167 22.667 244.5 68s66.5 128 66.5 248c0 112 -24.833 191.5 -74.5 238.5s-131.834 70.5 -246.501 70.5h-297v322h399c220 0 382 -48 486 -144c109.333 -100.667 164 -259.667 164 -477z
M369.001 627c-0.666992 -46.667 -25.666 -72 -74.999 -76c-50 4.66699 -76.333 28.667 -79 72c3.33301 44 28.666 68.667 75.999 74c47.333 -4 73.333 -27.333 78 -70z" />
    <glyph glyph-name="lameddagesh" unicode="&#xfb3c;" horiz-adv-x="1234" 
d="M1169 821c0 -198 -90 -381 -270 -549c-140.667 -130.667 -274.667 -222 -402 -274l-180 256c104 72 189.333 142.333 256 211c100 104 150 200.333 150 289v4c0 124 -71 186 -213 186h-453v619h428v-297h184c142 0 250 -24.667 324 -74
c117.333 -79.333 176 -201 176 -365v-6zM382 642c-0.666992 -46.667 -25.666 -72 -74.999 -76c-50 4.66699 -76.333 28.667 -79 72c3.33301 44 28.666 68.667 75.999 74c47.333 -4 73.333 -27.333 78 -70z" />
    <glyph glyph-name="memdagesh" unicode="&#xfb3e;" horiz-adv-x="1542" 
d="M1474 633c0 -173.333 -22 -301.667 -66 -385c-91.333 -174.667 -257.666 -262 -498.999 -262c-106.667 0 -184.667 11.333 -234 34l29 293c34 -13.333 75 -20 123 -20c100.667 0 164 34 190 102c16.667 45.333 25 119.666 25 222.999c0 128.667 -22.667 219 -68 271
c-36.667 42 -93.334 63 -170.001 63h-121c-68 -34 -111 -139.667 -129 -317l-63 -635h-414v59l51 508c10 97.333 32.667 173.333 68 228c31.333 48.667 80.333 92.334 147 131.001c7.33301 4 9.33301 8 6 12c-1.33301 5.33301 -6 8 -14 8h-262v320h782
c240.667 0 406.667 -58.667 498 -176c45.333 -57.333 76.833 -119.5 94.5 -186.5s26.5 -157.167 26.5 -270.5zM877 628.999c-0.666992 -46.667 -25.666 -72 -74.999 -76c-50 4.66699 -76.333 28.667 -79 72c3.33301 44 28.666 68.667 75.999 74
c47.333 -4 73.333 -27.333 78 -70z" />
    <glyph glyph-name="nundagesh" unicode="&#xfb40;" horiz-adv-x="892" 
d="M784 0l-731 -0.000976562v315h313v443c0 68 -12.833 116.667 -38.5 146s-73.5 44 -143.5 44h-123v318h344c136.667 0 235 -32.333 295 -97c56 -61.333 84 -158.666 84 -291.999v-877zM262 624.999c-0.666992 -46.667 -25.666 -72 -74.999 -76
c-50 4.66699 -76.333 28.667 -79 72c3.33301 44 28.666 68.667 75.999 74c47.333 -4 73.333 -27.333 78 -70z" />
    <glyph glyph-name="samekhdagesh" unicode="&#xfb41;" horiz-adv-x="1527" 
d="M1451 635c0 -203.333 -64.167 -365.168 -192.5 -485.501s-297.5 -180.5 -507.5 -180.5c-207.333 0 -369.333 50.5 -486 151.5s-175 241.833 -175 422.5c0 124 34.667 224.333 104 301c30 32.667 63.333 59.334 100 80.001c7.33301 4 9.33301 8 6 12
c-1.33301 5.33301 -5.33301 8 -12 8h-221v322h729c225.333 0 390.833 -53.667 496.5 -161s158.5 -264 158.5 -470zM1019 617.998c0 131.333 -27.333 222.332 -82 272.999c-40.667 38 -104 57 -190 57h-105c-54 -31.333 -90 -79.666 -108 -144.999
c-10.667 -41.333 -16 -104.333 -16 -189c0 -220.667 81 -331 243 -331c172 0 258 111.667 258 335zM849 618.997c-0.666992 -46.667 -25.666 -72 -74.999 -76c-50 4.66699 -76.333 28.667 -79 72c3.33301 44 28.666 68.667 75.999 74c47.333 -4 73.333 -27.333 78 -70z" />
    <glyph glyph-name="finalpedagesh" unicode="&#xfb43;" horiz-adv-x="1433" 
d="M1327 -360l-430 -0.00292969v1099c0 142 -71 213 -213 213h-80c-70 -43.333 -105 -106.666 -105 -189.999c0 -54.667 22.667 -110 68 -166c10.667 -14 10 -24.333 -2 -31l-344 -190c-90 64 -135 156 -135 276c0 102.667 66 194.334 198 275.001c4.66699 2.66699 6 6 4 10
c-1.33301 5.33301 -4.66602 8 -9.99902 8h-223v322h705c207.333 0 353.666 -40.667 438.999 -122s128 -223.666 128 -426.999v-1077zM779 411.997c-0.666992 -46.667 -25.666 -72 -74.999 -76c-50 4.66699 -76.333 28.667 -79 72c3.33301 44 28.666 68.667 75.999 74
c47.333 -4 73.333 -27.333 78 -70z" />
    <glyph glyph-name="pedagesh" unicode="&#xfb44;" horiz-adv-x="1460" 
d="M1391 645c0 -204.667 -53.668 -363.332 -161.001 -475.999s-257.333 -169 -450 -169h-680v319h600c104 0 173.333 22.667 208 68s52 131.333 52 258c0 126 -21 212.667 -63 260c-35.333 40 -94 60 -176 60h-70c-39.333 -15.333 -70 -40 -92 -74
c-20.667 -28.667 -31 -57.334 -31 -86.001c0 -64 26 -115.333 78 -154c16.667 -12 16.667 -22 0 -30l-344 -187c-38 20.667 -70.333 53.5 -97 98.5s-40 91.5 -40 139.5c0 98 58.667 184 176 258c2.66699 1.33301 4 4 4 8c-1.33301 5.33301 -4.66602 8 -9.99902 8h-207v320
h702c400.667 0 601 -207 601 -621zM824.999 646.002c-0.666992 -46.667 -25.666 -72 -74.999 -76c-50 4.66699 -76.333 28.667 -79 72c3.33301 44 28.666 68.667 75.999 74c47.333 -4 73.333 -27.333 78 -70z" />
    <glyph glyph-name="tsadidagesh" unicode="&#xfb46;" horiz-adv-x="1378" 
d="M1281 985c0 -88.667 -18.999 -158.998 -56.999 -210.998c-42 -56 -124.667 -117.333 -248 -184c57.333 -68.667 121.666 -141.667 192.999 -219c34 -38.667 55.167 -65.5 63.5 -80.5s12.5 -37.5 12.5 -67.5v-223h-1147v319h641c9.33301 0 14 4.33301 14 13
c0 6.66699 -6.66699 12.667 -20 18c-1.33301 1.33301 -11.666 9.16602 -30.999 23.499s-33 25.166 -41 32.499c-100 74.667 -226.333 209.667 -379 405c-140.667 180 -226.667 319.333 -258 418v37h455c69.333 -142 162.666 -286 279.999 -432
c12.667 -16.667 32.667 -40 60 -70c20 10.667 30 74 30 190v312h432v-281zM271.001 650.002c-0.666992 -46.667 -25.666 -72 -74.999 -76c-50 4.66699 -76.333 28.667 -79 72c3.33301 44 28.666 68.667 75.999 74c47.333 -4 73.333 -27.333 78 -70z" />
    <glyph glyph-name="qofdagesh" unicode="&#xfb47;" horiz-adv-x="1521" 
d="M1443 760c0 -195.333 -72.334 -363.334 -217.001 -504.001c-129.333 -125.333 -274 -210.666 -434 -255.999l-129 274c62.667 27.333 123.5 64.333 182.5 111s99.833 91 122.5 133c28.667 52 43 105.333 43 160c0 104 -36.667 177.667 -110 221
c-50.667 30 -126 45 -226 45h-575v322h715c230.667 0 394.334 -48 491.001 -144c91.333 -90 137 -210.667 137 -362zM533.999 -369.001h-422v1041l422 78v-1119zM838.999 638.999c-0.666992 -46.667 -25.666 -72 -74.999 -76c-50 4.66699 -76.333 28.667 -79 72
c3.33301 44 28.666 68.667 75.999 74c47.333 -4 73.333 -27.333 78 -70z" />
    <glyph glyph-name="reshdagesh" unicode="&#xfb48;" horiz-adv-x="1167" 
d="M1073 0h-428v672c0 96.667 -15.667 164 -47 202c-38 46.667 -109 70 -213 70h-342v322h504c200.667 0 340.667 -43.667 420 -131c70.667 -79.333 106 -213.333 106 -402v-733zM381 467c-0.666992 -46.667 -25.666 -72 -74.999 -76c-50 4.66699 -76.333 28.667 -79 72
c3.33301 44 28.666 68.667 75.999 74c47.333 -4 73.333 -27.333 78 -70z" />
    <glyph glyph-name="shindagesh" unicode="&#xfb49;" horiz-adv-x="1884" 
d="M1771 680c0 -229.333 -60.001 -398.666 -180.001 -507.999c-84.667 -76.667 -197.334 -129.334 -338.001 -158.001c-98 -20 -225 -30 -381 -30c-297.333 0 -505.666 60.667 -624.999 182c-98 100.667 -147 255 -147 463v637h424v-615c12 -4 22.333 -6 31 -6
c120 0 180 91 180 273v348h403v-346c0 -157.333 -43 -272.333 -129 -345c-78.667 -66.667 -194 -100 -346 -100c-38 0 -83.667 4.66699 -137 14c8 -58.667 26.333 -103 55 -133c50.667 -53.333 148.334 -80 293.001 -80c192.667 0 321.667 32.333 387 97
c57.333 56 86 154.333 86 295v598h424v-586zM1309 779c-0.666992 -46.667 -25.666 -72 -74.999 -76c-50 4.66699 -76.333 28.667 -79 72c3.33301 44 28.666 68.667 75.999 74c47.333 -4 73.333 -27.333 78 -70z" />
    <glyph glyph-name="tavdages" unicode="&#xfb4a;" horiz-adv-x="1560" 
d="M1451 0h-426v737c0 78 -11.5 132 -34.5 162s-72.833 45 -149.5 45h-199v-553c0 -147.333 -33 -252 -99 -314s-170.667 -93 -314 -93c-91.333 0 -159 9.33301 -203 28v305c27.333 -10.667 59.333 -16 96 -16c62.667 0 94 36.333 94 109v856h750
c181.333 0 307.5 -33.5 378.5 -100.5s106.5 -187.833 106.5 -362.5v-803zM917 481c-0.666992 -46.667 -25.666 -72 -74.999 -76c-50 4.66699 -76.333 28.667 -79 72c3.33301 44 28.666 68.667 75.999 74c47.333 -4 73.333 -27.333 78 -70z" />
    <glyph glyph-name="vavholam" unicode="&#xfb4b;" horiz-adv-x="645" 
d="M532 0h-426v1266h426v-1266zM382 1501c-0.666992 -46.667 -25.666 -72 -74.999 -76c-50 4.66699 -76.333 28.667 -79 72c3.33301 44 28.666 68.667 75.999 74c47.333 -4 73.333 -27.333 78 -70z" />
    <glyph glyph-name="betrafe" unicode="&#xfb4c;" horiz-adv-x="1298" 
d="M1218 0h-1151v319h557c32.667 15.333 56.5 39.666 71.5 72.999s22.5 111 22.5 233c0 134.667 -17.667 221.834 -53 261.501s-113 59.5 -233 59.5h-359v320h574c180 0 309.167 -37 387.5 -111s117.5 -203.667 117.5 -389c0 -160 -27 -275.333 -81 -346
c-15.333 -19.333 -42.666 -47.333 -81.999 -84c-4.66699 -2.66699 -6 -6 -4 -10c1.33301 -4.66699 4.66602 -7 9.99902 -7h223v-319zM800 1431c0 -18 -8 -27 -24 -27h-373c-15.333 0 -23 9 -23 27v43c0 18.667 7.66699 28 23 28h373c16 0 24 -9.33301 24 -28v-43z" />
    <glyph glyph-name=".null" horiz-adv-x="0" 
 />
    <glyph glyph-name="nonmarkingreturn" horiz-adv-x="512" 
 />
    <glyph glyph-name="glyph3" horiz-adv-x="0" 
 />
    <glyph glyph-name="glyph4" horiz-adv-x="0" 
 />
    <glyph glyph-name="glyph5" horiz-adv-x="0" 
 />
    <glyph glyph-name="glyph6" horiz-adv-x="0" 
 />
    <glyph glyph-name="glyph7" horiz-adv-x="0" 
 />
    <glyph glyph-name="glyph8" horiz-adv-x="0" 
 />
    <glyph glyph-name="glyph9" horiz-adv-x="0" 
 />
    <glyph glyph-name="glyph10" horiz-adv-x="0" 
 />
    <glyph glyph-name="glyph11" horiz-adv-x="0" 
 />
    <glyph glyph-name="glyph12" horiz-adv-x="0" 
 />
    <glyph glyph-name="glyph13" horiz-adv-x="0" 
 />
    <glyph glyph-name="glyph14" horiz-adv-x="0" 
 />
    <glyph glyph-name="glyph15" horiz-adv-x="0" 
 />
    <glyph glyph-name="glyph16" horiz-adv-x="0" 
 />
    <glyph glyph-name="glyph17" horiz-adv-x="0" 
 />
    <glyph glyph-name="glyph18" horiz-adv-x="0" 
 />
    <glyph glyph-name="glyph19" horiz-adv-x="0" 
 />
    <glyph glyph-name="glyph20" horiz-adv-x="0" 
 />
    <glyph glyph-name="glyph21" horiz-adv-x="0" 
 />
    <glyph glyph-name="glyph22" horiz-adv-x="0" 
 />
    <glyph glyph-name="glyph23" horiz-adv-x="0" 
 />
    <glyph glyph-name="glyph24" horiz-adv-x="0" 
 />
    <glyph glyph-name="glyph25" horiz-adv-x="0" 
 />
    <glyph glyph-name="glyph26" horiz-adv-x="0" 
 />
    <glyph glyph-name="glyph27" horiz-adv-x="0" 
 />
    <glyph glyph-name="glyph28" horiz-adv-x="0" 
 />
    <glyph glyph-name="glyph29" horiz-adv-x="0" 
 />
    <glyph glyph-name="glyph30" horiz-adv-x="0" 
 />
    <glyph glyph-name="glyph31" horiz-adv-x="0" 
 />
    <glyph glyph-name="kafrafe" horiz-adv-x="1204" 
d="M1124 645c0 -430 -218.666 -645 -655.999 -645h-393v319h307c118.667 0 200.167 22.667 244.5 68s66.5 128 66.5 248c0 112 -24.833 191.5 -74.5 238.5s-131.834 70.5 -246.501 70.5h-297v322h399c220 0 382 -48 486 -144c109.333 -100.667 164 -259.667 164 -477z
M780.001 1431c0 -18 -8 -27 -24 -27h-373c-15.333 0 -23 9 -23 27v43c0 18.667 7.66699 28 23 28h373c16 0 24 -9.33301 24 -28v-43z" />
    <glyph glyph-name="perafe" horiz-adv-x="1460" 
d="M1391 645c0 -204.667 -53.668 -363.332 -161.001 -475.999s-257.333 -169 -450 -169h-680v319h600c104 0 173.333 22.667 208 68s52 131.333 52 258c0 126 -21 212.667 -63 260c-35.333 40 -94 60 -176 60h-70c-39.333 -15.333 -70 -40 -92 -74
c-20.667 -28.667 -31 -57.334 -31 -86.001c0 -64 26 -115.333 78 -154c16.667 -12 16.667 -22 0 -30l-344 -187c-38 20.667 -70.333 53.5 -97 98.5s-40 91.5 -40 139.5c0 98 58.667 184 176 258c2.66699 1.33301 4 4 4 8c-1.33301 5.33301 -4.66602 8 -9.99902 8h-207v320
h702c400.667 0 601 -207 601 -621zM889.999 1431c0 -18 -8 -27 -24 -27h-373c-15.333 0 -23 9 -23 27v43c0 18.667 7.66699 28 23 28h373c16 0 24 -9.33301 24 -28v-43z" />
    <glyph glyph-name="aleflamed" 
d="M227 227v285l51 -4l10 98l-268 -61v420l268 -62l-10 103l-51 -5v285l22 -2l-2 21h285l-4 -50l100 -10l-61 271h420l-62 -271l101 10l-5 50h285l-2 -21l23 2v-285l-52 5l-10 -103l271 62v-420l-271 61l10 -98l52 4v-285l-23 2l2 -24h-285l7 53l-103 10l62 -268h-420
l61 268l-102 -10l6 -53h-285l2 24zM925 1040v-137h135l-12 125zM628 1040l-123 -12l-12 -125h135v137zM925 473l123 12l12 121h-135v-133zM493 606l12 -121l123 -12v133h-135z" />
    <glyph glyph-name="vavshindot" horiz-adv-x="645" 
d="M532 0h-426v1266h426v-1266zM82 1501c-0.666992 -46.667 -25.666 -72 -74.999 -76c-50 4.66699 -76.333 28.667 -79 72c3.33301 44 28.666 68.667 75.999 74c47.333 -4 73.333 -27.333 78 -70z" />
    <glyph glyph-name="finalkafsheva" horiz-adv-x="1177" 
d="M1073 -362l-427.999 0.000976562v1026c0 99.333 -19.833 170.833 -59.5 214.5s-107.834 65.5 -204.501 65.5h-330v322h475c203.333 0 348 -50.667 434 -152c75.333 -88.667 113 -227.334 113 -416.001v-1060zM386.001 438.001c0 -43.333 -21 -65 -63 -65
c-44 0 -66 21.667 -66 65c0 42.667 22 64 66 64c42 0 63 -21.333 63 -64zM391.001 239.001c0 -43.333 -22 -65 -66 -65c-42 0 -63 21.667 -63 65c0 42.667 21 64 63 64c44 0 66 -21.333 66 -64z" />
    <glyph glyph-name="finalkafqamats" horiz-adv-x="1177" 
d="M1073 -362l-427.999 0.000976562v1026c0 99.333 -19.833 170.833 -59.5 214.5s-107.834 65.5 -204.501 65.5h-330v322h475c203.333 0 348 -50.667 434 -152c75.333 -88.667 113 -227.334 113 -416.001v-1060zM498.001 422.001c0 -10 -2.66699 -21.9961 -8 -35.9961h-145
v-9c0 -24.667 7 -48.334 21 -71.001c17.333 -26.667 26 -47 26 -61c0 -43.333 -23 -65 -69 -65c-44 0 -66 23 -66 69c0 11.333 5.66699 26.666 17 45.999c14 23.333 22 38.666 24 45.999c4 12.667 6 21 6 25v20h-143c-6.66699 10.667 -10 24 -10 40
c0 14.667 3.33301 27 10 37h329c5.33301 -12.667 8 -26.334 8 -41.001z" />
    <glyph glyph-name="lamedholam" horiz-adv-x="1234" 
d="M1169 821c0 -198 -90 -381 -270 -549c-140.667 -130.667 -274.667 -222 -402 -274l-180 256c104 72 189.333 142.333 256 211c100 104 150 200.333 150 289v4c0 124 -71 186 -213 186h-453v619h428v-297h184c142 0 250 -24.667 324 -74
c117.333 -79.333 176 -201 176 -365v-6zM12 1501c-0.666992 -46.667 -25.666 -72 -74.999 -76c-50 4.66699 -76.333 28.667 -79 72c3.33301 44 28.666 68.667 75.999 74c47.333 -4 73.333 -27.333 78 -70z" />
    <glyph glyph-name="lamedholamdagesh" horiz-adv-x="1234" 
d="M1169 821c0 -198 -90 -381 -270 -549c-140.667 -130.667 -274.667 -222 -402 -274l-180 256c104 72 189.333 142.333 256 211c100 104 150 200.333 150 289v4c0 124 -71 186 -213 186h-453v619h428v-297h184c142 0 250 -24.667 324 -74
c117.333 -79.333 176 -201 176 -365v-6zM382 642c-0.666992 -46.667 -25.666 -72 -74.999 -76c-50 4.66699 -76.333 28.667 -79 72c3.33301 44 28.666 68.667 75.999 74c47.333 -4 73.333 -27.333 78 -70zM12.001 1501c-0.666992 -46.667 -25.666 -72 -74.999 -76
c-50 4.66699 -76.333 28.667 -79 72c3.33301 44 28.666 68.667 75.999 74c47.333 -4 73.333 -27.333 78 -70z" />
    <glyph glyph-name="glyph352" 
d="M227 227v285l51 -4l10 98l-268 -61v420l268 -62l-10 103l-51 -5v285l22 -2l-2 21h285l-4 -50l100 -10l-61 271h420l-62 -271l101 10l-5 50h285l-2 -21l23 2v-285l-52 5l-10 -103l271 62v-420l-271 61l10 -98l52 4v-285l-23 2l2 -24h-285l7 53l-103 10l62 -268h-420
l61 268l-102 -10l6 -53h-285l2 24zM925 1040v-137h135l-12 125zM628 1040l-123 -12l-12 -125h135v137zM925 473l123 12l12 121h-135v-133zM493 606l12 -121l123 -12v133h-135z" />
    <glyph glyph-name="glyph353" 
d="M227 227v285l51 -4l10 98l-268 -61v420l268 -62l-10 103l-51 -5v285l22 -2l-2 21h285l-4 -50l100 -10l-61 271h420l-62 -271l101 10l-5 50h285l-2 -21l23 2v-285l-52 5l-10 -103l271 62v-420l-271 61l10 -98l52 4v-285l-23 2l2 -24h-285l7 53l-103 10l62 -268h-420
l61 268l-102 -10l6 -53h-285l2 24zM925 1040v-137h135l-12 125zM628 1040l-123 -12l-12 -125h135v137zM925 473l123 12l12 121h-135v-133zM493 606l12 -121l123 -12v133h-135z" />
    <glyph glyph-name="glyph354" 
d="M227 227v285l51 -4l10 98l-268 -61v420l268 -62l-10 103l-51 -5v285l22 -2l-2 21h285l-4 -50l100 -10l-61 271h420l-62 -271l101 10l-5 50h285l-2 -21l23 2v-285l-52 5l-10 -103l271 62v-420l-271 61l10 -98l52 4v-285l-23 2l2 -24h-285l7 53l-103 10l62 -268h-420
l61 268l-102 -10l6 -53h-285l2 24zM925 1040v-137h135l-12 125zM628 1040l-123 -12l-12 -125h135v137zM925 473l123 12l12 121h-135v-133zM493 606l12 -121l123 -12v133h-135z" />
    <glyph glyph-name="glyph355" 
d="M227 227v285l51 -4l10 98l-268 -61v420l268 -62l-10 103l-51 -5v285l22 -2l-2 21h285l-4 -50l100 -10l-61 271h420l-62 -271l101 10l-5 50h285l-2 -21l23 2v-285l-52 5l-10 -103l271 62v-420l-271 61l10 -98l52 4v-285l-23 2l2 -24h-285l7 53l-103 10l62 -268h-420
l61 268l-102 -10l6 -53h-285l2 24zM925 1040v-137h135l-12 125zM628 1040l-123 -12l-12 -125h135v137zM925 473l123 12l12 121h-135v-133zM493 606l12 -121l123 -12v133h-135z" />
    <glyph glyph-name="glyph356" 
d="M227 227v285l51 -4l10 98l-268 -61v420l268 -62l-10 103l-51 -5v285l22 -2l-2 21h285l-4 -50l100 -10l-61 271h420l-62 -271l101 10l-5 50h285l-2 -21l23 2v-285l-52 5l-10 -103l271 62v-420l-271 61l10 -98l52 4v-285l-23 2l2 -24h-285l7 53l-103 10l62 -268h-420
l61 268l-102 -10l6 -53h-285l2 24zM925 1040v-137h135l-12 125zM628 1040l-123 -12l-12 -125h135v137zM925 473l123 12l12 121h-135v-133zM493 606l12 -121l123 -12v133h-135z" />
    <glyph glyph-name="glyph357" 
d="M227 227v285l51 -4l10 98l-268 -61v420l268 -62l-10 103l-51 -5v285l22 -2l-2 21h285l-4 -50l100 -10l-61 271h420l-62 -271l101 10l-5 50h285l-2 -21l23 2v-285l-52 5l-10 -103l271 62v-420l-271 61l10 -98l52 4v-285l-23 2l2 -24h-285l7 53l-103 10l62 -268h-420
l61 268l-102 -10l6 -53h-285l2 24zM925 1040v-137h135l-12 125zM628 1040l-123 -12l-12 -125h135v137zM925 473l123 12l12 121h-135v-133zM493 606l12 -121l123 -12v133h-135z" />
    <glyph glyph-name="glyph358" 
d="M227 227v285l51 -4l10 98l-268 -61v420l268 -62l-10 103l-51 -5v285l22 -2l-2 21h285l-4 -50l100 -10l-61 271h420l-62 -271l101 10l-5 50h285l-2 -21l23 2v-285l-52 5l-10 -103l271 62v-420l-271 61l10 -98l52 4v-285l-23 2l2 -24h-285l7 53l-103 10l62 -268h-420
l61 268l-102 -10l6 -53h-285l2 24zM925 1040v-137h135l-12 125zM628 1040l-123 -12l-12 -125h135v137zM925 473l123 12l12 121h-135v-133zM493 606l12 -121l123 -12v133h-135z" />
    <glyph glyph-name="glyph359" 
d="M227 227v285l51 -4l10 98l-268 -61v420l268 -62l-10 103l-51 -5v285l22 -2l-2 21h285l-4 -50l100 -10l-61 271h420l-62 -271l101 10l-5 50h285l-2 -21l23 2v-285l-52 5l-10 -103l271 62v-420l-271 61l10 -98l52 4v-285l-23 2l2 -24h-285l7 53l-103 10l62 -268h-420
l61 268l-102 -10l6 -53h-285l2 24zM925 1040v-137h135l-12 125zM628 1040l-123 -12l-12 -125h135v137zM925 473l123 12l12 121h-135v-133zM493 606l12 -121l123 -12v133h-135z" />
    <glyph glyph-name="glyph360" 
d="M227 227v285l51 -4l10 98l-268 -61v420l268 -62l-10 103l-51 -5v285l22 -2l-2 21h285l-4 -50l100 -10l-61 271h420l-62 -271l101 10l-5 50h285l-2 -21l23 2v-285l-52 5l-10 -103l271 62v-420l-271 61l10 -98l52 4v-285l-23 2l2 -24h-285l7 53l-103 10l62 -268h-420
l61 268l-102 -10l6 -53h-285l2 24zM925 1040v-137h135l-12 125zM628 1040l-123 -12l-12 -125h135v137zM925 473l123 12l12 121h-135v-133zM493 606l12 -121l123 -12v133h-135z" />
    <glyph glyph-name="glyph361" 
d="M227 227v285l51 -4l10 98l-268 -61v420l268 -62l-10 103l-51 -5v285l22 -2l-2 21h285l-4 -50l100 -10l-61 271h420l-62 -271l101 10l-5 50h285l-2 -21l23 2v-285l-52 5l-10 -103l271 62v-420l-271 61l10 -98l52 4v-285l-23 2l2 -24h-285l7 53l-103 10l62 -268h-420
l61 268l-102 -10l6 -53h-285l2 24zM925 1040v-137h135l-12 125zM628 1040l-123 -12l-12 -125h135v137zM925 473l123 12l12 121h-135v-133zM493 606l12 -121l123 -12v133h-135z" />
    <glyph glyph-name="glyph362" 
d="M227 227v285l51 -4l10 98l-268 -61v420l268 -62l-10 103l-51 -5v285l22 -2l-2 21h285l-4 -50l100 -10l-61 271h420l-62 -271l101 10l-5 50h285l-2 -21l23 2v-285l-52 5l-10 -103l271 62v-420l-271 61l10 -98l52 4v-285l-23 2l2 -24h-285l7 53l-103 10l62 -268h-420
l61 268l-102 -10l6 -53h-285l2 24zM925 1040v-137h135l-12 125zM628 1040l-123 -12l-12 -125h135v137zM925 473l123 12l12 121h-135v-133zM493 606l12 -121l123 -12v133h-135z" />
    <glyph glyph-name="glyph363" 
d="M227 227v285l51 -4l10 98l-268 -61v420l268 -62l-10 103l-51 -5v285l22 -2l-2 21h285l-4 -50l100 -10l-61 271h420l-62 -271l101 10l-5 50h285l-2 -21l23 2v-285l-52 5l-10 -103l271 62v-420l-271 61l10 -98l52 4v-285l-23 2l2 -24h-285l7 53l-103 10l62 -268h-420
l61 268l-102 -10l6 -53h-285l2 24zM925 1040v-137h135l-12 125zM628 1040l-123 -12l-12 -125h135v137zM925 473l123 12l12 121h-135v-133zM493 606l12 -121l123 -12v133h-135z" />
    <glyph glyph-name="zerowidthnonjoiner" 
d="M227 227v285l51 -4l10 98l-268 -61v420l268 -62l-10 103l-51 -5v285l22 -2l-2 21h285l-4 -50l100 -10l-61 271h420l-62 -271l101 10l-5 50h285l-2 -21l23 2v-285l-52 5l-10 -103l271 62v-420l-271 61l10 -98l52 4v-285l-23 2l2 -24h-285l7 53l-103 10l62 -268h-420
l61 268l-102 -10l6 -53h-285l2 24zM925 1040v-137h135l-12 125zM628 1040l-123 -12l-12 -125h135v137zM925 473l123 12l12 121h-135v-133zM493 606l12 -121l123 -12v133h-135z" />
    <glyph glyph-name="uni0591" 
d="M227 227v285l51 -4l10 98l-268 -61v420l268 -62l-10 103l-51 -5v285l22 -2l-2 21h285l-4 -50l100 -10l-61 271h420l-62 -271l101 10l-5 50h285l-2 -21l23 2v-285l-52 5l-10 -103l271 62v-420l-271 61l10 -98l52 4v-285l-23 2l2 -24h-285l7 53l-103 10l62 -268h-420
l61 268l-102 -10l6 -53h-285l2 24zM925 1040v-137h135l-12 125zM628 1040l-123 -12l-12 -125h135v137zM925 473l123 12l12 121h-135v-133zM493 606l12 -121l123 -12v133h-135z" />
    <glyph glyph-name="uni0592" 
d="M227 227v285l51 -4l10 98l-268 -61v420l268 -62l-10 103l-51 -5v285l22 -2l-2 21h285l-4 -50l100 -10l-61 271h420l-62 -271l101 10l-5 50h285l-2 -21l23 2v-285l-52 5l-10 -103l271 62v-420l-271 61l10 -98l52 4v-285l-23 2l2 -24h-285l7 53l-103 10l62 -268h-420
l61 268l-102 -10l6 -53h-285l2 24zM925 1040v-137h135l-12 125zM628 1040l-123 -12l-12 -125h135v137zM925 473l123 12l12 121h-135v-133zM493 606l12 -121l123 -12v133h-135z" />
    <glyph glyph-name="uni0593" 
d="M227 227v285l51 -4l10 98l-268 -61v420l268 -62l-10 103l-51 -5v285l22 -2l-2 21h285l-4 -50l100 -10l-61 271h420l-62 -271l101 10l-5 50h285l-2 -21l23 2v-285l-52 5l-10 -103l271 62v-420l-271 61l10 -98l52 4v-285l-23 2l2 -24h-285l7 53l-103 10l62 -268h-420
l61 268l-102 -10l6 -53h-285l2 24zM925 1040v-137h135l-12 125zM628 1040l-123 -12l-12 -125h135v137zM925 473l123 12l12 121h-135v-133zM493 606l12 -121l123 -12v133h-135z" />
    <glyph glyph-name="uni0594" 
d="M227 227v285l51 -4l10 98l-268 -61v420l268 -62l-10 103l-51 -5v285l22 -2l-2 21h285l-4 -50l100 -10l-61 271h420l-62 -271l101 10l-5 50h285l-2 -21l23 2v-285l-52 5l-10 -103l271 62v-420l-271 61l10 -98l52 4v-285l-23 2l2 -24h-285l7 53l-103 10l62 -268h-420
l61 268l-102 -10l6 -53h-285l2 24zM925 1040v-137h135l-12 125zM628 1040l-123 -12l-12 -125h135v137zM925 473l123 12l12 121h-135v-133zM493 606l12 -121l123 -12v133h-135z" />
    <glyph glyph-name="uni0595" 
d="M227 227v285l51 -4l10 98l-268 -61v420l268 -62l-10 103l-51 -5v285l22 -2l-2 21h285l-4 -50l100 -10l-61 271h420l-62 -271l101 10l-5 50h285l-2 -21l23 2v-285l-52 5l-10 -103l271 62v-420l-271 61l10 -98l52 4v-285l-23 2l2 -24h-285l7 53l-103 10l62 -268h-420
l61 268l-102 -10l6 -53h-285l2 24zM925 1040v-137h135l-12 125zM628 1040l-123 -12l-12 -125h135v137zM925 473l123 12l12 121h-135v-133zM493 606l12 -121l123 -12v133h-135z" />
    <glyph glyph-name="uni0596" 
d="M227 227v285l51 -4l10 98l-268 -61v420l268 -62l-10 103l-51 -5v285l22 -2l-2 21h285l-4 -50l100 -10l-61 271h420l-62 -271l101 10l-5 50h285l-2 -21l23 2v-285l-52 5l-10 -103l271 62v-420l-271 61l10 -98l52 4v-285l-23 2l2 -24h-285l7 53l-103 10l62 -268h-420
l61 268l-102 -10l6 -53h-285l2 24zM925 1040v-137h135l-12 125zM628 1040l-123 -12l-12 -125h135v137zM925 473l123 12l12 121h-135v-133zM493 606l12 -121l123 -12v133h-135z" />
    <glyph glyph-name="uni0597" 
d="M227 227v285l51 -4l10 98l-268 -61v420l268 -62l-10 103l-51 -5v285l22 -2l-2 21h285l-4 -50l100 -10l-61 271h420l-62 -271l101 10l-5 50h285l-2 -21l23 2v-285l-52 5l-10 -103l271 62v-420l-271 61l10 -98l52 4v-285l-23 2l2 -24h-285l7 53l-103 10l62 -268h-420
l61 268l-102 -10l6 -53h-285l2 24zM925 1040v-137h135l-12 125zM628 1040l-123 -12l-12 -125h135v137zM925 473l123 12l12 121h-135v-133zM493 606l12 -121l123 -12v133h-135z" />
    <glyph glyph-name="uni0598" 
d="M227 227v285l51 -4l10 98l-268 -61v420l268 -62l-10 103l-51 -5v285l22 -2l-2 21h285l-4 -50l100 -10l-61 271h420l-62 -271l101 10l-5 50h285l-2 -21l23 2v-285l-52 5l-10 -103l271 62v-420l-271 61l10 -98l52 4v-285l-23 2l2 -24h-285l7 53l-103 10l62 -268h-420
l61 268l-102 -10l6 -53h-285l2 24zM925 1040v-137h135l-12 125zM628 1040l-123 -12l-12 -125h135v137zM925 473l123 12l12 121h-135v-133zM493 606l12 -121l123 -12v133h-135z" />
    <glyph glyph-name="uni0599" 
d="M227 227v285l51 -4l10 98l-268 -61v420l268 -62l-10 103l-51 -5v285l22 -2l-2 21h285l-4 -50l100 -10l-61 271h420l-62 -271l101 10l-5 50h285l-2 -21l23 2v-285l-52 5l-10 -103l271 62v-420l-271 61l10 -98l52 4v-285l-23 2l2 -24h-285l7 53l-103 10l62 -268h-420
l61 268l-102 -10l6 -53h-285l2 24zM925 1040v-137h135l-12 125zM628 1040l-123 -12l-12 -125h135v137zM925 473l123 12l12 121h-135v-133zM493 606l12 -121l123 -12v133h-135z" />
    <glyph glyph-name="uni059A" 
d="M227 227v285l51 -4l10 98l-268 -61v420l268 -62l-10 103l-51 -5v285l22 -2l-2 21h285l-4 -50l100 -10l-61 271h420l-62 -271l101 10l-5 50h285l-2 -21l23 2v-285l-52 5l-10 -103l271 62v-420l-271 61l10 -98l52 4v-285l-23 2l2 -24h-285l7 53l-103 10l62 -268h-420
l61 268l-102 -10l6 -53h-285l2 24zM925 1040v-137h135l-12 125zM628 1040l-123 -12l-12 -125h135v137zM925 473l123 12l12 121h-135v-133zM493 606l12 -121l123 -12v133h-135z" />
    <glyph glyph-name="uni059B" 
d="M227 227v285l51 -4l10 98l-268 -61v420l268 -62l-10 103l-51 -5v285l22 -2l-2 21h285l-4 -50l100 -10l-61 271h420l-62 -271l101 10l-5 50h285l-2 -21l23 2v-285l-52 5l-10 -103l271 62v-420l-271 61l10 -98l52 4v-285l-23 2l2 -24h-285l7 53l-103 10l62 -268h-420
l61 268l-102 -10l6 -53h-285l2 24zM925 1040v-137h135l-12 125zM628 1040l-123 -12l-12 -125h135v137zM925 473l123 12l12 121h-135v-133zM493 606l12 -121l123 -12v133h-135z" />
    <glyph glyph-name="uni059C" 
d="M227 227v285l51 -4l10 98l-268 -61v420l268 -62l-10 103l-51 -5v285l22 -2l-2 21h285l-4 -50l100 -10l-61 271h420l-62 -271l101 10l-5 50h285l-2 -21l23 2v-285l-52 5l-10 -103l271 62v-420l-271 61l10 -98l52 4v-285l-23 2l2 -24h-285l7 53l-103 10l62 -268h-420
l61 268l-102 -10l6 -53h-285l2 24zM925 1040v-137h135l-12 125zM628 1040l-123 -12l-12 -125h135v137zM925 473l123 12l12 121h-135v-133zM493 606l12 -121l123 -12v133h-135z" />
    <glyph glyph-name="uni059D" 
d="M227 227v285l51 -4l10 98l-268 -61v420l268 -62l-10 103l-51 -5v285l22 -2l-2 21h285l-4 -50l100 -10l-61 271h420l-62 -271l101 10l-5 50h285l-2 -21l23 2v-285l-52 5l-10 -103l271 62v-420l-271 61l10 -98l52 4v-285l-23 2l2 -24h-285l7 53l-103 10l62 -268h-420
l61 268l-102 -10l6 -53h-285l2 24zM925 1040v-137h135l-12 125zM628 1040l-123 -12l-12 -125h135v137zM925 473l123 12l12 121h-135v-133zM493 606l12 -121l123 -12v133h-135z" />
    <glyph glyph-name="uni059E" 
d="M227 227v285l51 -4l10 98l-268 -61v420l268 -62l-10 103l-51 -5v285l22 -2l-2 21h285l-4 -50l100 -10l-61 271h420l-62 -271l101 10l-5 50h285l-2 -21l23 2v-285l-52 5l-10 -103l271 62v-420l-271 61l10 -98l52 4v-285l-23 2l2 -24h-285l7 53l-103 10l62 -268h-420
l61 268l-102 -10l6 -53h-285l2 24zM925 1040v-137h135l-12 125zM628 1040l-123 -12l-12 -125h135v137zM925 473l123 12l12 121h-135v-133zM493 606l12 -121l123 -12v133h-135z" />
    <glyph glyph-name="uni059F" 
d="M227 227v285l51 -4l10 98l-268 -61v420l268 -62l-10 103l-51 -5v285l22 -2l-2 21h285l-4 -50l100 -10l-61 271h420l-62 -271l101 10l-5 50h285l-2 -21l23 2v-285l-52 5l-10 -103l271 62v-420l-271 61l10 -98l52 4v-285l-23 2l2 -24h-285l7 53l-103 10l62 -268h-420
l61 268l-102 -10l6 -53h-285l2 24zM925 1040v-137h135l-12 125zM628 1040l-123 -12l-12 -125h135v137zM925 473l123 12l12 121h-135v-133zM493 606l12 -121l123 -12v133h-135z" />
    <glyph glyph-name="uni05A0" 
d="M227 227v285l51 -4l10 98l-268 -61v420l268 -62l-10 103l-51 -5v285l22 -2l-2 21h285l-4 -50l100 -10l-61 271h420l-62 -271l101 10l-5 50h285l-2 -21l23 2v-285l-52 5l-10 -103l271 62v-420l-271 61l10 -98l52 4v-285l-23 2l2 -24h-285l7 53l-103 10l62 -268h-420
l61 268l-102 -10l6 -53h-285l2 24zM925 1040v-137h135l-12 125zM628 1040l-123 -12l-12 -125h135v137zM925 473l123 12l12 121h-135v-133zM493 606l12 -121l123 -12v133h-135z" />
    <glyph glyph-name="uni05A1" 
d="M227 227v285l51 -4l10 98l-268 -61v420l268 -62l-10 103l-51 -5v285l22 -2l-2 21h285l-4 -50l100 -10l-61 271h420l-62 -271l101 10l-5 50h285l-2 -21l23 2v-285l-52 5l-10 -103l271 62v-420l-271 61l10 -98l52 4v-285l-23 2l2 -24h-285l7 53l-103 10l62 -268h-420
l61 268l-102 -10l6 -53h-285l2 24zM925 1040v-137h135l-12 125zM628 1040l-123 -12l-12 -125h135v137zM925 473l123 12l12 121h-135v-133zM493 606l12 -121l123 -12v133h-135z" />
    <glyph glyph-name="uni05A3" 
d="M227 227v285l51 -4l10 98l-268 -61v420l268 -62l-10 103l-51 -5v285l22 -2l-2 21h285l-4 -50l100 -10l-61 271h420l-62 -271l101 10l-5 50h285l-2 -21l23 2v-285l-52 5l-10 -103l271 62v-420l-271 61l10 -98l52 4v-285l-23 2l2 -24h-285l7 53l-103 10l62 -268h-420
l61 268l-102 -10l6 -53h-285l2 24zM925 1040v-137h135l-12 125zM628 1040l-123 -12l-12 -125h135v137zM925 473l123 12l12 121h-135v-133zM493 606l12 -121l123 -12v133h-135z" />
    <glyph glyph-name="uni05A4" 
d="M227 227v285l51 -4l10 98l-268 -61v420l268 -62l-10 103l-51 -5v285l22 -2l-2 21h285l-4 -50l100 -10l-61 271h420l-62 -271l101 10l-5 50h285l-2 -21l23 2v-285l-52 5l-10 -103l271 62v-420l-271 61l10 -98l52 4v-285l-23 2l2 -24h-285l7 53l-103 10l62 -268h-420
l61 268l-102 -10l6 -53h-285l2 24zM925 1040v-137h135l-12 125zM628 1040l-123 -12l-12 -125h135v137zM925 473l123 12l12 121h-135v-133zM493 606l12 -121l123 -12v133h-135z" />
    <glyph glyph-name="uni05A5" 
d="M227 227v285l51 -4l10 98l-268 -61v420l268 -62l-10 103l-51 -5v285l22 -2l-2 21h285l-4 -50l100 -10l-61 271h420l-62 -271l101 10l-5 50h285l-2 -21l23 2v-285l-52 5l-10 -103l271 62v-420l-271 61l10 -98l52 4v-285l-23 2l2 -24h-285l7 53l-103 10l62 -268h-420
l61 268l-102 -10l6 -53h-285l2 24zM925 1040v-137h135l-12 125zM628 1040l-123 -12l-12 -125h135v137zM925 473l123 12l12 121h-135v-133zM493 606l12 -121l123 -12v133h-135z" />
    <glyph glyph-name="uni05A6" 
d="M227 227v285l51 -4l10 98l-268 -61v420l268 -62l-10 103l-51 -5v285l22 -2l-2 21h285l-4 -50l100 -10l-61 271h420l-62 -271l101 10l-5 50h285l-2 -21l23 2v-285l-52 5l-10 -103l271 62v-420l-271 61l10 -98l52 4v-285l-23 2l2 -24h-285l7 53l-103 10l62 -268h-420
l61 268l-102 -10l6 -53h-285l2 24zM925 1040v-137h135l-12 125zM628 1040l-123 -12l-12 -125h135v137zM925 473l123 12l12 121h-135v-133zM493 606l12 -121l123 -12v133h-135z" />
    <glyph glyph-name="uni05A7" 
d="M227 227v285l51 -4l10 98l-268 -61v420l268 -62l-10 103l-51 -5v285l22 -2l-2 21h285l-4 -50l100 -10l-61 271h420l-62 -271l101 10l-5 50h285l-2 -21l23 2v-285l-52 5l-10 -103l271 62v-420l-271 61l10 -98l52 4v-285l-23 2l2 -24h-285l7 53l-103 10l62 -268h-420
l61 268l-102 -10l6 -53h-285l2 24zM925 1040v-137h135l-12 125zM628 1040l-123 -12l-12 -125h135v137zM925 473l123 12l12 121h-135v-133zM493 606l12 -121l123 -12v133h-135z" />
    <glyph glyph-name="uni05A8" 
d="M227 227v285l51 -4l10 98l-268 -61v420l268 -62l-10 103l-51 -5v285l22 -2l-2 21h285l-4 -50l100 -10l-61 271h420l-62 -271l101 10l-5 50h285l-2 -21l23 2v-285l-52 5l-10 -103l271 62v-420l-271 61l10 -98l52 4v-285l-23 2l2 -24h-285l7 53l-103 10l62 -268h-420
l61 268l-102 -10l6 -53h-285l2 24zM925 1040v-137h135l-12 125zM628 1040l-123 -12l-12 -125h135v137zM925 473l123 12l12 121h-135v-133zM493 606l12 -121l123 -12v133h-135z" />
    <glyph glyph-name="uni05A9" 
d="M227 227v285l51 -4l10 98l-268 -61v420l268 -62l-10 103l-51 -5v285l22 -2l-2 21h285l-4 -50l100 -10l-61 271h420l-62 -271l101 10l-5 50h285l-2 -21l23 2v-285l-52 5l-10 -103l271 62v-420l-271 61l10 -98l52 4v-285l-23 2l2 -24h-285l7 53l-103 10l62 -268h-420
l61 268l-102 -10l6 -53h-285l2 24zM925 1040v-137h135l-12 125zM628 1040l-123 -12l-12 -125h135v137zM925 473l123 12l12 121h-135v-133zM493 606l12 -121l123 -12v133h-135z" />
    <glyph glyph-name="uni05AA" 
d="M227 227v285l51 -4l10 98l-268 -61v420l268 -62l-10 103l-51 -5v285l22 -2l-2 21h285l-4 -50l100 -10l-61 271h420l-62 -271l101 10l-5 50h285l-2 -21l23 2v-285l-52 5l-10 -103l271 62v-420l-271 61l10 -98l52 4v-285l-23 2l2 -24h-285l7 53l-103 10l62 -268h-420
l61 268l-102 -10l6 -53h-285l2 24zM925 1040v-137h135l-12 125zM628 1040l-123 -12l-12 -125h135v137zM925 473l123 12l12 121h-135v-133zM493 606l12 -121l123 -12v133h-135z" />
    <glyph glyph-name="uni05AB" 
d="M227 227v285l51 -4l10 98l-268 -61v420l268 -62l-10 103l-51 -5v285l22 -2l-2 21h285l-4 -50l100 -10l-61 271h420l-62 -271l101 10l-5 50h285l-2 -21l23 2v-285l-52 5l-10 -103l271 62v-420l-271 61l10 -98l52 4v-285l-23 2l2 -24h-285l7 53l-103 10l62 -268h-420
l61 268l-102 -10l6 -53h-285l2 24zM925 1040v-137h135l-12 125zM628 1040l-123 -12l-12 -125h135v137zM925 473l123 12l12 121h-135v-133zM493 606l12 -121l123 -12v133h-135z" />
    <glyph glyph-name="uni05AC" 
d="M227 227v285l51 -4l10 98l-268 -61v420l268 -62l-10 103l-51 -5v285l22 -2l-2 21h285l-4 -50l100 -10l-61 271h420l-62 -271l101 10l-5 50h285l-2 -21l23 2v-285l-52 5l-10 -103l271 62v-420l-271 61l10 -98l52 4v-285l-23 2l2 -24h-285l7 53l-103 10l62 -268h-420
l61 268l-102 -10l6 -53h-285l2 24zM925 1040v-137h135l-12 125zM628 1040l-123 -12l-12 -125h135v137zM925 473l123 12l12 121h-135v-133zM493 606l12 -121l123 -12v133h-135z" />
    <glyph glyph-name="uni05AD" 
d="M227 227v285l51 -4l10 98l-268 -61v420l268 -62l-10 103l-51 -5v285l22 -2l-2 21h285l-4 -50l100 -10l-61 271h420l-62 -271l101 10l-5 50h285l-2 -21l23 2v-285l-52 5l-10 -103l271 62v-420l-271 61l10 -98l52 4v-285l-23 2l2 -24h-285l7 53l-103 10l62 -268h-420
l61 268l-102 -10l6 -53h-285l2 24zM925 1040v-137h135l-12 125zM628 1040l-123 -12l-12 -125h135v137zM925 473l123 12l12 121h-135v-133zM493 606l12 -121l123 -12v133h-135z" />
    <glyph glyph-name="uni05AE" 
d="M227 227v285l51 -4l10 98l-268 -61v420l268 -62l-10 103l-51 -5v285l22 -2l-2 21h285l-4 -50l100 -10l-61 271h420l-62 -271l101 10l-5 50h285l-2 -21l23 2v-285l-52 5l-10 -103l271 62v-420l-271 61l10 -98l52 4v-285l-23 2l2 -24h-285l7 53l-103 10l62 -268h-420
l61 268l-102 -10l6 -53h-285l2 24zM925 1040v-137h135l-12 125zM628 1040l-123 -12l-12 -125h135v137zM925 473l123 12l12 121h-135v-133zM493 606l12 -121l123 -12v133h-135z" />
    <glyph glyph-name="uni05AF" 
d="M227 227v285l51 -4l10 98l-268 -61v420l268 -62l-10 103l-51 -5v285l22 -2l-2 21h285l-4 -50l100 -10l-61 271h420l-62 -271l101 10l-5 50h285l-2 -21l23 2v-285l-52 5l-10 -103l271 62v-420l-271 61l10 -98l52 4v-285l-23 2l2 -24h-285l7 53l-103 10l62 -268h-420
l61 268l-102 -10l6 -53h-285l2 24zM925 1040v-137h135l-12 125zM628 1040l-123 -12l-12 -125h135v137zM925 473l123 12l12 121h-135v-133zM493 606l12 -121l123 -12v133h-135z" />
    <glyph glyph-name="glyph395" horiz-adv-x="2204" 
d="M1971 1041l-170.999 83.002c-6.66699 3.33301 -12.334 5 -17.001 5c-2.66699 -0.666992 -5 -1.33398 -7 -2.00098c-57.333 -26.667 -93.666 -44.667 -108.999 -54c-8.66699 -5.33301 -14 -13.333 -16 -24l-6 -42c-8 -46 -23.667 -92 -47 -138
c-24.667 -48.667 -50.667 -87.667 -78 -117c-15.333 -16.667 -31 -25 -47 -25c-11.333 0 -20 4.33301 -26 13c-95.333 143.333 -174 266.666 -236 369.999l-209 368c-16.667 30.667 -40.334 53.667 -71.001 69l-124 60c93.333 30 189.333 45 288 45
c141.333 0 275.5 -30.333 402.5 -91s234.833 -145.667 323.5 -255c64.667 -80.667 114.667 -169 150 -265zM2032 725.002c0 -127.333 -20.668 -242.665 -62.001 -345.998c-14.667 -35.333 -39.167 -75.833 -73.5 -121.5s-64.5 -78.834 -90.5 -99.501
c-31.333 43.333 -64.666 99.333 -99.999 168l-68 134c36.667 9.33301 70 21.333 100 36c58 28 110.333 66 157 114c58.667 59.333 98.667 124.333 120 195h15c1.33301 -12.667 2 -39.334 2 -80.001zM790 1176c-131.333 -10.667 -248.334 -47.333 -351.001 -110
c-15.333 -10 -48.333 -34.333 -99 -73c-40 -30 -96 -77.667 -168 -143c18.667 132 63.834 254.833 135.501 368.5s163.5 207.167 275.5 280.5c59.333 -82 128.333 -189.667 207 -323zM1588 -70.9961c-150.667 -94 -315.001 -140.999 -493.001 -140.999
c-257.333 0 -477 91 -659 273c-114.667 114 -194 248.333 -238 403l213 -81c26.667 -10.667 47.667 -16 63 -16c32.667 0 56.334 18.667 71.001 56l13 42c52 125.333 131.333 240.666 238 345.999c68.667 68 119 102 151 102c8 0 13.667 -2.66699 17 -8
c105.333 -152 226.333 -353 363 -603l141 -270c20.667 -40 60.667 -74.333 120 -103z" />
    <glyph glyph-name="glyph396" 
d="M227 227v285l51 -4l10 98l-268 -61v420l268 -62l-10 103l-51 -5v285l22 -2l-2 21h285l-4 -50l100 -10l-61 271h420l-62 -271l101 10l-5 50h285l-2 -21l23 2v-285l-52 5l-10 -103l271 62v-420l-271 61l10 -98l52 4v-285l-23 2l2 -24h-285l7 53l-103 10l62 -268h-420
l61 268l-102 -10l6 -53h-285l2 24zM925 1040v-137h135l-12 125zM628 1040l-123 -12l-12 -125h135v137zM925 473l123 12l12 121h-135v-133zM493 606l12 -121l123 -12v133h-135z" />
    <glyph glyph-name="glyph397" 
d="M227 227v285l51 -4l10 98l-268 -61v420l268 -62l-10 103l-51 -5v285l22 -2l-2 21h285l-4 -50l100 -10l-61 271h420l-62 -271l101 10l-5 50h285l-2 -21l23 2v-285l-52 5l-10 -103l271 62v-420l-271 61l10 -98l52 4v-285l-23 2l2 -24h-285l7 53l-103 10l62 -268h-420
l61 268l-102 -10l6 -53h-285l2 24zM925 1040v-137h135l-12 125zM628 1040l-123 -12l-12 -125h135v137zM925 473l123 12l12 121h-135v-133zM493 606l12 -121l123 -12v133h-135z" />
    <glyph glyph-name="glyph398" 
d="M227 227v285l51 -4l10 98l-268 -61v420l268 -62l-10 103l-51 -5v285l22 -2l-2 21h285l-4 -50l100 -10l-61 271h420l-62 -271l101 10l-5 50h285l-2 -21l23 2v-285l-52 5l-10 -103l271 62v-420l-271 61l10 -98l52 4v-285l-23 2l2 -24h-285l7 53l-103 10l62 -268h-420
l61 268l-102 -10l6 -53h-285l2 24zM925 1040v-137h135l-12 125zM628 1040l-123 -12l-12 -125h135v137zM925 473l123 12l12 121h-135v-133zM493 606l12 -121l123 -12v133h-135z" />
    <glyph glyph-name="glyph399" 
d="M227 227v285l51 -4l10 98l-268 -61v420l268 -62l-10 103l-51 -5v285l22 -2l-2 21h285l-4 -50l100 -10l-61 271h420l-62 -271l101 10l-5 50h285l-2 -21l23 2v-285l-52 5l-10 -103l271 62v-420l-271 61l10 -98l52 4v-285l-23 2l2 -24h-285l7 53l-103 10l62 -268h-420
l61 268l-102 -10l6 -53h-285l2 24zM925 1040v-137h135l-12 125zM628 1040l-123 -12l-12 -125h135v137zM925 473l123 12l12 121h-135v-133zM493 606l12 -121l123 -12v133h-135z" />
    <glyph glyph-name="glyph400" 
d="M227 227v285l51 -4l10 98l-268 -61v420l268 -62l-10 103l-51 -5v285l22 -2l-2 21h285l-4 -50l100 -10l-61 271h420l-62 -271l101 10l-5 50h285l-2 -21l23 2v-285l-52 5l-10 -103l271 62v-420l-271 61l10 -98l52 4v-285l-23 2l2 -24h-285l7 53l-103 10l62 -268h-420
l61 268l-102 -10l6 -53h-285l2 24zM925 1040v-137h135l-12 125zM628 1040l-123 -12l-12 -125h135v137zM925 473l123 12l12 121h-135v-133zM493 606l12 -121l123 -12v133h-135z" />
    <glyph glyph-name="glyph401" 
d="M227 227v285l51 -4l10 98l-268 -61v420l268 -62l-10 103l-51 -5v285l22 -2l-2 21h285l-4 -50l100 -10l-61 271h420l-62 -271l101 10l-5 50h285l-2 -21l23 2v-285l-52 5l-10 -103l271 62v-420l-271 61l10 -98l52 4v-285l-23 2l2 -24h-285l7 53l-103 10l62 -268h-420
l61 268l-102 -10l6 -53h-285l2 24zM925 1040v-137h135l-12 125zM628 1040l-123 -12l-12 -125h135v137zM925 473l123 12l12 121h-135v-133zM493 606l12 -121l123 -12v133h-135z" />
    <glyph glyph-name="glyph402" 
d="M227 227v285l51 -4l10 98l-268 -61v420l268 -62l-10 103l-51 -5v285l22 -2l-2 21h285l-4 -50l100 -10l-61 271h420l-62 -271l101 10l-5 50h285l-2 -21l23 2v-285l-52 5l-10 -103l271 62v-420l-271 61l10 -98l52 4v-285l-23 2l2 -24h-285l7 53l-103 10l62 -268h-420
l61 268l-102 -10l6 -53h-285l2 24zM925 1040v-137h135l-12 125zM628 1040l-123 -12l-12 -125h135v137zM925 473l123 12l12 121h-135v-133zM493 606l12 -121l123 -12v133h-135z" />
    <glyph glyph-name="glyph403" 
d="M227 227v285l51 -4l10 98l-268 -61v420l268 -62l-10 103l-51 -5v285l22 -2l-2 21h285l-4 -50l100 -10l-61 271h420l-62 -271l101 10l-5 50h285l-2 -21l23 2v-285l-52 5l-10 -103l271 62v-420l-271 61l10 -98l52 4v-285l-23 2l2 -24h-285l7 53l-103 10l62 -268h-420
l61 268l-102 -10l6 -53h-285l2 24zM925 1040v-137h135l-12 125zM628 1040l-123 -12l-12 -125h135v137zM925 473l123 12l12 121h-135v-133zM493 606l12 -121l123 -12v133h-135z" />
    <glyph glyph-name="glyph404" 
d="M227 227v285l51 -4l10 98l-268 -61v420l268 -62l-10 103l-51 -5v285l22 -2l-2 21h285l-4 -50l100 -10l-61 271h420l-62 -271l101 10l-5 50h285l-2 -21l23 2v-285l-52 5l-10 -103l271 62v-420l-271 61l10 -98l52 4v-285l-23 2l2 -24h-285l7 53l-103 10l62 -268h-420
l61 268l-102 -10l6 -53h-285l2 24zM925 1040v-137h135l-12 125zM628 1040l-123 -12l-12 -125h135v137zM925 473l123 12l12 121h-135v-133zM493 606l12 -121l123 -12v133h-135z" />
    <glyph glyph-name="glyph405" 
d="M227 227v285l51 -4l10 98l-268 -61v420l268 -62l-10 103l-51 -5v285l22 -2l-2 21h285l-4 -50l100 -10l-61 271h420l-62 -271l101 10l-5 50h285l-2 -21l23 2v-285l-52 5l-10 -103l271 62v-420l-271 61l10 -98l52 4v-285l-23 2l2 -24h-285l7 53l-103 10l62 -268h-420
l61 268l-102 -10l6 -53h-285l2 24zM925 1040v-137h135l-12 125zM628 1040l-123 -12l-12 -125h135v137zM925 473l123 12l12 121h-135v-133zM493 606l12 -121l123 -12v133h-135z" />
    <glyph glyph-name="glyph406" 
d="M227 227v285l51 -4l10 98l-268 -61v420l268 -62l-10 103l-51 -5v285l22 -2l-2 21h285l-4 -50l100 -10l-61 271h420l-62 -271l101 10l-5 50h285l-2 -21l23 2v-285l-52 5l-10 -103l271 62v-420l-271 61l10 -98l52 4v-285l-23 2l2 -24h-285l7 53l-103 10l62 -268h-420
l61 268l-102 -10l6 -53h-285l2 24zM925 1040v-137h135l-12 125zM628 1040l-123 -12l-12 -125h135v137zM925 473l123 12l12 121h-135v-133zM493 606l12 -121l123 -12v133h-135z" />
    <glyph glyph-name="glyph407" 
d="M227 227v285l51 -4l10 98l-268 -61v420l268 -62l-10 103l-51 -5v285l22 -2l-2 21h285l-4 -50l100 -10l-61 271h420l-62 -271l101 10l-5 50h285l-2 -21l23 2v-285l-52 5l-10 -103l271 62v-420l-271 61l10 -98l52 4v-285l-23 2l2 -24h-285l7 53l-103 10l62 -268h-420
l61 268l-102 -10l6 -53h-285l2 24zM925 1040v-137h135l-12 125zM628 1040l-123 -12l-12 -125h135v137zM925 473l123 12l12 121h-135v-133zM493 606l12 -121l123 -12v133h-135z" />
    <glyph glyph-name="glyph408" 
d="M227 227v285l51 -4l10 98l-268 -61v420l268 -62l-10 103l-51 -5v285l22 -2l-2 21h285l-4 -50l100 -10l-61 271h420l-62 -271l101 10l-5 50h285l-2 -21l23 2v-285l-52 5l-10 -103l271 62v-420l-271 61l10 -98l52 4v-285l-23 2l2 -24h-285l7 53l-103 10l62 -268h-420
l61 268l-102 -10l6 -53h-285l2 24zM925 1040v-137h135l-12 125zM628 1040l-123 -12l-12 -125h135v137zM925 473l123 12l12 121h-135v-133zM493 606l12 -121l123 -12v133h-135z" />
    <glyph glyph-name="glyph409" 
d="M227 227v285l51 -4l10 98l-268 -61v420l268 -62l-10 103l-51 -5v285l22 -2l-2 21h285l-4 -50l100 -10l-61 271h420l-62 -271l101 10l-5 50h285l-2 -21l23 2v-285l-52 5l-10 -103l271 62v-420l-271 61l10 -98l52 4v-285l-23 2l2 -24h-285l7 53l-103 10l62 -268h-420
l61 268l-102 -10l6 -53h-285l2 24zM925 1040v-137h135l-12 125zM628 1040l-123 -12l-12 -125h135v137zM925 473l123 12l12 121h-135v-133zM493 606l12 -121l123 -12v133h-135z" />
    <glyph glyph-name="glyph410" 
d="M227 227v285l51 -4l10 98l-268 -61v420l268 -62l-10 103l-51 -5v285l22 -2l-2 21h285l-4 -50l100 -10l-61 271h420l-62 -271l101 10l-5 50h285l-2 -21l23 2v-285l-52 5l-10 -103l271 62v-420l-271 61l10 -98l52 4v-285l-23 2l2 -24h-285l7 53l-103 10l62 -268h-420
l61 268l-102 -10l6 -53h-285l2 24zM925 1040v-137h135l-12 125zM628 1040l-123 -12l-12 -125h135v137zM925 473l123 12l12 121h-135v-133zM493 606l12 -121l123 -12v133h-135z" />
    <glyph glyph-name="glyph411" 
d="M227 227v285l51 -4l10 98l-268 -61v420l268 -62l-10 103l-51 -5v285l22 -2l-2 21h285l-4 -50l100 -10l-61 271h420l-62 -271l101 10l-5 50h285l-2 -21l23 2v-285l-52 5l-10 -103l271 62v-420l-271 61l10 -98l52 4v-285l-23 2l2 -24h-285l7 53l-103 10l62 -268h-420
l61 268l-102 -10l6 -53h-285l2 24zM925 1040v-137h135l-12 125zM628 1040l-123 -12l-12 -125h135v137zM925 473l123 12l12 121h-135v-133zM493 606l12 -121l123 -12v133h-135z" />
    <glyph glyph-name="glyph412" 
d="M227 227v285l51 -4l10 98l-268 -61v420l268 -62l-10 103l-51 -5v285l22 -2l-2 21h285l-4 -50l100 -10l-61 271h420l-62 -271l101 10l-5 50h285l-2 -21l23 2v-285l-52 5l-10 -103l271 62v-420l-271 61l10 -98l52 4v-285l-23 2l2 -24h-285l7 53l-103 10l62 -268h-420
l61 268l-102 -10l6 -53h-285l2 24zM925 1040v-137h135l-12 125zM628 1040l-123 -12l-12 -125h135v137zM925 473l123 12l12 121h-135v-133zM493 606l12 -121l123 -12v133h-135z" />
    <glyph glyph-name="glyph413" 
d="M227 227v285l51 -4l10 98l-268 -61v420l268 -62l-10 103l-51 -5v285l22 -2l-2 21h285l-4 -50l100 -10l-61 271h420l-62 -271l101 10l-5 50h285l-2 -21l23 2v-285l-52 5l-10 -103l271 62v-420l-271 61l10 -98l52 4v-285l-23 2l2 -24h-285l7 53l-103 10l62 -268h-420
l61 268l-102 -10l6 -53h-285l2 24zM925 1040v-137h135l-12 125zM628 1040l-123 -12l-12 -125h135v137zM925 473l123 12l12 121h-135v-133zM493 606l12 -121l123 -12v133h-135z" />
    <glyph glyph-name="glyph414" 
d="M227 227v285l51 -4l10 98l-268 -61v420l268 -62l-10 103l-51 -5v285l22 -2l-2 21h285l-4 -50l100 -10l-61 271h420l-62 -271l101 10l-5 50h285l-2 -21l23 2v-285l-52 5l-10 -103l271 62v-420l-271 61l10 -98l52 4v-285l-23 2l2 -24h-285l7 53l-103 10l62 -268h-420
l61 268l-102 -10l6 -53h-285l2 24zM925 1040v-137h135l-12 125zM628 1040l-123 -12l-12 -125h135v137zM925 473l123 12l12 121h-135v-133zM493 606l12 -121l123 -12v133h-135z" />
    <glyph glyph-name="glyph415" 
d="M227 227v285l51 -4l10 98l-268 -61v420l268 -62l-10 103l-51 -5v285l22 -2l-2 21h285l-4 -50l100 -10l-61 271h420l-62 -271l101 10l-5 50h285l-2 -21l23 2v-285l-52 5l-10 -103l271 62v-420l-271 61l10 -98l52 4v-285l-23 2l2 -24h-285l7 53l-103 10l62 -268h-420
l61 268l-102 -10l6 -53h-285l2 24zM925 1040v-137h135l-12 125zM628 1040l-123 -12l-12 -125h135v137zM925 473l123 12l12 121h-135v-133zM493 606l12 -121l123 -12v133h-135z" />
    <glyph glyph-name="glyph416" 
d="M227 227v285l51 -4l10 98l-268 -61v420l268 -62l-10 103l-51 -5v285l22 -2l-2 21h285l-4 -50l100 -10l-61 271h420l-62 -271l101 10l-5 50h285l-2 -21l23 2v-285l-52 5l-10 -103l271 62v-420l-271 61l10 -98l52 4v-285l-23 2l2 -24h-285l7 53l-103 10l62 -268h-420
l61 268l-102 -10l6 -53h-285l2 24zM925 1040v-137h135l-12 125zM628 1040l-123 -12l-12 -125h135v137zM925 473l123 12l12 121h-135v-133zM493 606l12 -121l123 -12v133h-135z" />
    <glyph glyph-name="glyph417" 
d="M227 227v285l51 -4l10 98l-268 -61v420l268 -62l-10 103l-51 -5v285l22 -2l-2 21h285l-4 -50l100 -10l-61 271h420l-62 -271l101 10l-5 50h285l-2 -21l23 2v-285l-52 5l-10 -103l271 62v-420l-271 61l10 -98l52 4v-285l-23 2l2 -24h-285l7 53l-103 10l62 -268h-420
l61 268l-102 -10l6 -53h-285l2 24zM925 1040v-137h135l-12 125zM628 1040l-123 -12l-12 -125h135v137zM925 473l123 12l12 121h-135v-133zM493 606l12 -121l123 -12v133h-135z" />
    <glyph glyph-name="glyph418" 
d="M227 227v285l51 -4l10 98l-268 -61v420l268 -62l-10 103l-51 -5v285l22 -2l-2 21h285l-4 -50l100 -10l-61 271h420l-62 -271l101 10l-5 50h285l-2 -21l23 2v-285l-52 5l-10 -103l271 62v-420l-271 61l10 -98l52 4v-285l-23 2l2 -24h-285l7 53l-103 10l62 -268h-420
l61 268l-102 -10l6 -53h-285l2 24zM925 1040v-137h135l-12 125zM628 1040l-123 -12l-12 -125h135v137zM925 473l123 12l12 121h-135v-133zM493 606l12 -121l123 -12v133h-135z" />
    <glyph glyph-name="glyph419" 
d="M227 227v285l51 -4l10 98l-268 -61v420l268 -62l-10 103l-51 -5v285l22 -2l-2 21h285l-4 -50l100 -10l-61 271h420l-62 -271l101 10l-5 50h285l-2 -21l23 2v-285l-52 5l-10 -103l271 62v-420l-271 61l10 -98l52 4v-285l-23 2l2 -24h-285l7 53l-103 10l62 -268h-420
l61 268l-102 -10l6 -53h-285l2 24zM925 1040v-137h135l-12 125zM628 1040l-123 -12l-12 -125h135v137zM925 473l123 12l12 121h-135v-133zM493 606l12 -121l123 -12v133h-135z" />
    <glyph glyph-name="glyph420" 
d="M227 227v285l51 -4l10 98l-268 -61v420l268 -62l-10 103l-51 -5v285l22 -2l-2 21h285l-4 -50l100 -10l-61 271h420l-62 -271l101 10l-5 50h285l-2 -21l23 2v-285l-52 5l-10 -103l271 62v-420l-271 61l10 -98l52 4v-285l-23 2l2 -24h-285l7 53l-103 10l62 -268h-420
l61 268l-102 -10l6 -53h-285l2 24zM925 1040v-137h135l-12 125zM628 1040l-123 -12l-12 -125h135v137zM925 473l123 12l12 121h-135v-133zM493 606l12 -121l123 -12v133h-135z" />
    <glyph glyph-name="glyph421" 
d="M227 227v285l51 -4l10 98l-268 -61v420l268 -62l-10 103l-51 -5v285l22 -2l-2 21h285l-4 -50l100 -10l-61 271h420l-62 -271l101 10l-5 50h285l-2 -21l23 2v-285l-52 5l-10 -103l271 62v-420l-271 61l10 -98l52 4v-285l-23 2l2 -24h-285l7 53l-103 10l62 -268h-420
l61 268l-102 -10l6 -53h-285l2 24zM925 1040v-137h135l-12 125zM628 1040l-123 -12l-12 -125h135v137zM925 473l123 12l12 121h-135v-133zM493 606l12 -121l123 -12v133h-135z" />
    <glyph glyph-name="glyph422" 
d="M227 227v285l51 -4l10 98l-268 -61v420l268 -62l-10 103l-51 -5v285l22 -2l-2 21h285l-4 -50l100 -10l-61 271h420l-62 -271l101 10l-5 50h285l-2 -21l23 2v-285l-52 5l-10 -103l271 62v-420l-271 61l10 -98l52 4v-285l-23 2l2 -24h-285l7 53l-103 10l62 -268h-420
l61 268l-102 -10l6 -53h-285l2 24zM925 1040v-137h135l-12 125zM628 1040l-123 -12l-12 -125h135v137zM925 473l123 12l12 121h-135v-133zM493 606l12 -121l123 -12v133h-135z" />
    <glyph glyph-name="glyph423" 
d="M227 227v285l51 -4l10 98l-268 -61v420l268 -62l-10 103l-51 -5v285l22 -2l-2 21h285l-4 -50l100 -10l-61 271h420l-62 -271l101 10l-5 50h285l-2 -21l23 2v-285l-52 5l-10 -103l271 62v-420l-271 61l10 -98l52 4v-285l-23 2l2 -24h-285l7 53l-103 10l62 -268h-420
l61 268l-102 -10l6 -53h-285l2 24zM925 1040v-137h135l-12 125zM628 1040l-123 -12l-12 -125h135v137zM925 473l123 12l12 121h-135v-133zM493 606l12 -121l123 -12v133h-135z" />
    <glyph glyph-name="glyph424" 
d="M227 227v285l51 -4l10 98l-268 -61v420l268 -62l-10 103l-51 -5v285l22 -2l-2 21h285l-4 -50l100 -10l-61 271h420l-62 -271l101 10l-5 50h285l-2 -21l23 2v-285l-52 5l-10 -103l271 62v-420l-271 61l10 -98l52 4v-285l-23 2l2 -24h-285l7 53l-103 10l62 -268h-420
l61 268l-102 -10l6 -53h-285l2 24zM925 1040v-137h135l-12 125zM628 1040l-123 -12l-12 -125h135v137zM925 473l123 12l12 121h-135v-133zM493 606l12 -121l123 -12v133h-135z" />
    <glyph glyph-name="glyph425" 
d="M227 227v285l51 -4l10 98l-268 -61v420l268 -62l-10 103l-51 -5v285l22 -2l-2 21h285l-4 -50l100 -10l-61 271h420l-62 -271l101 10l-5 50h285l-2 -21l23 2v-285l-52 5l-10 -103l271 62v-420l-271 61l10 -98l52 4v-285l-23 2l2 -24h-285l7 53l-103 10l62 -268h-420
l61 268l-102 -10l6 -53h-285l2 24zM925 1040v-137h135l-12 125zM628 1040l-123 -12l-12 -125h135v137zM925 473l123 12l12 121h-135v-133zM493 606l12 -121l123 -12v133h-135z" />
    <glyph glyph-name="glyph426" 
d="M227 227v285l51 -4l10 98l-268 -61v420l268 -62l-10 103l-51 -5v285l22 -2l-2 21h285l-4 -50l100 -10l-61 271h420l-62 -271l101 10l-5 50h285l-2 -21l23 2v-285l-52 5l-10 -103l271 62v-420l-271 61l10 -98l52 4v-285l-23 2l2 -24h-285l7 53l-103 10l62 -268h-420
l61 268l-102 -10l6 -53h-285l2 24zM925 1040v-137h135l-12 125zM628 1040l-123 -12l-12 -125h135v137zM925 473l123 12l12 121h-135v-133zM493 606l12 -121l123 -12v133h-135z" />
    <glyph glyph-name="glyph427" 
d="M227 227v285l51 -4l10 98l-268 -61v420l268 -62l-10 103l-51 -5v285l22 -2l-2 21h285l-4 -50l100 -10l-61 271h420l-62 -271l101 10l-5 50h285l-2 -21l23 2v-285l-52 5l-10 -103l271 62v-420l-271 61l10 -98l52 4v-285l-23 2l2 -24h-285l7 53l-103 10l62 -268h-420
l61 268l-102 -10l6 -53h-285l2 24zM925 1040v-137h135l-12 125zM628 1040l-123 -12l-12 -125h135v137zM925 473l123 12l12 121h-135v-133zM493 606l12 -121l123 -12v133h-135z" />
    <glyph glyph-name="glyph428" 
d="M227 227v285l51 -4l10 98l-268 -61v420l268 -62l-10 103l-51 -5v285l22 -2l-2 21h285l-4 -50l100 -10l-61 271h420l-62 -271l101 10l-5 50h285l-2 -21l23 2v-285l-52 5l-10 -103l271 62v-420l-271 61l10 -98l52 4v-285l-23 2l2 -24h-285l7 53l-103 10l62 -268h-420
l61 268l-102 -10l6 -53h-285l2 24zM925 1040v-137h135l-12 125zM628 1040l-123 -12l-12 -125h135v137zM925 473l123 12l12 121h-135v-133zM493 606l12 -121l123 -12v133h-135z" />
    <glyph glyph-name="glyph429" 
d="M227 227v285l51 -4l10 98l-268 -61v420l268 -62l-10 103l-51 -5v285l22 -2l-2 21h285l-4 -50l100 -10l-61 271h420l-62 -271l101 10l-5 50h285l-2 -21l23 2v-285l-52 5l-10 -103l271 62v-420l-271 61l10 -98l52 4v-285l-23 2l2 -24h-285l7 53l-103 10l62 -268h-420
l61 268l-102 -10l6 -53h-285l2 24zM925 1040v-137h135l-12 125zM628 1040l-123 -12l-12 -125h135v137zM925 473l123 12l12 121h-135v-133zM493 606l12 -121l123 -12v133h-135z" />
    <glyph glyph-name="glyph430" 
d="M227 227v285l51 -4l10 98l-268 -61v420l268 -62l-10 103l-51 -5v285l22 -2l-2 21h285l-4 -50l100 -10l-61 271h420l-62 -271l101 10l-5 50h285l-2 -21l23 2v-285l-52 5l-10 -103l271 62v-420l-271 61l10 -98l52 4v-285l-23 2l2 -24h-285l7 53l-103 10l62 -268h-420
l61 268l-102 -10l6 -53h-285l2 24zM925 1040v-137h135l-12 125zM628 1040l-123 -12l-12 -125h135v137zM925 473l123 12l12 121h-135v-133zM493 606l12 -121l123 -12v133h-135z" />
    <glyph glyph-name="glyph431" 
d="M227 227v285l51 -4l10 98l-268 -61v420l268 -62l-10 103l-51 -5v285l22 -2l-2 21h285l-4 -50l100 -10l-61 271h420l-62 -271l101 10l-5 50h285l-2 -21l23 2v-285l-52 5l-10 -103l271 62v-420l-271 61l10 -98l52 4v-285l-23 2l2 -24h-285l7 53l-103 10l62 -268h-420
l61 268l-102 -10l6 -53h-285l2 24zM925 1040v-137h135l-12 125zM628 1040l-123 -12l-12 -125h135v137zM925 473l123 12l12 121h-135v-133zM493 606l12 -121l123 -12v133h-135z" />
    <glyph glyph-name="glyph432" 
d="M227 227v285l51 -4l10 98l-268 -61v420l268 -62l-10 103l-51 -5v285l22 -2l-2 21h285l-4 -50l100 -10l-61 271h420l-62 -271l101 10l-5 50h285l-2 -21l23 2v-285l-52 5l-10 -103l271 62v-420l-271 61l10 -98l52 4v-285l-23 2l2 -24h-285l7 53l-103 10l62 -268h-420
l61 268l-102 -10l6 -53h-285l2 24zM925 1040v-137h135l-12 125zM628 1040l-123 -12l-12 -125h135v137zM925 473l123 12l12 121h-135v-133zM493 606l12 -121l123 -12v133h-135z" />
    <glyph glyph-name="glyph433" 
d="M227 227v285l51 -4l10 98l-268 -61v420l268 -62l-10 103l-51 -5v285l22 -2l-2 21h285l-4 -50l100 -10l-61 271h420l-62 -271l101 10l-5 50h285l-2 -21l23 2v-285l-52 5l-10 -103l271 62v-420l-271 61l10 -98l52 4v-285l-23 2l2 -24h-285l7 53l-103 10l62 -268h-420
l61 268l-102 -10l6 -53h-285l2 24zM925 1040v-137h135l-12 125zM628 1040l-123 -12l-12 -125h135v137zM925 473l123 12l12 121h-135v-133zM493 606l12 -121l123 -12v133h-135z" />
    <glyph glyph-name="glyph434" 
d="M227 227v285l51 -4l10 98l-268 -61v420l268 -62l-10 103l-51 -5v285l22 -2l-2 21h285l-4 -50l100 -10l-61 271h420l-62 -271l101 10l-5 50h285l-2 -21l23 2v-285l-52 5l-10 -103l271 62v-420l-271 61l10 -98l52 4v-285l-23 2l2 -24h-285l7 53l-103 10l62 -268h-420
l61 268l-102 -10l6 -53h-285l2 24zM925 1040v-137h135l-12 125zM628 1040l-123 -12l-12 -125h135v137zM925 473l123 12l12 121h-135v-133zM493 606l12 -121l123 -12v133h-135z" />
    <glyph glyph-name="glyph435" 
d="M227 227v285l51 -4l10 98l-268 -61v420l268 -62l-10 103l-51 -5v285l22 -2l-2 21h285l-4 -50l100 -10l-61 271h420l-62 -271l101 10l-5 50h285l-2 -21l23 2v-285l-52 5l-10 -103l271 62v-420l-271 61l10 -98l52 4v-285l-23 2l2 -24h-285l7 53l-103 10l62 -268h-420
l61 268l-102 -10l6 -53h-285l2 24zM925 1040v-137h135l-12 125zM628 1040l-123 -12l-12 -125h135v137zM925 473l123 12l12 121h-135v-133zM493 606l12 -121l123 -12v133h-135z" />
    <glyph glyph-name="glyph436" 
d="M227 227v285l51 -4l10 98l-268 -61v420l268 -62l-10 103l-51 -5v285l22 -2l-2 21h285l-4 -50l100 -10l-61 271h420l-62 -271l101 10l-5 50h285l-2 -21l23 2v-285l-52 5l-10 -103l271 62v-420l-271 61l10 -98l52 4v-285l-23 2l2 -24h-285l7 53l-103 10l62 -268h-420
l61 268l-102 -10l6 -53h-285l2 24zM925 1040v-137h135l-12 125zM628 1040l-123 -12l-12 -125h135v137zM925 473l123 12l12 121h-135v-133zM493 606l12 -121l123 -12v133h-135z" />
    <glyph glyph-name="SmallAlef" 
d="M227 227v285l51 -4l10 98l-268 -61v420l268 -62l-10 103l-51 -5v285l22 -2l-2 21h285l-4 -50l100 -10l-61 271h420l-62 -271l101 10l-5 50h285l-2 -21l23 2v-285l-52 5l-10 -103l271 62v-420l-271 61l10 -98l52 4v-285l-23 2l2 -24h-285l7 53l-103 10l62 -268h-420
l61 268l-102 -10l6 -53h-285l2 24zM925 1040v-137h135l-12 125zM628 1040l-123 -12l-12 -125h135v137zM925 473l123 12l12 121h-135v-133zM493 606l12 -121l123 -12v133h-135z" />
    <glyph glyph-name="SmallBet" 
d="M227 227v285l51 -4l10 98l-268 -61v420l268 -62l-10 103l-51 -5v285l22 -2l-2 21h285l-4 -50l100 -10l-61 271h420l-62 -271l101 10l-5 50h285l-2 -21l23 2v-285l-52 5l-10 -103l271 62v-420l-271 61l10 -98l52 4v-285l-23 2l2 -24h-285l7 53l-103 10l62 -268h-420
l61 268l-102 -10l6 -53h-285l2 24zM925 1040v-137h135l-12 125zM628 1040l-123 -12l-12 -125h135v137zM925 473l123 12l12 121h-135v-133zM493 606l12 -121l123 -12v133h-135z" />
    <glyph glyph-name="SmallGimel" 
d="M227 227v285l51 -4l10 98l-268 -61v420l268 -62l-10 103l-51 -5v285l22 -2l-2 21h285l-4 -50l100 -10l-61 271h420l-62 -271l101 10l-5 50h285l-2 -21l23 2v-285l-52 5l-10 -103l271 62v-420l-271 61l10 -98l52 4v-285l-23 2l2 -24h-285l7 53l-103 10l62 -268h-420
l61 268l-102 -10l6 -53h-285l2 24zM925 1040v-137h135l-12 125zM628 1040l-123 -12l-12 -125h135v137zM925 473l123 12l12 121h-135v-133zM493 606l12 -121l123 -12v133h-135z" />
    <glyph glyph-name="SmallDalet" 
d="M227 227v285l51 -4l10 98l-268 -61v420l268 -62l-10 103l-51 -5v285l22 -2l-2 21h285l-4 -50l100 -10l-61 271h420l-62 -271l101 10l-5 50h285l-2 -21l23 2v-285l-52 5l-10 -103l271 62v-420l-271 61l10 -98l52 4v-285l-23 2l2 -24h-285l7 53l-103 10l62 -268h-420
l61 268l-102 -10l6 -53h-285l2 24zM925 1040v-137h135l-12 125zM628 1040l-123 -12l-12 -125h135v137zM925 473l123 12l12 121h-135v-133zM493 606l12 -121l123 -12v133h-135z" />
    <glyph glyph-name="SmallHe" 
d="M227 227v285l51 -4l10 98l-268 -61v420l268 -62l-10 103l-51 -5v285l22 -2l-2 21h285l-4 -50l100 -10l-61 271h420l-62 -271l101 10l-5 50h285l-2 -21l23 2v-285l-52 5l-10 -103l271 62v-420l-271 61l10 -98l52 4v-285l-23 2l2 -24h-285l7 53l-103 10l62 -268h-420
l61 268l-102 -10l6 -53h-285l2 24zM925 1040v-137h135l-12 125zM628 1040l-123 -12l-12 -125h135v137zM925 473l123 12l12 121h-135v-133zM493 606l12 -121l123 -12v133h-135z" />
    <glyph glyph-name="SmallVav" 
d="M227 227v285l51 -4l10 98l-268 -61v420l268 -62l-10 103l-51 -5v285l22 -2l-2 21h285l-4 -50l100 -10l-61 271h420l-62 -271l101 10l-5 50h285l-2 -21l23 2v-285l-52 5l-10 -103l271 62v-420l-271 61l10 -98l52 4v-285l-23 2l2 -24h-285l7 53l-103 10l62 -268h-420
l61 268l-102 -10l6 -53h-285l2 24zM925 1040v-137h135l-12 125zM628 1040l-123 -12l-12 -125h135v137zM925 473l123 12l12 121h-135v-133zM493 606l12 -121l123 -12v133h-135z" />
    <glyph glyph-name="SmallZayin" 
d="M227 227v285l51 -4l10 98l-268 -61v420l268 -62l-10 103l-51 -5v285l22 -2l-2 21h285l-4 -50l100 -10l-61 271h420l-62 -271l101 10l-5 50h285l-2 -21l23 2v-285l-52 5l-10 -103l271 62v-420l-271 61l10 -98l52 4v-285l-23 2l2 -24h-285l7 53l-103 10l62 -268h-420
l61 268l-102 -10l6 -53h-285l2 24zM925 1040v-137h135l-12 125zM628 1040l-123 -12l-12 -125h135v137zM925 473l123 12l12 121h-135v-133zM493 606l12 -121l123 -12v133h-135z" />
    <glyph glyph-name="SmallHet" 
d="M227 227v285l51 -4l10 98l-268 -61v420l268 -62l-10 103l-51 -5v285l22 -2l-2 21h285l-4 -50l100 -10l-61 271h420l-62 -271l101 10l-5 50h285l-2 -21l23 2v-285l-52 5l-10 -103l271 62v-420l-271 61l10 -98l52 4v-285l-23 2l2 -24h-285l7 53l-103 10l62 -268h-420
l61 268l-102 -10l6 -53h-285l2 24zM925 1040v-137h135l-12 125zM628 1040l-123 -12l-12 -125h135v137zM925 473l123 12l12 121h-135v-133zM493 606l12 -121l123 -12v133h-135z" />
    <glyph glyph-name="SmallTet" 
d="M227 227v285l51 -4l10 98l-268 -61v420l268 -62l-10 103l-51 -5v285l22 -2l-2 21h285l-4 -50l100 -10l-61 271h420l-62 -271l101 10l-5 50h285l-2 -21l23 2v-285l-52 5l-10 -103l271 62v-420l-271 61l10 -98l52 4v-285l-23 2l2 -24h-285l7 53l-103 10l62 -268h-420
l61 268l-102 -10l6 -53h-285l2 24zM925 1040v-137h135l-12 125zM628 1040l-123 -12l-12 -125h135v137zM925 473l123 12l12 121h-135v-133zM493 606l12 -121l123 -12v133h-135z" />
    <glyph glyph-name="SmallYod" 
d="M227 227v285l51 -4l10 98l-268 -61v420l268 -62l-10 103l-51 -5v285l22 -2l-2 21h285l-4 -50l100 -10l-61 271h420l-62 -271l101 10l-5 50h285l-2 -21l23 2v-285l-52 5l-10 -103l271 62v-420l-271 61l10 -98l52 4v-285l-23 2l2 -24h-285l7 53l-103 10l62 -268h-420
l61 268l-102 -10l6 -53h-285l2 24zM925 1040v-137h135l-12 125zM628 1040l-123 -12l-12 -125h135v137zM925 473l123 12l12 121h-135v-133zM493 606l12 -121l123 -12v133h-135z" />
    <glyph glyph-name="SmallFinalKaf" 
d="M227 227v285l51 -4l10 98l-268 -61v420l268 -62l-10 103l-51 -5v285l22 -2l-2 21h285l-4 -50l100 -10l-61 271h420l-62 -271l101 10l-5 50h285l-2 -21l23 2v-285l-52 5l-10 -103l271 62v-420l-271 61l10 -98l52 4v-285l-23 2l2 -24h-285l7 53l-103 10l62 -268h-420
l61 268l-102 -10l6 -53h-285l2 24zM925 1040v-137h135l-12 125zM628 1040l-123 -12l-12 -125h135v137zM925 473l123 12l12 121h-135v-133zM493 606l12 -121l123 -12v133h-135z" />
    <glyph glyph-name="Smallkaf" 
d="M227 227v285l51 -4l10 98l-268 -61v420l268 -62l-10 103l-51 -5v285l22 -2l-2 21h285l-4 -50l100 -10l-61 271h420l-62 -271l101 10l-5 50h285l-2 -21l23 2v-285l-52 5l-10 -103l271 62v-420l-271 61l10 -98l52 4v-285l-23 2l2 -24h-285l7 53l-103 10l62 -268h-420
l61 268l-102 -10l6 -53h-285l2 24zM925 1040v-137h135l-12 125zM628 1040l-123 -12l-12 -125h135v137zM925 473l123 12l12 121h-135v-133zM493 606l12 -121l123 -12v133h-135z" />
    <glyph glyph-name="SmallLamed" 
d="M227 227v285l51 -4l10 98l-268 -61v420l268 -62l-10 103l-51 -5v285l22 -2l-2 21h285l-4 -50l100 -10l-61 271h420l-62 -271l101 10l-5 50h285l-2 -21l23 2v-285l-52 5l-10 -103l271 62v-420l-271 61l10 -98l52 4v-285l-23 2l2 -24h-285l7 53l-103 10l62 -268h-420
l61 268l-102 -10l6 -53h-285l2 24zM925 1040v-137h135l-12 125zM628 1040l-123 -12l-12 -125h135v137zM925 473l123 12l12 121h-135v-133zM493 606l12 -121l123 -12v133h-135z" />
    <glyph glyph-name="SmallFinalMem" 
d="M227 227v285l51 -4l10 98l-268 -61v420l268 -62l-10 103l-51 -5v285l22 -2l-2 21h285l-4 -50l100 -10l-61 271h420l-62 -271l101 10l-5 50h285l-2 -21l23 2v-285l-52 5l-10 -103l271 62v-420l-271 61l10 -98l52 4v-285l-23 2l2 -24h-285l7 53l-103 10l62 -268h-420
l61 268l-102 -10l6 -53h-285l2 24zM925 1040v-137h135l-12 125zM628 1040l-123 -12l-12 -125h135v137zM925 473l123 12l12 121h-135v-133zM493 606l12 -121l123 -12v133h-135z" />
    <glyph glyph-name="SmallMem" 
d="M227 227v285l51 -4l10 98l-268 -61v420l268 -62l-10 103l-51 -5v285l22 -2l-2 21h285l-4 -50l100 -10l-61 271h420l-62 -271l101 10l-5 50h285l-2 -21l23 2v-285l-52 5l-10 -103l271 62v-420l-271 61l10 -98l52 4v-285l-23 2l2 -24h-285l7 53l-103 10l62 -268h-420
l61 268l-102 -10l6 -53h-285l2 24zM925 1040v-137h135l-12 125zM628 1040l-123 -12l-12 -125h135v137zM925 473l123 12l12 121h-135v-133zM493 606l12 -121l123 -12v133h-135z" />
    <glyph glyph-name="SmallFinalNun" 
d="M227 227v285l51 -4l10 98l-268 -61v420l268 -62l-10 103l-51 -5v285l22 -2l-2 21h285l-4 -50l100 -10l-61 271h420l-62 -271l101 10l-5 50h285l-2 -21l23 2v-285l-52 5l-10 -103l271 62v-420l-271 61l10 -98l52 4v-285l-23 2l2 -24h-285l7 53l-103 10l62 -268h-420
l61 268l-102 -10l6 -53h-285l2 24zM925 1040v-137h135l-12 125zM628 1040l-123 -12l-12 -125h135v137zM925 473l123 12l12 121h-135v-133zM493 606l12 -121l123 -12v133h-135z" />
    <glyph glyph-name="SmallNun" 
d="M227 227v285l51 -4l10 98l-268 -61v420l268 -62l-10 103l-51 -5v285l22 -2l-2 21h285l-4 -50l100 -10l-61 271h420l-62 -271l101 10l-5 50h285l-2 -21l23 2v-285l-52 5l-10 -103l271 62v-420l-271 61l10 -98l52 4v-285l-23 2l2 -24h-285l7 53l-103 10l62 -268h-420
l61 268l-102 -10l6 -53h-285l2 24zM925 1040v-137h135l-12 125zM628 1040l-123 -12l-12 -125h135v137zM925 473l123 12l12 121h-135v-133zM493 606l12 -121l123 -12v133h-135z" />
    <glyph glyph-name="SmallSamech" 
d="M227 227v285l51 -4l10 98l-268 -61v420l268 -62l-10 103l-51 -5v285l22 -2l-2 21h285l-4 -50l100 -10l-61 271h420l-62 -271l101 10l-5 50h285l-2 -21l23 2v-285l-52 5l-10 -103l271 62v-420l-271 61l10 -98l52 4v-285l-23 2l2 -24h-285l7 53l-103 10l62 -268h-420
l61 268l-102 -10l6 -53h-285l2 24zM925 1040v-137h135l-12 125zM628 1040l-123 -12l-12 -125h135v137zM925 473l123 12l12 121h-135v-133zM493 606l12 -121l123 -12v133h-135z" />
    <glyph glyph-name="SmallAyin" 
d="M227 227v285l51 -4l10 98l-268 -61v420l268 -62l-10 103l-51 -5v285l22 -2l-2 21h285l-4 -50l100 -10l-61 271h420l-62 -271l101 10l-5 50h285l-2 -21l23 2v-285l-52 5l-10 -103l271 62v-420l-271 61l10 -98l52 4v-285l-23 2l2 -24h-285l7 53l-103 10l62 -268h-420
l61 268l-102 -10l6 -53h-285l2 24zM925 1040v-137h135l-12 125zM628 1040l-123 -12l-12 -125h135v137zM925 473l123 12l12 121h-135v-133zM493 606l12 -121l123 -12v133h-135z" />
    <glyph glyph-name="SmallFinalPe" 
d="M227 227v285l51 -4l10 98l-268 -61v420l268 -62l-10 103l-51 -5v285l22 -2l-2 21h285l-4 -50l100 -10l-61 271h420l-62 -271l101 10l-5 50h285l-2 -21l23 2v-285l-52 5l-10 -103l271 62v-420l-271 61l10 -98l52 4v-285l-23 2l2 -24h-285l7 53l-103 10l62 -268h-420
l61 268l-102 -10l6 -53h-285l2 24zM925 1040v-137h135l-12 125zM628 1040l-123 -12l-12 -125h135v137zM925 473l123 12l12 121h-135v-133zM493 606l12 -121l123 -12v133h-135z" />
    <glyph glyph-name="SmallPe" 
d="M227 227v285l51 -4l10 98l-268 -61v420l268 -62l-10 103l-51 -5v285l22 -2l-2 21h285l-4 -50l100 -10l-61 271h420l-62 -271l101 10l-5 50h285l-2 -21l23 2v-285l-52 5l-10 -103l271 62v-420l-271 61l10 -98l52 4v-285l-23 2l2 -24h-285l7 53l-103 10l62 -268h-420
l61 268l-102 -10l6 -53h-285l2 24zM925 1040v-137h135l-12 125zM628 1040l-123 -12l-12 -125h135v137zM925 473l123 12l12 121h-135v-133zM493 606l12 -121l123 -12v133h-135z" />
    <glyph glyph-name="SmallFinalTzadi" 
d="M227 227v285l51 -4l10 98l-268 -61v420l268 -62l-10 103l-51 -5v285l22 -2l-2 21h285l-4 -50l100 -10l-61 271h420l-62 -271l101 10l-5 50h285l-2 -21l23 2v-285l-52 5l-10 -103l271 62v-420l-271 61l10 -98l52 4v-285l-23 2l2 -24h-285l7 53l-103 10l62 -268h-420
l61 268l-102 -10l6 -53h-285l2 24zM925 1040v-137h135l-12 125zM628 1040l-123 -12l-12 -125h135v137zM925 473l123 12l12 121h-135v-133zM493 606l12 -121l123 -12v133h-135z" />
    <glyph glyph-name="SmallTzadi" 
d="M227 227v285l51 -4l10 98l-268 -61v420l268 -62l-10 103l-51 -5v285l22 -2l-2 21h285l-4 -50l100 -10l-61 271h420l-62 -271l101 10l-5 50h285l-2 -21l23 2v-285l-52 5l-10 -103l271 62v-420l-271 61l10 -98l52 4v-285l-23 2l2 -24h-285l7 53l-103 10l62 -268h-420
l61 268l-102 -10l6 -53h-285l2 24zM925 1040v-137h135l-12 125zM628 1040l-123 -12l-12 -125h135v137zM925 473l123 12l12 121h-135v-133zM493 606l12 -121l123 -12v133h-135z" />
    <glyph glyph-name="SmallQof" 
d="M227 227v285l51 -4l10 98l-268 -61v420l268 -62l-10 103l-51 -5v285l22 -2l-2 21h285l-4 -50l100 -10l-61 271h420l-62 -271l101 10l-5 50h285l-2 -21l23 2v-285l-52 5l-10 -103l271 62v-420l-271 61l10 -98l52 4v-285l-23 2l2 -24h-285l7 53l-103 10l62 -268h-420
l61 268l-102 -10l6 -53h-285l2 24zM925 1040v-137h135l-12 125zM628 1040l-123 -12l-12 -125h135v137zM925 473l123 12l12 121h-135v-133zM493 606l12 -121l123 -12v133h-135z" />
    <glyph glyph-name="SmallResh" 
d="M227 227v285l51 -4l10 98l-268 -61v420l268 -62l-10 103l-51 -5v285l22 -2l-2 21h285l-4 -50l100 -10l-61 271h420l-62 -271l101 10l-5 50h285l-2 -21l23 2v-285l-52 5l-10 -103l271 62v-420l-271 61l10 -98l52 4v-285l-23 2l2 -24h-285l7 53l-103 10l62 -268h-420
l61 268l-102 -10l6 -53h-285l2 24zM925 1040v-137h135l-12 125zM628 1040l-123 -12l-12 -125h135v137zM925 473l123 12l12 121h-135v-133zM493 606l12 -121l123 -12v133h-135z" />
    <glyph glyph-name="SmallShin" 
d="M227 227v285l51 -4l10 98l-268 -61v420l268 -62l-10 103l-51 -5v285l22 -2l-2 21h285l-4 -50l100 -10l-61 271h420l-62 -271l101 10l-5 50h285l-2 -21l23 2v-285l-52 5l-10 -103l271 62v-420l-271 61l10 -98l52 4v-285l-23 2l2 -24h-285l7 53l-103 10l62 -268h-420
l61 268l-102 -10l6 -53h-285l2 24zM925 1040v-137h135l-12 125zM628 1040l-123 -12l-12 -125h135v137zM925 473l123 12l12 121h-135v-133zM493 606l12 -121l123 -12v133h-135z" />
    <glyph glyph-name="SmallTav" 
d="M227 227v285l51 -4l10 98l-268 -61v420l268 -62l-10 103l-51 -5v285l22 -2l-2 21h285l-4 -50l100 -10l-61 271h420l-62 -271l101 10l-5 50h285l-2 -21l23 2v-285l-52 5l-10 -103l271 62v-420l-271 61l10 -98l52 4v-285l-23 2l2 -24h-285l7 53l-103 10l62 -268h-420
l61 268l-102 -10l6 -53h-285l2 24zM925 1040v-137h135l-12 125zM628 1040l-123 -12l-12 -125h135v137zM925 473l123 12l12 121h-135v-133zM493 606l12 -121l123 -12v133h-135z" />
    <glyph glyph-name="SmallNUMzero" horiz-adv-x="1314" 
d="M658 -26c-197.333 0 -349.667 70.666 -457 211.999c-96 126.667 -144 292 -144 496c0 203.333 48.333 368.666 145 495.999c106.667 141.333 258.667 212 456 212c196.667 0 348.334 -70.667 455.001 -212c95.333 -127.333 143 -292.666 143 -495.999
s-47.667 -368.666 -143 -495.999c-106.667 -141.333 -258.334 -212 -455.001 -212zM657.999 1089c-149.333 0 -224 -135.667 -224 -407c0 -276 74.667 -414 224 -414c147.333 0 221 138 221 414c0 271.333 -73.667 407 -221 407z" />
    <glyph glyph-name="SmallNUMone" horiz-adv-x="874" 
d="M34 0l-0.00195312 291.001h241v736c-77.333 -39.333 -156.666 -59 -237.999 -59v308c106.667 3.33301 189.334 32.666 248.001 87.999h358v-1073h208v-291h-817z" />
    <glyph glyph-name="SmallNUMtwo" horiz-adv-x="1152" 
d="M26 0l-0.000976562 34c0 122 19.667 221.667 59 299c57.333 114 167.333 222 330 324l138 87c38.667 24 69.334 46 92.001 66c44 39.333 66 88.333 66 147c0 79.333 -44.333 119 -133 119c-102 0 -196.333 -59.667 -283 -179l-264 192c146 200.667 332 301 558 301
c326.667 0 490 -135.667 490 -407c0 -86.667 -14.333 -157 -43 -211c-40.667 -76.667 -121 -153.334 -241 -230.001c-50.667 -31.333 -125 -80.666 -223 -147.999c-55.333 -42 -86.333 -76.333 -93 -103h609v-291h-1062z" />
    <glyph glyph-name="SmallNUMthree" horiz-adv-x="1172" 
d="M562 -26c-236.667 0 -424 76.332 -562 228.999l229 212c42.667 -46.667 94.334 -82.667 155.001 -108c55.333 -23.333 108.666 -35 159.999 -35c128.667 0 193 48.333 193 145c0 66 -32 110.333 -96 133c-38.667 14 -98.667 21 -180 21h-81v273h83
c142 0 222.333 29 241 87c4 12.667 6 27 6 43c0 71.333 -52 107 -156 107c-114.667 0 -215.667 -37.333 -303 -112l-199 239c138 120 320 180 546 180c323.333 0 485 -118.333 485 -355c0 -163.333 -81 -266.666 -243 -309.999c88 -17.333 158 -54.333 210 -111
c55.333 -59.333 83 -132.333 83 -219c0 -146 -61.667 -255.667 -185 -329c-101.333 -60 -230 -90 -386 -90z" />
    <glyph glyph-name="SmallNUMfour" horiz-adv-x="1297" 
d="M1077 238v-238h-356v238h-674v272l624 854h406v-832h190v-294h-190zM721 929l-293 -397h293v397z" />
    <glyph glyph-name="SmallNUMfive" horiz-adv-x="1142" 
d="M547 -26c-211.333 0 -392.333 52.333 -543 157l183 254c108.667 -75.333 220 -113 334 -113c149.333 0 224 62.333 224 187c0 132.667 -67 199 -201 199c-84 0 -159.333 -37.333 -226 -112l-237 72l56 746h882l-19 -281h-575l-19 -213
c56.667 41.333 142.334 62 257.001 62c145.333 0 258.166 -40.833 338.499 -122.5s120.5 -195.167 120.5 -340.5c0 -160 -57 -284.667 -171 -374c-104 -80.667 -238.667 -121 -404 -121z" />
    <glyph glyph-name="SmallNUMsix" horiz-adv-x="1237" 
d="M648 -26c-194 0 -343.334 67.001 -448.001 201.001c-95.333 122 -143 283 -143 483c0 257.333 70.333 449.666 211 576.999c113.333 103.333 254 155 422 155c141.333 0 260.333 -25.333 357 -76c24 -12.667 48.667 -27.667 74 -45l-158 -253
c-81.333 51.333 -166 77 -254 77c-160 0 -253.333 -97.667 -280 -293c99.333 61.333 204.333 92 315 92c140.667 0 250.334 -37.333 329.001 -112c81.333 -76.667 122 -185 122 -325c0 -152.667 -54 -272.667 -162 -360c-100 -80.667 -228.333 -121 -385 -121z
M664.999 616.001c-94 0 -173.668 -24 -239.001 -72c8.66699 -192 87.667 -288 237 -288c52.667 0 95.334 17.167 128.001 51.5s49 77.833 49 130.5c0 118.667 -58.333 178 -175 178z" />
    <glyph glyph-name="SmallNUMseven" horiz-adv-x="985" 
d="M496 0h-384l481 1065h-585v299h972v-271z" />
    <glyph glyph-name="SmallNUMeight" horiz-adv-x="1198" 
d="M598 -26c-156.667 0 -284.669 25.667 -384.002 77c-129.333 66 -194 170 -194 312c0 76.667 27.667 147 83 211c48.667 56 111.667 100.667 189 134c-70.667 40 -121 80.667 -151 122c-38.667 53.333 -58 121.666 -58 204.999c0 96.667 42.667 178 128 244
c94.667 74 223.667 111 387 111c168.667 0 299.334 -37 392.001 -111c82.667 -64.667 124 -146 124 -244c0 -148 -67.667 -254 -203 -318c84.667 -38 146.334 -78.667 185.001 -122c54 -59.333 81 -136.666 81 -231.999c0 -141.333 -64.667 -245.333 -194 -312
c-100 -51.333 -228.333 -77 -385 -77zM599.998 1128c-100.667 0 -150.999 -41.333 -150.999 -124c0 -69.333 59 -124 177 -164c81.333 44 122 97.333 122 160c0 41.333 -14.667 73.333 -44 96c-26.667 21.333 -61.334 32 -104.001 32zM570.999 574
c-113.333 -58.667 -170 -121.999 -170 -189.999c0 -104 65.667 -156 197 -156c132 0 198 52 198 156c0 69.333 -75 132.666 -225 189.999z" />
    <glyph glyph-name="SmallNUMnine" horiz-adv-x="1237" 
d="M1120 353c-67.333 -171.333 -186.332 -286.001 -356.999 -344.001c-69.333 -23.333 -142 -35 -218 -35c-142.667 0 -261.667 25.333 -357 76c-21.333 11.333 -45.666 26.333 -72.999 45l158 245c81.333 -51.333 166 -77 254 -77c158.667 0 251.667 100.333 279 301
c-98 -61.333 -202.667 -92 -314 -92c-140.667 0 -250.334 37 -329.001 111c-81.333 76.667 -122 185.334 -122 326.001c0 153.333 54 273.333 162 360c99.333 80.667 227.666 121 384.999 121c194 0 343.333 -67.333 448 -202c95.333 -122 143 -283 143 -483
c0 -134.667 -19.667 -252 -59 -352zM573.001 1098c-52.667 0 -95.332 -15.667 -127.999 -47s-49 -73.333 -49 -126c0 -118.667 58.333 -178 175 -178c93.333 0 172.666 24.333 237.999 73c-7.33301 185.333 -86 278 -236 278z" />
    <glyph glyph-name="glyph474" 
d="M227 227v285l51 -4l10 98l-268 -61v420l268 -62l-10 103l-51 -5v285l22 -2l-2 21h285l-4 -50l100 -10l-61 271h420l-62 -271l101 10l-5 50h285l-2 -21l23 2v-285l-52 5l-10 -103l271 62v-420l-271 61l10 -98l52 4v-285l-23 2l2 -24h-285l7 53l-103 10l62 -268h-420
l61 268l-102 -10l6 -53h-285l2 24zM925 1040v-137h135l-12 125zM628 1040l-123 -12l-12 -125h135v137zM925 473l123 12l12 121h-135v-133zM493 606l12 -121l123 -12v133h-135z" />
    <glyph glyph-name="Smallsimankrya" 
d="M227 227v285l51 -4l10 98l-268 -61v420l268 -62l-10 103l-51 -5v285l22 -2l-2 21h285l-4 -50l100 -10l-61 271h420l-62 -271l101 10l-5 50h285l-2 -21l23 2v-285l-52 5l-10 -103l271 62v-420l-271 61l10 -98l52 4v-285l-23 2l2 -24h-285l7 53l-103 10l62 -268h-420
l61 268l-102 -10l6 -53h-285l2 24zM925 1040v-137h135l-12 125zM628 1040l-123 -12l-12 -125h135v137zM925 473l123 12l12 121h-135v-133zM493 606l12 -121l123 -12v133h-135z" />
    <glyph glyph-name="SmallMerhaottwo" 
d="M227 227v285l51 -4l10 98l-268 -61v420l268 -62l-10 103l-51 -5v285l22 -2l-2 21h285l-4 -50l100 -10l-61 271h420l-62 -271l101 10l-5 50h285l-2 -21l23 2v-285l-52 5l-10 -103l271 62v-420l-271 61l10 -98l52 4v-285l-23 2l2 -24h-285l7 53l-103 10l62 -268h-420
l61 268l-102 -10l6 -53h-285l2 24zM925 1040v-137h135l-12 125zM628 1040l-123 -12l-12 -125h135v137zM925 473l123 12l12 121h-135v-133zM493 606l12 -121l123 -12v133h-135z" />
    <glyph glyph-name="SmallMerhaotone" 
d="M227 227v285l51 -4l10 98l-268 -61v420l268 -62l-10 103l-51 -5v285l22 -2l-2 21h285l-4 -50l100 -10l-61 271h420l-62 -271l101 10l-5 50h285l-2 -21l23 2v-285l-52 5l-10 -103l271 62v-420l-271 61l10 -98l52 4v-285l-23 2l2 -24h-285l7 53l-103 10l62 -268h-420
l61 268l-102 -10l6 -53h-285l2 24zM925 1040v-137h135l-12 125zM628 1040l-123 -12l-12 -125h135v137zM925 473l123 12l12 121h-135v-133zM493 606l12 -121l123 -12v133h-135z" />
    <glyph glyph-name="SmallSograyimL" 
d="M227 227v285l51 -4l10 98l-268 -61v420l268 -62l-10 103l-51 -5v285l22 -2l-2 21h285l-4 -50l100 -10l-61 271h420l-62 -271l101 10l-5 50h285l-2 -21l23 2v-285l-52 5l-10 -103l271 62v-420l-271 61l10 -98l52 4v-285l-23 2l2 -24h-285l7 53l-103 10l62 -268h-420
l61 268l-102 -10l6 -53h-285l2 24zM925 1040v-137h135l-12 125zM628 1040l-123 -12l-12 -125h135v137zM925 473l123 12l12 121h-135v-133zM493 606l12 -121l123 -12v133h-135z" />
    <glyph glyph-name="SmallSograyimR" 
d="M227 227v285l51 -4l10 98l-268 -61v420l268 -62l-10 103l-51 -5v285l22 -2l-2 21h285l-4 -50l100 -10l-61 271h420l-62 -271l101 10l-5 50h285l-2 -21l23 2v-285l-52 5l-10 -103l271 62v-420l-271 61l10 -98l52 4v-285l-23 2l2 -24h-285l7 53l-103 10l62 -268h-420
l61 268l-102 -10l6 -53h-285l2 24zM925 1040v-137h135l-12 125zM628 1040l-123 -12l-12 -125h135v137zM925 473l123 12l12 121h-135v-133zM493 606l12 -121l123 -12v133h-135z" />
    </font>
</defs>
</svg>
