<?xml version="1.0" standalone="no"?>
<!DOCTYPE svg PUBLIC "-//W3C//DTD SVG 1.1//EN" "http://www.w3.org/Graphics/SVG/1.1/DTD/svg11.dtd" >
<svg xmlns="http://www.w3.org/2000/svg" xmlns:xlink="http://www.w3.org/1999/xlink" version="1.1">
<metadata></metadata>
<defs>
<font id="typocellcomcond" horiz-adv-x="1587" >
<font-face units-per-em="2048" ascent="1638" descent="-410" />
<missing-glyph horiz-adv-x="407" />
<glyph horiz-adv-x="0" />
<glyph unicode="&#xd;" horiz-adv-x="512" />
<glyph unicode=" "  horiz-adv-x="407" />
<glyph unicode="&#x09;" horiz-adv-x="407" />
<glyph unicode="&#xa0;" horiz-adv-x="407" />
<glyph unicode="!" horiz-adv-x="575" d="M188 1516h201l-41 -1100h-119zM190 0v205h197v-205h-197z" />
<glyph unicode="&#x22;" horiz-adv-x="751" d="M133 1403v113h160v-113l-29 -408h-100zM461 1403v113h155v-113l-28 -408h-99z" />
<glyph unicode="#" horiz-adv-x="1128" d="M60 394v122h203l59 332h-193v121h215l70 395h137l-70 -395h261l71 395h136l-71 -395h187v-121h-208l-60 -332h199v-122h-220l-69 -394h-138l70 394h-260l-70 -394h-138l70 394h-181zM400 514h261l59 336h-262z" />
<glyph unicode="$" horiz-adv-x="1030" d="M85 308l130 47q91 -200 242 -228v522q-76 33 -121 59q-64 36 -107 77q-104 99 -104 253q0 142 94 231q88 85 233 99v141h118v-143q226 -31 320 -273l-127 -57q-75 170 -200 197v-475l67 -30q112 -50 181 -112q116 -106 116 -271q0 -317 -357 -347v-169h-118v171 q-262 28 -367 308zM273 1047q0 -144 184 -240v431q-184 -19 -184 -191zM563 123q215 23 215 211q0 160 -215 265v-476z" />
<glyph unicode="%" horiz-adv-x="1539" d="M75 966q0 420 277 420q273 0 273 -420q0 -421 -273 -421q-277 0 -277 421zM219 966q0 -291 133 -291q131 0 131 291q0 290 -131 290q-133 0 -133 -290zM345 0l701 1365h146l-701 -1365h-146zM914 403q0 419 277 419q271 0 271 -419q0 -421 -271 -421q-277 0 -277 421z M1056 403q0 -294 135 -294q130 0 130 294q0 288 -130 288q-135 0 -135 -288z" />
<glyph unicode="&#x26;" horiz-adv-x="1275" d="M59 356q0 152 92 277q39 53 97 104q49 43 116 90q-94 189 -94 365q0 156 82 251q87 101 239 101q143 0 219 -86q68 -77 68 -203q0 -142 -96 -260q-40 -50 -102 -102q-48 -40 -121 -90q20 -36 53 -87l72 -110l92 -126q58 -78 104 -130q90 161 113 412h153 q-36 -313 -157 -510q133 -118 250 -121v-151q-185 5 -349 145q-153 -154 -382 -154q-449 0 -449 385zM227 369q0 -258 287 -258q166 0 270 110q-56 63 -118 145q-55 72 -122 169l-59 87q-33 48 -55 87q-96 -73 -146 -152q-57 -89 -57 -188zM430 1202q0 -132 71 -284 q109 76 160 142q66 84 66 183q0 162 -136 162q-161 0 -161 -203z" />
<glyph unicode="'" horiz-adv-x="430" d="M133 1403v113h160v-113l-29 -408h-100z" />
<glyph unicode="(" horiz-adv-x="714" d="M100 561q0 284 116 535q109 236 320 442l96 -80q-166 -186 -258 -407q-98 -238 -98 -490q0 -256 99 -496q93 -225 260 -405l-99 -80q-211 207 -320 444q-116 252 -116 537z" />
<glyph unicode=")" horiz-adv-x="714" d="M79 -340q168 186 260 407q98 238 98 492q0 255 -98 494q-93 226 -260 405l96 80q212 -207 321 -443q115 -251 115 -536q0 -283 -115 -535q-109 -236 -321 -444z" />
<glyph unicode="*" horiz-adv-x="948" d="M75 1075v123l340 -27l-197 285l111 68l145 -316l144 316l108 -68l-194 -285l340 27v-123l-340 27l194 -283l-108 -65l-144 313l-145 -313l-111 65l195 283z" />
<glyph unicode="+" horiz-adv-x="1095" d="M100 604v141h375v437h145v-437h375v-141h-375v-434h-145v434h-375z" />
<glyph unicode="," horiz-adv-x="485" d="M145 0v213h190v-193l-92 -229h-78l56 209h-76z" />
<glyph unicode="-" horiz-adv-x="630" d="M106 571v140h420v-140h-420z" />
<glyph unicode="." horiz-adv-x="485" d="M145 0v213h190v-213h-190z" />
<glyph unicode="/" horiz-adv-x="989" d="M34 0l750 1516h170l-750 -1516h-170z" />
<glyph unicode="0" horiz-adv-x="1153" d="M90 758q0 786 487 786q486 0 486 -786q0 -787 -486 -787q-487 0 -487 787zM260 758q0 -637 317 -637q316 0 316 637q0 635 -316 635q-317 0 -317 -635z" />
<glyph unicode="1" horiz-adv-x="780" d="M94 0v150h244v1187q-114 -69 -240 -69v149q163 7 246 99h160v-1366h217v-150h-627z" />
<glyph unicode="2" horiz-adv-x="1032" d="M75 0v33q0 117 30 217q26 89 78 167q43 67 110 132q48 48 126 109q13 11 32 26l94 74q69 57 111 104q107 122 107 273q0 258 -233 258q-190 0 -293 -252l-142 59q143 344 445 344q185 0 289 -111q100 -107 100 -290q0 -167 -104 -307q-42 -56 -107 -116 q-44 -41 -122 -104l-62 -50q-35 -28 -60 -50q-66 -57 -107 -105q-105 -123 -106 -261h670v-150h-856z" />
<glyph unicode="3" horiz-adv-x="1046" d="M30 307l143 60q96 -246 322 -246q291 0 291 291q0 321 -391 321h-54v139h88q322 0 322 285q0 108 -54 169q-61 69 -186 69q-173 0 -297 -172l-121 82q168 239 435 239q192 0 296 -110q93 -100 93 -263q0 -138 -72 -236q-66 -90 -176 -126q133 -43 203 -134 q80 -102 80 -263q0 -193 -124 -314q-125 -123 -327 -123q-183 0 -302 90q-107 82 -169 242z" />
<glyph unicode="4" horiz-adv-x="1083" d="M51 354v131l586 1031h190v-1010h213v-152h-213v-354h-164v354h-612zM227 506h438v778h-2z" />
<glyph unicode="5" horiz-adv-x="1032" d="M59 276l139 68q114 -227 305 -227q146 0 223 112q68 101 68 267q0 362 -264 362q-167 0 -274 -166l-129 29l49 795h708l-8 -154h-561l-35 -506q97 143 287 143q393 0 393 -495q0 -248 -121 -390q-121 -143 -331 -143q-160 0 -273 83q-101 74 -176 222z" />
<glyph unicode="6" horiz-adv-x="1077" d="M90 731q0 370 127 586q134 227 379 227q127 0 223 -63q70 -46 129 -131l-129 -86q-46 64 -90 94q-60 41 -139 41q-164 0 -251 -172q-82 -161 -85 -443q69 79 153 122q93 48 197 48q202 0 307 -135q97 -124 97 -342q0 -222 -117 -361q-121 -145 -328 -145q-217 0 -341 186 q-132 198 -132 574zM256 629q33 -514 315 -514q273 0 273 358q0 156 -59 240q-67 94 -206 94q-190 0 -323 -178z" />
<glyph unicode="7" horiz-adv-x="962" d="M75 1362v154h823v-142l-536 -1374h-172l532 1362h-647z" />
<glyph unicode="8" horiz-adv-x="1075" d="M63 360q0 148 97 258q42 48 107 94q55 39 134 81q-136 79 -200 159q-79 98 -79 230q0 152 105 253q115 111 311 111q198 0 311 -111q103 -100 103 -253q0 -125 -76 -218q-63 -77 -201 -153q81 -44 135 -83q64 -46 106 -95q95 -111 95 -268q0 -171 -123 -280 q-130 -116 -350 -116q-226 0 -355 114q-120 107 -120 277zM231 373q0 -267 307 -267q303 0 303 269q0 112 -87 200q-38 39 -99 79q-50 33 -127 75q-153 -85 -218 -158q-79 -87 -79 -198zM288 1178q0 -98 69 -171q56 -60 191 -130q240 129 240 297q0 97 -57 159 q-66 72 -191 72q-123 0 -191 -70q-61 -62 -61 -157z" />
<glyph unicode="9" horiz-adv-x="1077" d="M69 1038q0 222 118 362q123 144 328 144q219 0 341 -185q131 -198 131 -575q0 -371 -125 -585q-132 -228 -377 -228q-134 0 -234 66q-75 49 -135 139l127 86q54 -71 98 -102q64 -45 148 -45q162 0 249 172q83 162 83 444q-67 -78 -151 -122q-93 -48 -198 -48 q-201 0 -306 135q-97 125 -97 342zM233 1042q0 -156 59 -239q68 -94 209 -94q188 0 318 178q-31 512 -312 512q-274 0 -274 -357z" />
<glyph unicode=":" horiz-adv-x="491" d="M149 0v213h190v-213h-190zM149 868v213h190v-213h-190z" />
<glyph unicode=";" horiz-adv-x="491" d="M149 0v213h190v-190l-94 -232h-78l56 209h-74zM149 868v213h190v-213h-190z" />
<glyph unicode="&#x3c;" horiz-adv-x="1169" d="M118 602v123l922 457v-154l-752 -364l752 -365v-154z" />
<glyph unicode="=" horiz-adv-x="1095" d="M129 367v137h838v-137h-838zM129 827v138h838v-138h-838z" />
<glyph unicode="&#x3e;" horiz-adv-x="1169" d="M131 145v154l750 365l-750 364v154l924 -457v-123z" />
<glyph unicode="?" horiz-adv-x="954" d="M67 1247q67 139 167 214q111 83 259 83q178 0 281 -101q98 -97 98 -251q0 -130 -63 -225q-25 -38 -65 -78q-25 -25 -77 -70q-103 -93 -133 -165q-31 -75 -31 -238h-141q-1 26 -2 60v63q0 118 51 206q39 66 131 146q88 74 121 127q43 69 43 162q0 217 -223 217 q-90 0 -164 -61q-65 -54 -115 -152zM333 0v207h199v-207h-199z" />
<glyph unicode="@" horiz-adv-x="1523" d="M79 756q0 360 192 577q188 211 492 211q302 0 490 -208q190 -212 190 -558q0 -459 -309 -459q-179 0 -224 160q-60 -72 -123 -110q-73 -43 -155 -43q-257 0 -254 336q0 242 98 393q99 153 258 153q135 0 217 -110l13 92h133l-76 -600q-22 -176 127 -176q197 0 197 362 q0 310 -163 496q-159 182 -419 182q-263 0 -422 -184q-162 -189 -162 -512q0 -330 162 -518q157 -181 420 -181q192 0 360 95l41 -74q-174 -109 -403 -109q-310 0 -493 206q-187 210 -187 579zM517 676q-3 -236 150 -236q110 0 217 119l53 424q-78 107 -190 107 q-101 0 -165 -116q-63 -115 -65 -298z" />
<glyph unicode="A" horiz-adv-x="1155" d="M53 0l444 1522h160l445 -1522h-172l-121 436h-473l-121 -436h-162zM379 586h389l-135 478l-58 220h-4l-58 -221z" />
<glyph unicode="B" horiz-adv-x="1187" d="M155 0v1516h442q455 0 455 -381q0 -148 -74 -240q-62 -77 -166 -107v-4q128 -27 198 -109q83 -97 83 -263q0 -412 -461 -412h-477zM325 150h303q299 0 299 278q0 279 -332 279h-270v-557zM325 850h262q301 0 301 256t-297 256h-266v-512z" />
<glyph unicode="C" horiz-adv-x="1200" d="M94 762q0 373 148 581q144 201 393 201q201 0 320 -134q106 -119 149 -345l-160 -29q-72 350 -313 350q-175 0 -270 -165q-95 -163 -95 -457q0 -637 369 -637q250 0 327 369l158 -27q-47 -232 -161 -357q-125 -139 -326 -139q-254 0 -394 200q-145 205 -145 589z" />
<glyph unicode="D" horiz-adv-x="1226" d="M155 0v1516h334q321 0 479 -179q164 -185 164 -577t-167 -580q-159 -180 -476 -180h-334zM327 154h184q449 0 449 606q0 598 -451 598h-182v-1204z" />
<glyph unicode="E" horiz-adv-x="1040" d="M155 0v1516h774v-158h-602v-479h440v-156h-440v-567h637v-156h-809z" />
<glyph unicode="F" horiz-adv-x="978" d="M155 0v1516h764v-158h-592v-490h432v-155h-432v-713h-172z" />
<glyph unicode="G" horiz-adv-x="1251" d="M94 762q0 368 144 575q143 207 397 207q195 0 312 -128q108 -118 155 -351l-156 -31q-76 352 -315 352q-365 0 -365 -620q0 -639 373 -639q314 0 323 451h-288v147h442v-725h-137v207h-2q-42 -98 -125 -160q-100 -74 -232 -74q-251 0 -389 206q-137 206 -137 583z" />
<glyph unicode="H" horiz-adv-x="1269" d="M155 0v1516h172v-637h614v637h172v-1516h-172v721h-614v-721h-172z" />
<glyph unicode="I" horiz-adv-x="507" d="M167 0v1516h172v-1516h-172z" />
<glyph unicode="J" horiz-adv-x="882" d="M38 96l82 125q121 -94 252 -94q192 0 192 213v1176h172v-1178q0 -361 -352 -361q-192 0 -346 119z" />
<glyph unicode="K" horiz-adv-x="1163" d="M155 0v1516h172v-795q17 30 65 101l486 694h182l-420 -588l488 -928h-182l-412 782l-207 -282v-500h-172z" />
<glyph unicode="L" horiz-adv-x="991" d="M155 0v1516h172v-1360h600v-156h-772z" />
<glyph unicode="M" horiz-adv-x="1505" d="M155 0v1516h215l383 -1276h4l375 1276h215v-1516h-166v1241h-4q-13 -66 -45 -181q-24 -89 -59 -204l-261 -856h-135l-260 860q-29 94 -57 198q-31 111 -47 185h-4v-1243h-154z" />
<glyph unicode="N" horiz-adv-x="1284" d="M155 0v1516h201l475 -928q72 -139 133 -269h4v1197h158v-1516h-158l-580 1116q-32 65 -71 148h-4v-1264h-158z" />
<glyph unicode="O" horiz-adv-x="1284" d="M94 758q0 373 155 584q149 202 394 202q244 0 392 -202q155 -212 155 -584q0 -373 -155 -585q-148 -202 -392 -202q-245 0 -394 202q-155 212 -155 585zM266 758q0 -631 377 -631q373 0 373 631q0 628 -373 628q-377 0 -377 -628z" />
<glyph unicode="P" horiz-adv-x="1132" d="M155 0v1516h424q218 0 337 -102q130 -110 130 -331q0 -237 -139 -351q-121 -99 -338 -99h-244v-633h-170zM325 782h250q305 0 305 295q0 281 -307 281h-248v-576z" />
<glyph unicode="Q" horiz-adv-x="1284" d="M94 758q0 373 156 584q148 202 395 202q242 0 390 -202q155 -212 155 -584q0 -347 -133 -552q-125 -194 -338 -222q8 -128 79 -179q61 -43 195 -43h88v-147h-127q-207 0 -308 103q-92 94 -93 268q-209 31 -331 228q-128 205 -128 544zM266 758q0 -299 102 -468 q101 -167 277 -167q172 0 271 167q100 169 100 468q0 628 -371 628q-379 0 -379 -628z" />
<glyph unicode="R" horiz-adv-x="1167" d="M155 0v1516h430q461 0 461 -431q0 -172 -85 -280q-75 -96 -202 -129l307 -676h-176l-297 645h-268v-645h-170zM325 793h250q305 0 305 290q0 275 -305 275h-250v-565z" />
<glyph unicode="S" horiz-adv-x="1120" d="M67 334l147 67q56 -129 139 -197q93 -77 218 -77q284 0 284 244q0 118 -94 201q-39 34 -100 69q-40 22 -117 59l-145 73q-80 45 -132 91q-63 57 -95 126q-37 78 -37 177q0 165 118 272q117 105 293 105q168 0 289 -94q103 -81 164 -225l-148 -72q-47 109 -113 167 q-81 73 -194 73q-239 0 -239 -219q0 -119 93 -202q38 -34 98 -69q38 -22 114 -59l73 -35q42 -21 73 -38q81 -45 134 -92q63 -57 96 -126q37 -79 37 -178q0 -171 -121 -283q-127 -117 -331 -117q-182 0 -311 97q-119 90 -193 262z" />
<glyph unicode="T" horiz-adv-x="1062" d="M53 1358v158h954v-158h-391v-1358h-172v1358h-391z" />
<glyph unicode="U" horiz-adv-x="1232" d="M143 498v1018h172v-996q0 -395 303 -395t303 391v1000h166v-1014q0 -244 -111 -380q-121 -149 -360 -149q-243 0 -362 144q-111 133 -111 381z" />
<glyph unicode="V" horiz-adv-x="1144" d="M53 1516h172l227 -820q35 -121 66 -239l57 -221h4q24 97 58 220l293 1060h161l-438 -1522h-162z" />
<glyph unicode="W" horiz-adv-x="1591" d="M61 1516h164l209 -995l45 -232h4q19 117 42 232l198 995h155l172 -856q8 -37 11 -53q13 -60 21 -102l40 -216h4l40 213l210 1014h153l-338 -1522h-145l-248 1220h-4l-250 -1220h-145z" />
<glyph unicode="X" horiz-adv-x="1136" d="M36 0l440 819l-372 697h184l289 -553l282 553h166l-368 -693l440 -823h-180l-357 682l-356 -682h-168z" />
<glyph unicode="Y" horiz-adv-x="1077" d="M32 1516h176l332 -734h4l332 734h166l-418 -887v-629h-172v625z" />
<glyph unicode="Z" horiz-adv-x="1079" d="M67 0v129l725 1229h-676v158h877v-130l-721 -1230h721v-156h-926z" />
<glyph unicode="[" horiz-adv-x="694" d="M145 -410v1926h475v-130h-307v-1667h307v-129h-475z" />
<glyph unicode="\" horiz-adv-x="978" d="M28 1516h172l748 -1516h-170z" />
<glyph unicode="]" horiz-adv-x="694" d="M71 -281h307v1667h-307v130h475v-1926h-475v129z" />
<glyph unicode="^" horiz-adv-x="909" d="M172 1190l225 326h115l225 -326h-100l-184 180l-181 -180h-100z" />
<glyph unicode="_" horiz-adv-x="880" d="M-6 -133h893v-133h-893v133z" />
<glyph unicode="`" horiz-adv-x="909" d="M215 1516h195l163 -320h-112z" />
<glyph unicode="a" horiz-adv-x="964" d="M73 256q0 336 604 457v65q0 180 -162 180q-91 0 -178 -42q-73 -37 -141 -103l-92 100q89 90 191 138q113 53 237 53q307 0 307 -326v-512q0 -194 27 -266h-166q-12 42 -16 63q-7 35 -7 76q-140 -153 -346 -153q-258 0 -258 270zM235 279q0 -158 151 -158q160 0 291 141 v332q-237 -51 -346 -136q-96 -75 -96 -179z" />
<glyph unicode="b" horiz-adv-x="1040" d="M131 0v1513h166v-571q59 74 122 112q80 50 175 50q167 0 263 -135q105 -146 105 -426t-109 -427q-100 -132 -269 -132q-168 0 -287 145v-129h-166zM297 268q122 -147 256 -147q242 0 242 420t-244 420q-71 0 -139 -46q-49 -33 -115 -106v-541z" />
<glyph unicode="c" horiz-adv-x="933" d="M79 541q0 276 126 427q114 136 296 136q152 0 244 -96q74 -76 118 -226l-151 -41q-63 220 -215 220q-111 0 -178 -100q-74 -111 -74 -320q0 -424 252 -424q168 0 227 223l146 -39q-95 -324 -379 -324q-179 0 -291 143q-121 153 -121 421z" />
<glyph unicode="d" horiz-adv-x="1040" d="M81 541q0 280 108 428q99 135 267 135q170 0 291 -152v564h163v-1250q0 -194 27 -266h-170q-20 58 -20 141q-62 -72 -125 -109q-80 -48 -174 -48q-168 0 -263 131q-104 145 -104 426zM247 537q0 -416 246 -416q67 0 137 44q60 38 117 103v543q-127 150 -256 150 q-244 0 -244 -424z" />
<glyph unicode="e" horiz-adv-x="962" d="M79 541q0 275 127 427q114 136 291 136q385 0 385 -557v-41h-639q9 -389 260 -389q90 0 153 50q53 43 103 138l115 -72q-125 -256 -379 -256q-185 0 -296 141q-120 150 -120 423zM245 631h479q-17 332 -229 332q-98 0 -164 -80q-73 -88 -86 -252z" />
<glyph unicode="f" horiz-adv-x="608" d="M43 944v137h158v164q0 273 295 273l45 -2q32 -1 34 -3v-137l-24 1h-5l-32 1q-149 0 -149 -137v-160h202v-137h-202v-944h-164v944h-158z" />
<glyph unicode="g" horiz-adv-x="1009" d="M30 -150q0 159 176 242q-90 48 -90 135q0 100 117 170q-144 111 -144 316q0 174 107 283q106 108 272 108q170 0 273 -109q92 79 217 101v-156q-91 0 -164 -29q49 -88 49 -198q0 -178 -105 -284q-102 -103 -268 -103q-83 0 -147 24q-62 -34 -62 -84q0 -56 125 -73 l168 -21q371 -43 371 -276q0 -142 -134 -225q-129 -81 -335 -81q-224 0 -329 70q-97 64 -97 190zM184 -125q0 -166 290 -166q297 0 297 166q0 69 -50 103q-55 38 -193 55l-176 22q-6 1 -16 2l-15 2q-137 -64 -137 -184zM249 711q0 -262 221 -262q217 0 217 262t-219 262 t-219 -262z" />
<glyph unicode="h" horiz-adv-x="1028" d="M131 0v1516h166v-584q63 70 145 116q100 56 197 56q266 0 266 -301v-803h-164v768q0 190 -153 190q-73 0 -157 -49q-71 -41 -134 -106v-803h-166z" />
<glyph unicode="i" horiz-adv-x="450" d="M141 0v1081h166v-1081h-166zM141 1296v179h168v-179h-168z" />
<glyph unicode="j" horiz-adv-x="450" d="M-4 -274q25 -5 57 -5q88 0 88 117v1243h166v-1249q0 -244 -225 -244l-47 3q-32 3 -39 6v129zM141 1296v179h168v-179h-168z" />
<glyph unicode="k" horiz-adv-x="940" d="M131 0v1516h164v-992q14 26 62 92q9 13 21 30q5 6 11 15l303 420h170l-293 -395l330 -686h-170l-262 551l-172 -227v-324h-164z" />
<glyph unicode="l" horiz-adv-x="450" d="M141 0v1516h166v-1516h-166z" />
<glyph unicode="m" horiz-adv-x="1595" d="M131 0v1081h166v-149q68 73 144 117q94 55 186 55q204 0 245 -172q71 75 148 119q94 53 190 53q262 0 262 -301v-803h-163v768q0 190 -152 190q-69 0 -145 -44q-60 -35 -127 -101v-813h-166v768q0 190 -146 190q-123 0 -276 -153v-805h-166z" />
<glyph unicode="n" horiz-adv-x="1028" d="M131 0v1081h166v-149q63 70 145 116q100 56 197 56q266 0 266 -301v-803h-164v768q0 190 -153 190q-73 0 -157 -49q-71 -41 -134 -106v-803h-166z" />
<glyph unicode="o" horiz-adv-x="1013" d="M79 541q0 270 123 421q116 142 305 142q188 0 303 -142q123 -152 123 -421t-123 -421q-116 -143 -303 -143q-188 0 -304 143q-124 152 -124 421zM245 541q0 -190 61 -301q68 -123 201 -123q260 0 260 424q0 186 -62 297q-69 123 -198 123q-128 0 -196 -116 q-66 -110 -66 -304z" />
<glyph unicode="p" horiz-adv-x="1040" d="M131 -410v1491h166v-137q58 71 121 110q82 50 176 50q166 0 262 -135q104 -146 104 -426q0 -281 -108 -427q-99 -132 -268 -132q-170 0 -287 147v-541h-166zM297 268q122 -147 256 -147q242 0 242 420t-244 420q-68 0 -139 -47q-58 -37 -115 -103v-543z" />
<glyph unicode="q" horiz-adv-x="1040" d="M81 539q0 281 105 429q97 136 264 136q88 0 164 -44q65 -38 129 -114v135h165v-1491h-165v551q-62 -72 -122 -110q-80 -49 -173 -49q-168 0 -263 131q-104 145 -104 426zM247 541q0 -422 246 -422q69 0 133 42q48 32 117 105v543q-132 152 -252 152q-244 0 -244 -420z " />
<glyph unicode="r" horiz-adv-x="706" d="M131 0v1081h166v-186h4q52 91 131 145q94 64 211 64h23l-11 -156l-39 2q-210 0 -319 -221v-729h-166z" />
<glyph unicode="s" horiz-adv-x="890" d="M40 199l113 82q111 -168 293 -168q215 0 215 159q0 88 -88 143q-34 22 -91 44l-103 40q-64 24 -103 45q-55 28 -91 60q-88 80 -88 209t96 210t246 81q229 0 357 -195l-111 -86q-94 144 -248 144q-180 0 -180 -146q0 -88 87 -142q34 -21 90 -43l103 -38q62 -24 102 -44 q54 -28 90 -61q87 -80 87 -212q0 -138 -109 -223q-104 -81 -264 -81q-266 0 -403 222z" />
<glyph unicode="t" horiz-adv-x="665" d="M36 944v137h160v385h164v-385h237v-137h-237v-663q0 -160 143 -160q56 0 92 14v-133q-43 -14 -129 -14q-270 0 -270 256v700h-160z" />
<glyph unicode="u" horiz-adv-x="1028" d="M122 279v802h164v-772q0 -188 160 -188q72 0 147 44q65 38 137 111v805h166v-1081h-166v150q-69 -77 -148 -120q-94 -53 -194 -53q-266 0 -266 302z" />
<glyph unicode="v" horiz-adv-x="903" d="M36 1081h166l212 -749q2 -7 5 -17l37 -139h4q19 81 39 155l211 750h155l-327 -1085h-174z" />
<glyph unicode="w" horiz-adv-x="1306" d="M38 1081h160l167 -685l33 -158h5l31 159l34 148l119 536h145l157 -687q18 -79 32 -158h4q15 79 33 159l163 686h146l-275 -1085h-145l-191 825h-4l-194 -825h-144z" />
<glyph unicode="x" horiz-adv-x="894" d="M36 0l326 565l-293 516h172l219 -391l207 391h160l-293 -512l325 -569h-172l-245 446l-246 -446h-160z" />
<glyph unicode="y" horiz-adv-x="931" d="M12 -387l33 131l55 -10q41 -6 76 -6q114 0 168 168l30 94l-337 1091h170l163 -565q46 -154 88 -326h5l44 168q20 71 48 170l159 553h158l-373 -1200q-50 -158 -113 -221q-73 -72 -206 -72q-49 0 -99 9z" />
<glyph unicode="z" horiz-adv-x="880" d="M65 0v106l526 838h-481v137h678v-108l-526 -838h548v-135h-745z" />
<glyph unicode="{" horiz-adv-x="686" d="M57 489v127q106 0 147 47q46 51 46 193v379q0 281 256 281h124v-130h-75q-138 0 -138 -151v-387q0 -141 -40 -208q-33 -54 -113 -85v-4q80 -31 113 -85q40 -67 40 -208v-389q0 -150 138 -150h75v-129h-129q-251 0 -251 281v379q0 143 -47 194q-41 45 -146 45z" />
<glyph unicode="|" horiz-adv-x="630" d="M233 -410v1926h164v-1926h-164z" />
<glyph unicode="}" horiz-adv-x="686" d="M55 -281h76q137 0 137 150v395q0 140 41 205q32 51 113 82v4q-81 31 -113 82q-41 65 -41 205v393q0 151 -137 151h-76v130h133q248 0 248 -275v-385q0 -142 45 -193q41 -47 147 -47v-127q-105 0 -146 -45q-46 -51 -46 -194v-385q0 -275 -246 -275h-135v129z" />
<glyph unicode="~" horiz-adv-x="909" d="M151 836q0 243 170 243q37 0 78 -18q28 -12 69 -39l32 -21q17 -12 30 -18q33 -18 57 -18q70 0 70 110h98q0 -244 -166 -244q-37 0 -78 18q-28 13 -68 40l-32 21q-18 11 -30 18q-32 18 -56 18q-72 0 -72 -110h-102z" />
<glyph unicode="&#xa2;" horiz-adv-x="933" d="M79 541q0 276 126 427q114 136 296 136h29l41 190h126l-47 -219q82 -36 137 -118q45 -68 76 -175l-151 -41q-36 131 -98 185l-177 -807q25 -8 60 -8q166 0 227 229l146 -39q-95 -324 -379 -324q-43 0 -76 9l-51 -232h-125l59 277q-219 135 -219 510zM245 541 q0 -238 94 -355l168 781h-10q-110 0 -178 -103q-74 -113 -74 -323z" />
<glyph unicode="&#xa3;" horiz-adv-x="1101" d="M32 178q0 234 229 234q93 0 193 -82l4 94q0 74 -22 154q-17 64 -52 147h-233v131h174q-22 49 -34 79l-29 78q-27 85 -27 154q0 173 96 275t260 102q178 0 270 -115q79 -98 93 -272l-156 -18q-10 124 -55 187q-51 73 -154 73q-192 0 -192 -228q0 -68 29 -154 q12 -35 31 -79q7 -18 18 -41l18 -41h295v-131h-240q28 -75 42 -138q17 -78 17 -151q0 -119 -34 -217q55 -52 92 -75q50 -31 96 -31q148 0 154 274h145q-5 -198 -66 -299q-70 -117 -221 -117q-74 0 -143 41q-52 30 -117 92q-94 -133 -256 -133q-92 0 -155 53q-70 58 -70 154z M161 184q0 -100 100 -100q111 0 160 115q-90 94 -160 94q-100 0 -100 -109z" />
<glyph unicode="&#xa5;" d="M34 668v176l332 -27l-23 340h49v51l340 -22l-26 330h176l-29 -330l342 22v-51h49l-22 -340l328 27v-176l-328 28l22 -342h-49v-45l-342 23l29 -332h-176l26 332l-340 -23v45h-49l23 342zM466 700l17 -254l256 -16v270h-273zM466 811h273v274l-256 -14zM849 430l256 16 l16 254h-272v-270zM849 811h272l-16 260l-256 14v-274z" />
<glyph unicode="&#xa7;" horiz-adv-x="964" d="M83 598q0 104 70 197q60 79 155 135q-157 131 -157 293q0 136 89 227q95 96 249 96q175 0 265 -94q72 -76 105 -238l-149 -36q-25 114 -70 166q-52 61 -149 61q-181 0 -181 -174q0 -128 234 -285q96 -64 141 -98q66 -50 105 -93q88 -97 88 -227q0 -104 -70 -197 q-59 -79 -154 -134q152 -132 152 -293q0 -137 -88 -227q-92 -95 -244 -95q-171 0 -261 94q-73 76 -105 234l147 39q26 -113 69 -166q52 -64 148 -64q174 0 174 177q0 129 -225 284l-143 99q-67 49 -106 92q-89 98 -89 227zM237 618q0 -130 272 -313l41 -26q174 95 174 231 q0 129 -270 311l-39 27q-178 -94 -178 -230z" />
<glyph unicode="&#xa8;" horiz-adv-x="909" d="M208 1194v184h168v-184h-168zM536 1194v184h164v-184h-164z" />
<glyph unicode="&#xa9;" horiz-adv-x="1458" d="M79 756q0 331 186 558q187 230 463 230q277 0 464 -228q185 -227 185 -556q0 -331 -186 -559q-188 -230 -463 -230q-277 0 -464 229q-185 226 -185 556zM177 760q0 -293 157 -495q159 -204 394 -204q236 0 395 203q156 200 156 492t-157 494q-159 204 -394 204 q-236 0 -394 -203q-157 -200 -157 -491zM425 768q0 444 305 444q114 0 184 -78q61 -69 91 -204l-115 -21q-42 191 -160 191q-182 0 -182 -332q0 -336 184 -336q121 0 166 203l113 -23q-60 -295 -281 -295q-305 0 -305 451z" />
<glyph unicode="&#xaa;" horiz-adv-x="753" d="M83 938q0 241 424 326v45q0 125 -107 125q-62 0 -123 -32q-49 -26 -100 -75l-76 76q140 139 314 139q217 0 217 -233v-361q0 -135 22 -192h-131l-6 23q-3 14 -5 23q-5 26 -5 50q-105 -109 -236 -109q-188 0 -188 195zM210 954q0 -104 98 -104q106 0 199 100v226 q-161 -35 -235 -96q-62 -53 -62 -126z" />
<glyph unicode="&#xab;" horiz-adv-x="931" d="M67 541l254 538h162l-246 -538l246 -541h-162zM436 541l254 538h161l-247 -538l247 -541h-161z" />
<glyph unicode="&#xac;" d="M34 668v176l332 -27l-23 340h49v51l340 -22l-26 330h176l-29 -330l342 22v-51h49l-22 -340l328 27v-176l-328 28l22 -342h-49v-45l-342 23l29 -332h-176l26 332l-340 -23v45h-49l23 342zM466 700l17 -254l256 -16v270h-273zM466 811h273v274l-256 -14zM849 430l256 16 l16 254h-272v-270zM849 811h272l-16 260l-256 14v-274z" />
<glyph unicode="&#xad;" horiz-adv-x="630" d="M106 571v140h420v-140h-420z" />
<glyph unicode="&#xae;" horiz-adv-x="1458" d="M79 756q0 331 186 558q187 230 463 230q277 0 464 -228q185 -227 185 -556q0 -331 -186 -559q-188 -230 -463 -230q-277 0 -464 229q-185 226 -185 556zM175 760q0 -293 158 -496q160 -205 395 -205q236 0 395 204q156 201 156 493t-158 495q-159 205 -393 205 q-236 0 -395 -204q-158 -201 -158 -492zM480 350v844h248q262 0 262 -248q0 -97 -43 -158q-37 -51 -104 -75l160 -363h-129l-154 346h-121v-346h-119zM599 801h123q148 0 148 143q0 137 -148 137h-123v-280z" />
<glyph unicode="&#xb0;" horiz-adv-x="704" d="M96 1255q0 126 71 206q73 81 187 81q112 0 182 -80t70 -207q0 -125 -70 -206q-71 -82 -182 -82q-115 0 -187 81q-71 81 -71 207zM213 1255q0 -188 141 -188q137 0 137 188q0 187 -137 187q-141 0 -141 -187z" />
<glyph unicode="&#xb1;" d="M34 668v176l332 -27l-23 340h49v51l340 -22l-26 330h176l-29 -330l342 22v-51h49l-22 -340l328 27v-176l-328 28l22 -342h-49v-45l-342 23l29 -332h-176l26 332l-340 -23v45h-49l23 342zM466 700l17 -254l256 -16v270h-273zM466 811h273v274l-256 -14zM849 430l256 16 l16 254h-272v-270zM849 811h272l-16 260l-256 14v-274z" />
<glyph unicode="&#xb4;" horiz-adv-x="909" d="M337 1196l166 320h190l-245 -320h-111z" />
<glyph unicode="&#xb5;" horiz-adv-x="1032" d="M124 -410v1491h168v-770q0 -192 156 -192q72 0 146 43q62 36 138 110v809h168v-1081h-168v154q-69 -72 -136 -112q-86 -52 -173 -56q-90 -4 -131 43v-439h-168z" />
<glyph unicode="&#xb6;" horiz-adv-x="1105" d="M96 1098q0 183 102 298q107 120 289 120h471v-1926h-141v1784h-166v-1784h-141v1098q-414 10 -414 410z" />
<glyph unicode="&#xb7;" horiz-adv-x="544" d="M167 526v215h209v-215h-209z" />
<glyph unicode="&#xb8;" horiz-adv-x="909" d="M227 -342l49 80q83 -60 182 -60q123 0 123 91q0 67 -71 67q-48 0 -90 -39l-64 29l51 186h92l-32 -121q43 29 98 29q135 0 135 -139q0 -92 -71 -146q-67 -51 -169 -51q-132 0 -233 74z" />
<glyph unicode="&#xba;" horiz-adv-x="757" d="M73 1145q0 191 88 299q83 100 217 100q135 0 217 -100q88 -108 88 -299q0 -192 -88 -299q-82 -101 -217 -101q-133 0 -216 101q-89 108 -89 299zM202 1145q0 -131 41 -208q46 -87 135 -87q176 0 176 295q0 128 -42 204q-46 85 -134 85q-176 0 -176 -289z" />
<glyph unicode="&#xbb;" horiz-adv-x="931" d="M79 0l250 541l-250 538h164l252 -538l-252 -541h-164zM450 0l245 541l-245 538h161l250 -538l-250 -541h-161z" />
<glyph unicode="&#xf7;" horiz-adv-x="1095" d="M100 604v141h895v-141h-895zM458 215v188h174v-188h-174zM458 948v187h174v-187h-174z" />
<glyph unicode="&#x2c6;" horiz-adv-x="909" d="M169 1190l225 326h117l225 -326h-102l-180 180l-183 -180h-102z" />
<glyph unicode="&#x591;" d="M34 668v176l332 -27l-23 340h49v51l340 -22l-26 330h176l-29 -330l342 22v-51h49l-22 -340l328 27v-176l-328 28l22 -342h-49v-45l-342 23l29 -332h-176l26 332l-340 -23v45h-49l23 342zM466 700l17 -254l256 -16v270h-273zM466 811h273v274l-256 -14zM849 430l256 16 l16 254h-272v-270zM849 811h272l-16 260l-256 14v-274z" />
<glyph unicode="&#x592;" d="M34 668v176l332 -27l-23 340h49v51l340 -22l-26 330h176l-29 -330l342 22v-51h49l-22 -340l328 27v-176l-328 28l22 -342h-49v-45l-342 23l29 -332h-176l26 332l-340 -23v45h-49l23 342zM466 700l17 -254l256 -16v270h-273zM466 811h273v274l-256 -14zM849 430l256 16 l16 254h-272v-270zM849 811h272l-16 260l-256 14v-274z" />
<glyph unicode="&#x593;" d="M34 668v176l332 -27l-23 340h49v51l340 -22l-26 330h176l-29 -330l342 22v-51h49l-22 -340l328 27v-176l-328 28l22 -342h-49v-45l-342 23l29 -332h-176l26 332l-340 -23v45h-49l23 342zM466 700l17 -254l256 -16v270h-273zM466 811h273v274l-256 -14zM849 430l256 16 l16 254h-272v-270zM849 811h272l-16 260l-256 14v-274z" />
<glyph unicode="&#x594;" d="M34 668v176l332 -27l-23 340h49v51l340 -22l-26 330h176l-29 -330l342 22v-51h49l-22 -340l328 27v-176l-328 28l22 -342h-49v-45l-342 23l29 -332h-176l26 332l-340 -23v45h-49l23 342zM466 700l17 -254l256 -16v270h-273zM466 811h273v274l-256 -14zM849 430l256 16 l16 254h-272v-270zM849 811h272l-16 260l-256 14v-274z" />
<glyph unicode="&#x595;" d="M34 668v176l332 -27l-23 340h49v51l340 -22l-26 330h176l-29 -330l342 22v-51h49l-22 -340l328 27v-176l-328 28l22 -342h-49v-45l-342 23l29 -332h-176l26 332l-340 -23v45h-49l23 342zM466 700l17 -254l256 -16v270h-273zM466 811h273v274l-256 -14zM849 430l256 16 l16 254h-272v-270zM849 811h272l-16 260l-256 14v-274z" />
<glyph unicode="&#x596;" d="M34 668v176l332 -27l-23 340h49v51l340 -22l-26 330h176l-29 -330l342 22v-51h49l-22 -340l328 27v-176l-328 28l22 -342h-49v-45l-342 23l29 -332h-176l26 332l-340 -23v45h-49l23 342zM466 700l17 -254l256 -16v270h-273zM466 811h273v274l-256 -14zM849 430l256 16 l16 254h-272v-270zM849 811h272l-16 260l-256 14v-274z" />
<glyph unicode="&#x597;" d="M34 668v176l332 -27l-23 340h49v51l340 -22l-26 330h176l-29 -330l342 22v-51h49l-22 -340l328 27v-176l-328 28l22 -342h-49v-45l-342 23l29 -332h-176l26 332l-340 -23v45h-49l23 342zM466 700l17 -254l256 -16v270h-273zM466 811h273v274l-256 -14zM849 430l256 16 l16 254h-272v-270zM849 811h272l-16 260l-256 14v-274z" />
<glyph unicode="&#x598;" d="M34 668v176l332 -27l-23 340h49v51l340 -22l-26 330h176l-29 -330l342 22v-51h49l-22 -340l328 27v-176l-328 28l22 -342h-49v-45l-342 23l29 -332h-176l26 332l-340 -23v45h-49l23 342zM466 700l17 -254l256 -16v270h-273zM466 811h273v274l-256 -14zM849 430l256 16 l16 254h-272v-270zM849 811h272l-16 260l-256 14v-274z" />
<glyph unicode="&#x599;" d="M34 668v176l332 -27l-23 340h49v51l340 -22l-26 330h176l-29 -330l342 22v-51h49l-22 -340l328 27v-176l-328 28l22 -342h-49v-45l-342 23l29 -332h-176l26 332l-340 -23v45h-49l23 342zM466 700l17 -254l256 -16v270h-273zM466 811h273v274l-256 -14zM849 430l256 16 l16 254h-272v-270zM849 811h272l-16 260l-256 14v-274z" />
<glyph unicode="&#x59a;" d="M34 668v176l332 -27l-23 340h49v51l340 -22l-26 330h176l-29 -330l342 22v-51h49l-22 -340l328 27v-176l-328 28l22 -342h-49v-45l-342 23l29 -332h-176l26 332l-340 -23v45h-49l23 342zM466 700l17 -254l256 -16v270h-273zM466 811h273v274l-256 -14zM849 430l256 16 l16 254h-272v-270zM849 811h272l-16 260l-256 14v-274z" />
<glyph unicode="&#x59b;" d="M34 668v176l332 -27l-23 340h49v51l340 -22l-26 330h176l-29 -330l342 22v-51h49l-22 -340l328 27v-176l-328 28l22 -342h-49v-45l-342 23l29 -332h-176l26 332l-340 -23v45h-49l23 342zM466 700l17 -254l256 -16v270h-273zM466 811h273v274l-256 -14zM849 430l256 16 l16 254h-272v-270zM849 811h272l-16 260l-256 14v-274z" />
<glyph unicode="&#x59c;" d="M34 668v176l332 -27l-23 340h49v51l340 -22l-26 330h176l-29 -330l342 22v-51h49l-22 -340l328 27v-176l-328 28l22 -342h-49v-45l-342 23l29 -332h-176l26 332l-340 -23v45h-49l23 342zM466 700l17 -254l256 -16v270h-273zM466 811h273v274l-256 -14zM849 430l256 16 l16 254h-272v-270zM849 811h272l-16 260l-256 14v-274z" />
<glyph unicode="&#x59d;" d="M34 668v176l332 -27l-23 340h49v51l340 -22l-26 330h176l-29 -330l342 22v-51h49l-22 -340l328 27v-176l-328 28l22 -342h-49v-45l-342 23l29 -332h-176l26 332l-340 -23v45h-49l23 342zM466 700l17 -254l256 -16v270h-273zM466 811h273v274l-256 -14zM849 430l256 16 l16 254h-272v-270zM849 811h272l-16 260l-256 14v-274z" />
<glyph unicode="&#x59e;" d="M34 668v176l332 -27l-23 340h49v51l340 -22l-26 330h176l-29 -330l342 22v-51h49l-22 -340l328 27v-176l-328 28l22 -342h-49v-45l-342 23l29 -332h-176l26 332l-340 -23v45h-49l23 342zM466 700l17 -254l256 -16v270h-273zM466 811h273v274l-256 -14zM849 430l256 16 l16 254h-272v-270zM849 811h272l-16 260l-256 14v-274z" />
<glyph unicode="&#x59f;" d="M34 668v176l332 -27l-23 340h49v51l340 -22l-26 330h176l-29 -330l342 22v-51h49l-22 -340l328 27v-176l-328 28l22 -342h-49v-45l-342 23l29 -332h-176l26 332l-340 -23v45h-49l23 342zM466 700l17 -254l256 -16v270h-273zM466 811h273v274l-256 -14zM849 430l256 16 l16 254h-272v-270zM849 811h272l-16 260l-256 14v-274z" />
<glyph unicode="&#x5a0;" d="M34 668v176l332 -27l-23 340h49v51l340 -22l-26 330h176l-29 -330l342 22v-51h49l-22 -340l328 27v-176l-328 28l22 -342h-49v-45l-342 23l29 -332h-176l26 332l-340 -23v45h-49l23 342zM466 700l17 -254l256 -16v270h-273zM466 811h273v274l-256 -14zM849 430l256 16 l16 254h-272v-270zM849 811h272l-16 260l-256 14v-274z" />
<glyph unicode="&#x5a1;" d="M34 668v176l332 -27l-23 340h49v51l340 -22l-26 330h176l-29 -330l342 22v-51h49l-22 -340l328 27v-176l-328 28l22 -342h-49v-45l-342 23l29 -332h-176l26 332l-340 -23v45h-49l23 342zM466 700l17 -254l256 -16v270h-273zM466 811h273v274l-256 -14zM849 430l256 16 l16 254h-272v-270zM849 811h272l-16 260l-256 14v-274z" />
<glyph unicode="&#x5a3;" d="M34 668v176l332 -27l-23 340h49v51l340 -22l-26 330h176l-29 -330l342 22v-51h49l-22 -340l328 27v-176l-328 28l22 -342h-49v-45l-342 23l29 -332h-176l26 332l-340 -23v45h-49l23 342zM466 700l17 -254l256 -16v270h-273zM466 811h273v274l-256 -14zM849 430l256 16 l16 254h-272v-270zM849 811h272l-16 260l-256 14v-274z" />
<glyph unicode="&#x5a4;" d="M34 668v176l332 -27l-23 340h49v51l340 -22l-26 330h176l-29 -330l342 22v-51h49l-22 -340l328 27v-176l-328 28l22 -342h-49v-45l-342 23l29 -332h-176l26 332l-340 -23v45h-49l23 342zM466 700l17 -254l256 -16v270h-273zM466 811h273v274l-256 -14zM849 430l256 16 l16 254h-272v-270zM849 811h272l-16 260l-256 14v-274z" />
<glyph unicode="&#x5a5;" d="M34 668v176l332 -27l-23 340h49v51l340 -22l-26 330h176l-29 -330l342 22v-51h49l-22 -340l328 27v-176l-328 28l22 -342h-49v-45l-342 23l29 -332h-176l26 332l-340 -23v45h-49l23 342zM466 700l17 -254l256 -16v270h-273zM466 811h273v274l-256 -14zM849 430l256 16 l16 254h-272v-270zM849 811h272l-16 260l-256 14v-274z" />
<glyph unicode="&#x5a6;" d="M34 668v176l332 -27l-23 340h49v51l340 -22l-26 330h176l-29 -330l342 22v-51h49l-22 -340l328 27v-176l-328 28l22 -342h-49v-45l-342 23l29 -332h-176l26 332l-340 -23v45h-49l23 342zM466 700l17 -254l256 -16v270h-273zM466 811h273v274l-256 -14zM849 430l256 16 l16 254h-272v-270zM849 811h272l-16 260l-256 14v-274z" />
<glyph unicode="&#x5a7;" d="M34 668v176l332 -27l-23 340h49v51l340 -22l-26 330h176l-29 -330l342 22v-51h49l-22 -340l328 27v-176l-328 28l22 -342h-49v-45l-342 23l29 -332h-176l26 332l-340 -23v45h-49l23 342zM466 700l17 -254l256 -16v270h-273zM466 811h273v274l-256 -14zM849 430l256 16 l16 254h-272v-270zM849 811h272l-16 260l-256 14v-274z" />
<glyph unicode="&#x5a8;" d="M34 668v176l332 -27l-23 340h49v51l340 -22l-26 330h176l-29 -330l342 22v-51h49l-22 -340l328 27v-176l-328 28l22 -342h-49v-45l-342 23l29 -332h-176l26 332l-340 -23v45h-49l23 342zM466 700l17 -254l256 -16v270h-273zM466 811h273v274l-256 -14zM849 430l256 16 l16 254h-272v-270zM849 811h272l-16 260l-256 14v-274z" />
<glyph unicode="&#x5a9;" d="M34 668v176l332 -27l-23 340h49v51l340 -22l-26 330h176l-29 -330l342 22v-51h49l-22 -340l328 27v-176l-328 28l22 -342h-49v-45l-342 23l29 -332h-176l26 332l-340 -23v45h-49l23 342zM466 700l17 -254l256 -16v270h-273zM466 811h273v274l-256 -14zM849 430l256 16 l16 254h-272v-270zM849 811h272l-16 260l-256 14v-274z" />
<glyph unicode="&#x5aa;" d="M34 668v176l332 -27l-23 340h49v51l340 -22l-26 330h176l-29 -330l342 22v-51h49l-22 -340l328 27v-176l-328 28l22 -342h-49v-45l-342 23l29 -332h-176l26 332l-340 -23v45h-49l23 342zM466 700l17 -254l256 -16v270h-273zM466 811h273v274l-256 -14zM849 430l256 16 l16 254h-272v-270zM849 811h272l-16 260l-256 14v-274z" />
<glyph unicode="&#x5ab;" d="M34 668v176l332 -27l-23 340h49v51l340 -22l-26 330h176l-29 -330l342 22v-51h49l-22 -340l328 27v-176l-328 28l22 -342h-49v-45l-342 23l29 -332h-176l26 332l-340 -23v45h-49l23 342zM466 700l17 -254l256 -16v270h-273zM466 811h273v274l-256 -14zM849 430l256 16 l16 254h-272v-270zM849 811h272l-16 260l-256 14v-274z" />
<glyph unicode="&#x5ac;" d="M34 668v176l332 -27l-23 340h49v51l340 -22l-26 330h176l-29 -330l342 22v-51h49l-22 -340l328 27v-176l-328 28l22 -342h-49v-45l-342 23l29 -332h-176l26 332l-340 -23v45h-49l23 342zM466 700l17 -254l256 -16v270h-273zM466 811h273v274l-256 -14zM849 430l256 16 l16 254h-272v-270zM849 811h272l-16 260l-256 14v-274z" />
<glyph unicode="&#x5ad;" d="M34 668v176l332 -27l-23 340h49v51l340 -22l-26 330h176l-29 -330l342 22v-51h49l-22 -340l328 27v-176l-328 28l22 -342h-49v-45l-342 23l29 -332h-176l26 332l-340 -23v45h-49l23 342zM466 700l17 -254l256 -16v270h-273zM466 811h273v274l-256 -14zM849 430l256 16 l16 254h-272v-270zM849 811h272l-16 260l-256 14v-274z" />
<glyph unicode="&#x5ae;" d="M34 668v176l332 -27l-23 340h49v51l340 -22l-26 330h176l-29 -330l342 22v-51h49l-22 -340l328 27v-176l-328 28l22 -342h-49v-45l-342 23l29 -332h-176l26 332l-340 -23v45h-49l23 342zM466 700l17 -254l256 -16v270h-273zM466 811h273v274l-256 -14zM849 430l256 16 l16 254h-272v-270zM849 811h272l-16 260l-256 14v-274z" />
<glyph unicode="&#x5af;" d="M34 668v176l332 -27l-23 340h49v51l340 -22l-26 330h176l-29 -330l342 22v-51h49l-22 -340l328 27v-176l-328 28l22 -342h-49v-45l-342 23l29 -332h-176l26 332l-340 -23v45h-49l23 342zM466 700l17 -254l256 -16v270h-273zM466 811h273v274l-256 -14zM849 430l256 16 l16 254h-272v-270zM849 811h272l-16 260l-256 14v-274z" />
<glyph unicode="&#x5b0;" horiz-adv-x="1" d="M-65 -166q0 64 66 64q63 0 63 -64q0 -65 -63 -65q-66 0 -66 65zM-60 -365q0 64 63 64q66 0 66 -64q0 -65 -66 -65q-63 0 -63 65z" />
<glyph unicode="&#x5b1;" horiz-adv-x="1" d="M-251 -172q0 70 68 70q69 0 69 -70q0 -67 -69 -67q-68 0 -68 67zM-161 -348q0 68 70 68q67 0 67 -68t-67 -68q-70 0 -70 68zM-67 -172q0 70 70 70q68 0 68 -70q0 -67 -68 -67q-70 0 -70 67zM131 -173q0 63 61 63q27 0 44 -16t17 -47q0 -59 -61 -59t-61 59zM131 -362 q0 63 61 63q28 0 43 -14q18 -17 18 -49q0 -25 -16 -42t-45 -17q-61 0 -61 59z" />
<glyph unicode="&#x5b2;" horiz-adv-x="1" d="M-229 -159q0 22 10 37h260q10 -19 8 -41q0 -21 -8 -37h-260q-10 16 -10 41zM105 -173q0 63 61 63q27 0 44 -16t17 -47q0 -59 -61 -59t-61 59zM105 -362q0 63 61 63q28 0 43 -14q18 -17 18 -49q0 -25 -16 -42t-45 -17q-61 0 -61 59z" />
<glyph unicode="&#x5b3;" horiz-adv-x="1" d="M-241 -163q0 22 10 37h288q8 -19 8 -41q0 -15 -8 -36h-124v-9q0 -37 21 -71q26 -40 26 -61q0 -65 -69 -65q-66 0 -66 69q0 17 17 46q20 35 24 46q6 19 6 37v8h-123q-10 16 -10 40zM125 -173q0 63 61 63q27 0 44 -16t17 -47q0 -59 -61 -59t-61 59zM125 -362q0 63 61 63 q28 0 43 -14q18 -17 18 -49q0 -25 -16 -42t-45 -17q-61 0 -61 59z" />
<glyph unicode="&#x5b4;" horiz-adv-x="1" d="M-63 -196q0 64 65 64q64 0 64 -64q0 -65 -64 -65q-65 0 -65 65z" />
<glyph unicode="&#x5b5;" horiz-adv-x="1" d="M-169 -166q0 64 64 64q65 0 65 -64q0 -65 -65 -65q-64 0 -64 65zM44 -166q0 64 66 64q63 0 63 -64q0 -65 -63 -65q-66 0 -66 65z" />
<glyph unicode="&#x5b6;" horiz-adv-x="1" d="M-161 -166q0 64 64 64q65 0 65 -64q0 -65 -65 -65q-64 0 -64 65zM-60 -332q0 66 65 66q66 0 66 -66q0 -65 -66 -65q-65 0 -65 65zM36 -166q0 64 65 64q64 0 64 -64q0 -65 -64 -65q-65 0 -65 65z" />
<glyph unicode="&#x5b7;" horiz-adv-x="1" d="M-172 -163q0 22 10 37h328q8 -19 8 -41q-2 -21 -8 -37h-328q-10 16 -10 41z" />
<glyph unicode="&#x5b8;" horiz-adv-x="1" d="M-173 -163q0 22 10 37h329q8 -19 8 -41q0 -15 -8 -36h-145v-9q0 -37 21 -71q26 -40 26 -61q0 -65 -69 -65q-66 0 -66 69q0 17 17 46q21 35 24 46q6 19 6 25v20h-143q-10 16 -10 40z" />
<glyph unicode="&#x5b9;" horiz-adv-x="0" d="M-72 1467q5 66 76 74q71 -6 78 -70q-1 -70 -75 -76q-75 7 -79 72z" />
<glyph unicode="&#x5bb;" horiz-adv-x="1" d="M-65 -158q0 67 67 67q65 0 65 -67q0 -65 -65 -65q-67 0 -67 65zM35 -297q0 68 67 68q65 0 65 -68q0 -64 -65 -64q-67 0 -67 64zM128 -438q0 67 67 67q65 0 65 -67q0 -65 -65 -65q-67 0 -67 65z" />
<glyph unicode="&#x5bc;" horiz-adv-x="1" d="M-72 517q5 66 76 74q71 -6 78 -70q-1 -70 -75 -76q-75 7 -79 72z" />
<glyph unicode="&#x5bd;" horiz-adv-x="1" d="M-41 -120h84v-323h-84v323z" />
<glyph unicode="&#x5be;" horiz-adv-x="571" d="M102 1112v154h348v-154h-348z" />
<glyph unicode="&#x5bf;" horiz-adv-x="1" d="M-210 1431v43q0 28 23 28h373q24 0 24 -28v-43q0 -27 -24 -27h-373q-23 0 -23 27z" />
<glyph unicode="&#x5c0;" horiz-adv-x="630" d="M233 -410v1926h164v-1926h-164z" />
<glyph unicode="&#x5c1;" horiz-adv-x="0" d="M-72 1467q5 66 76 74q71 -6 78 -70q-1 -70 -75 -76q-75 7 -79 72z" />
<glyph unicode="&#x5c2;" horiz-adv-x="0" d="M-72 1467q5 66 76 74q71 -6 78 -70q-1 -70 -75 -76q-75 7 -79 72z" />
<glyph unicode="&#x5c3;" horiz-adv-x="491" d="M149 0v213h190v-213h-190zM149 868v213h190v-213h-190z" />
<glyph unicode="&#x5c4;" horiz-adv-x="0" d="M-72 1467q5 66 76 74q71 -6 78 -70q-1 -70 -75 -76q-75 7 -79 72z" />
<glyph unicode="&#x5d0;" horiz-adv-x="1130" d="M88 1241v27h184q123 -178 432 -654q58 45 82 97q31 67 31 194v363h176v-297q0 -156 -47 -246q-53 -102 -194 -186q102 -158 303 -525v-14h-181q-159 305 -464 762q-70 -47 -94.5 -105.5t-24.5 -189.5v-467h-174v375q0 182 45 274q51 109 198 189q-159 243 -272 403z" />
<glyph unicode="&#x5d1;" horiz-adv-x="985" d="M65 0v154h481q60 28 99 125q30 73 30 354q0 182 -10 256q-14 106 -61 158q-60 63 -203 63h-322v158h373q201 0 295 -92q68 -68 90 -201q16 -92 16 -293q0 -186 -16 -268q-22 -123 -98 -201q-31 -31 -70 -59h256v-154h-860z" />
<glyph unicode="&#x5d2;" horiz-adv-x="745" d="M34 0l35 164q110 0 217 135q102 127 141 293v344q0 92 -35.5 133t-121.5 41h-175v158h222q153 0 218.5 -72t65.5 -235v-449q0 -326 47 -512h-165q-41 119 -41 356q0 9 -7 9q-8 2 -12 -9q-72 -180 -137 -262q-82 -106 -186 -106q-41 0 -66 12z" />
<glyph unicode="&#x5d3;" horiz-adv-x="946" d="M45 1112v156h811v-156h-135v-1112h-176v1112h-500z" />
<glyph unicode="&#x5d4;" horiz-adv-x="1171" d="M145 1110v158h479q207 0 304.5 -95.5t97.5 -302.5v-870h-174v831q0 152 -63.5 215.5t-213.5 63.5h-430zM153 0v715l174 43v-758h-174z" />
<glyph unicode="&#x5d5;" horiz-adv-x="477" d="M149 0v1268h178v-1268h-178z" />
<glyph unicode="&#x5d6;" horiz-adv-x="604" d="M75 1110v158h467l-31 -158h-88q-92 -100 -92 -362q0 -78 8 -166l51 -582h-170l-47 518q-6 76 -6 141q0 316 148 451h-240z" />
<glyph unicode="&#x5d7;" horiz-adv-x="1206" d="M149 0v1268h510q207 0 305 -95.5t98 -302.5v-870h-176v831q0 154 -58 216.5t-206 62.5h-297v-1110h-176z" />
<glyph unicode="&#x5d8;" horiz-adv-x="1200" d="M145 481v787h176v-797q0 -188 62.5 -266t218.5 -78q164 0 230.5 83t66.5 288v270q0 203 -58 287q-47 63 -139 63q-86 0 -143 -69l-76 131q86 96 250 96q352 0 352 -461v-299q0 -539 -491 -539q-242 0 -345.5 118t-103.5 386z" />
<glyph unicode="&#x5d9;" horiz-adv-x="452" d="M135 567v701h176v-639z" />
<glyph unicode="&#x5da;" horiz-adv-x="976" d="M69 1110v158h360q402 0 402 -408v-1227h-174v1198q0 152 -60.5 215.5t-201.5 63.5h-326zM162 536q0 22 10 37h329q8 -19 8 -41q0 -15 -8 -36h-145v-9q0 -37 21 -71q26 -40 26 -61q0 -65 -69 -65q-66 0 -66 69q0 17 17 46q21 35 24 46q6 19 6 25v20h-143q-10 16 -10 40z " />
<glyph unicode="&#x5db;" horiz-adv-x="931" d="M75 0v154h231q213 0 291 108q72 103 72 371q0 258 -83 367.5t-288 109.5h-223v158h248q280 0 404 -147.5t124 -487.5q0 -322 -127 -475q-133 -158 -416 -158h-233z" />
<glyph unicode="&#x5dc;" horiz-adv-x="940" d="M-152 1467q5 66 76 74q71 -6 78 -70q-1 -70 -75 -76q-75 7 -79 72zM47 1110v461h176v-303h225q195 0 303.5 -104.5t108.5 -301.5q0 -221 -143 -448q-138 -215 -367 -422l-94 98q231 223 332 416q90 172 90 317q0 287 -291 287h-340zM136 672q5 66 76 74q71 -6 78 -70 q-1 -70 -75 -76q-75 7 -79 72z" />
<glyph unicode="&#x5dd;" horiz-adv-x="1206" d="M149 0v1268h510q403 0 403 -406v-862h-913zM325 154h561v675q0 154 -59.5 217.5t-206.5 63.5h-295v-956z" />
<glyph unicode="&#x5de;" horiz-adv-x="1220" d="M114 1112v156h549q235 0 340.5 -140.5t105.5 -498.5q0 -643 -442 -643q-59 0 -174 26l18 150q60 -27 133 -27q160 0 222 109q59 102 59 362q0 289 -68 402q-63 106 -233 106h-109q-145 -59 -172 -442l-47 -672h-168v29l43 630q15 199 66 304q45 94 145 149h-268z" />
<glyph unicode="&#x5df;" horiz-adv-x="475" d="M149 -369v1637h176v-1637h-176z" />
<glyph unicode="&#x5e0;" horiz-adv-x="708" d="M69 0v154h315v794q0 88 -30.5 125t-112.5 37h-154v158h205q142 0 205.5 -69t63.5 -228v-971h-492z" />
<glyph unicode="&#x5e1;" horiz-adv-x="1171" d="M90 1110v158h508q252 0 364 -138q119 -143 119 -473q0 -677 -502 -677q-247 0 -356 153q-100 141 -100 449q0 206 41 323q45 129 155 205h-229zM299 616q0 -282 70 -389q61 -96 208 -96q164 0 236 100q82 115 82 396q0 284 -82 393q-70 94 -244 94h-110q-21 -8 -58 -33 q-63 -63 -86 -192q-16 -94 -16 -273z" />
<glyph unicode="&#x5e2;" horiz-adv-x="1081" d="M45 0v154h236l-162 1114h180l141 -1118h31q303 0 303 350v768h180v-729q0 -246 -125 -389q-131 -150 -372 -150h-412z" />
<glyph unicode="&#x5e3;" horiz-adv-x="1099" d="M79 1110v158h498q376 0 376 -375v-1260h-172v1244q0 237 -231 237h-111q-79 -20 -127.5 -99t-48.5 -167q0 -154 121 -221v-17l-135 -106q-147 92 -147 274q0 209 186 332h-209z" />
<glyph unicode="&#x5e4;" horiz-adv-x="1091" d="M83 1110v158h434q283 0 391 -164q88 -137 88 -463q0 -309 -92 -461q-108 -180 -366 -180h-437v152h433q180 0 233 114q43 90 43 371q0 283 -61.5 380t-243.5 97h-64q-77 -20 -126.5 -99t-49.5 -167q0 -154 121 -221v-17l-135 -106q-148 94 -148 274q0 209 189 332h-209z " />
<glyph unicode="&#x5e5;" horiz-adv-x="1005" d="M20 1241v27h176l258 -703q244 115 244 451v252h178v-236q0 -207 -102 -342q-92 -125 -289 -215q86 -233 233 -651l62 -186h-172l-62 176q-164 471 -331 913z" />
<glyph unicode="&#x5e6;" horiz-adv-x="1042" d="M34 1239v29h186q121 -219 371 -645q82 55 109.5 120.5t27.5 223.5v301h180v-275q0 -180 -51 -268q-53 -94 -215 -186l234 -385q8 -15 8 -39v-115h-793v152h617v6l-232 348q-75 112 -442 733z" />
<glyph unicode="&#x5e7;" horiz-adv-x="1175" d="M110 1114v154h506q467 0 467 -461q0 -225 -127 -426q-109 -172 -334 -381l-96 102q196 193 295 373q77 143 77 293q0 346 -339 346h-449zM151 -369v1137l178 43v-1180h-178z" />
<glyph unicode="&#x5e8;" horiz-adv-x="966" d="M61 1110v158h360q207 0 304.5 -97.5t97.5 -304.5v-866h-174v823q0 154 -60.5 220.5t-205.5 66.5h-322z" />
<glyph unicode="&#x5e9;" horiz-adv-x="1370" d="M141 483v785h176v-787q68 -6 139 29q82 39 115 115q31 69 31 247v396h172v-381q0 -135 -17 -209q-24 -109 -96 -178q-133 -129 -338 -115q0 -141 90 -199q78 -49 248 -49q223 0 311.5 84t88.5 316v731h176v-723q0 -299 -136.5 -428t-433.5 -129q-307 0 -422 118 q-104 109 -104 377z" />
<glyph unicode="&#x5ea;" horiz-adv-x="1251" d="M16 12l12 144q41 -21 80 -21q109 0 109 133v1000h508q204 0 292.5 -89t88.5 -288v-891h-181v856q0 141 -54 197.5t-189 56.5h-289v-815q0 -309 -260 -309q-58 0 -117 26z" />
<glyph unicode="&#x5f0;" horiz-adv-x="980" d="M165 0v1266h190v-1266h-190zM605 0v1266h190v-1266h-190z" />
<glyph unicode="&#x5f1;" horiz-adv-x="952" d="M139 567v699h193v-637zM595 0v1266h190v-1266h-190z" />
<glyph unicode="&#x5f2;" horiz-adv-x="900" d="M139 567v699h193v-637zM539 567v699h193v-637z" />
<glyph unicode="&#x5f3;" horiz-adv-x="430" d="M133 1403v113h160v-113l-29 -408h-100z" />
<glyph unicode="&#x5f4;" horiz-adv-x="751" d="M133 1403v113h160v-113l-29 -408h-100zM461 1403v113h155v-113l-28 -408h-99z" />
<glyph unicode="&#x2000;" horiz-adv-x="785" />
<glyph unicode="&#x2001;" horiz-adv-x="1571" />
<glyph unicode="&#x2002;" horiz-adv-x="785" />
<glyph unicode="&#x2003;" horiz-adv-x="1571" />
<glyph unicode="&#x2004;" horiz-adv-x="523" />
<glyph unicode="&#x2005;" horiz-adv-x="392" />
<glyph unicode="&#x2006;" horiz-adv-x="261" />
<glyph unicode="&#x2007;" horiz-adv-x="261" />
<glyph unicode="&#x2008;" horiz-adv-x="196" />
<glyph unicode="&#x2009;" horiz-adv-x="314" />
<glyph unicode="&#x200a;" horiz-adv-x="87" />
<glyph unicode="&#x2010;" horiz-adv-x="630" d="M106 571v140h420v-140h-420z" />
<glyph unicode="&#x2011;" horiz-adv-x="630" d="M106 571v140h420v-140h-420z" />
<glyph unicode="&#x2012;" horiz-adv-x="630" d="M106 571v140h420v-140h-420z" />
<glyph unicode="&#x2013;" horiz-adv-x="630" d="M106 571v140h420v-140h-420z" />
<glyph unicode="&#x2014;" horiz-adv-x="1070" d="M106 571v140h801v-140h-801z" />
<glyph unicode="&#x2018;" horiz-adv-x="430" d="M133 995v113l29 408h100l31 -408v-113h-160z" />
<glyph unicode="&#x2019;" horiz-adv-x="430" d="M133 1403v113h160v-113l-29 -408h-100z" />
<glyph unicode="&#x201a;" horiz-adv-x="430" d="M133 133v113h160v-113l-29 -408h-100z" />
<glyph unicode="&#x201c;" horiz-adv-x="751" d="M133 995v113l29 408h98l29 -408v-113h-156zM457 995v113l28 408h101l30 -408v-113h-159z" />
<glyph unicode="&#x201d;" horiz-adv-x="751" d="M133 1403v113h160v-113l-29 -408h-100zM461 1403v113h155v-113l-28 -408h-99z" />
<glyph unicode="&#x201e;" horiz-adv-x="751" d="M133 133v113h160v-113l-29 -408h-100zM461 133v113h155v-113l-28 -408h-99z" />
<glyph unicode="&#x2020;" horiz-adv-x="991" d="M79 831v158l354 -24l-28 551h178l-27 -551l354 24v-158l-354 21l27 -1262h-178l28 1262z" />
<glyph unicode="&#x2021;" horiz-adv-x="989" d="M94 47v156l340 -23l-21 377l21 371l-340 -23v156l340 -23l-29 478h178l-28 -478l340 23v-156l-340 23l22 -371l-22 -377l340 23v-156l-340 23l28 -480h-178l29 480z" />
<glyph unicode="&#x2022;" horiz-adv-x="948" d="M231 717q0 106 69 175q68 69 173 69q106 0 175 -69q68 -69 68 -175q0 -105 -68 -173q-70 -69 -175 -69t-173 69q-69 68 -69 173z" />
<glyph unicode="&#x2026;" horiz-adv-x="1456" d="M145 0v213h190v-213h-190zM630 0v213h191v-213h-191zM1116 0v213h190v-213h-190z" />
<glyph unicode="&#x202f;" horiz-adv-x="314" />
<glyph unicode="&#x2030;" horiz-adv-x="2396" d="M92 1077q0 463 299 463q295 0 295 -463q0 -465 -295 -465q-299 0 -299 465zM235 1077q0 -336 156 -336q154 0 154 336q0 334 -154 334q-156 0 -156 -334zM397 0l770 1516h144l-770 -1516h-144zM1024 444q0 463 299 463q293 0 293 -463q0 -464 -293 -464q-299 0 -299 464z M1165 444q0 -338 158 -338q153 0 153 338q0 332 -153 332q-158 0 -158 -332zM1710 444q0 463 299 463q293 0 293 -463q0 -464 -293 -464q-299 0 -299 464zM1851 444q0 -338 158 -338q154 0 154 338q0 332 -154 332q-158 0 -158 -332z" />
<glyph unicode="&#x2039;" horiz-adv-x="565" d="M61 541l254 538h162l-248 -538l248 -541h-162z" />
<glyph unicode="&#x203a;" horiz-adv-x="565" d="M86 0l250 541l-250 538h164l254 -538l-254 -541h-164z" />
<glyph unicode="&#x205f;" horiz-adv-x="392" />
<glyph unicode="&#x20ac;" horiz-adv-x="1236" d="M30 537v131h203q-2 20 -2 47v91q0 22 2 40h-203v131h213q33 288 161 433q120 134 312 134q182 0 295 -124q103 -112 137 -310l-160 -29q-28 150 -86 224q-67 88 -184 88q-261 0 -309 -416h360v-131h-370q-2 -18 -2 -40v-91q0 -27 2 -47h370v-131h-360q49 -416 317 -416 q225 0 287 328l156 -25q-36 -202 -145 -322q-118 -131 -298 -131q-415 0 -483 566h-213z" />
<glyph unicode="&#x2122;" horiz-adv-x="1531" d="M51 1403v113h557v-113h-219v-766h-123v766h-215zM717 637v879h151l201 -699l201 699h155v-879h-119v647l-188 -647h-102l-191 649v-649h-108z" />
<glyph unicode="&#x25fc;" horiz-adv-x="1080" d="M0 0v1080h1080v-1080h-1080z" />
<glyph unicode="&#xfb1d;" d="M34 668v176l332 -27l-23 340h49v51l340 -22l-26 330h176l-29 -330l342 22v-51h49l-22 -340l328 27v-176l-328 28l22 -342h-49v-45l-342 23l29 -332h-176l26 332l-340 -23v45h-49l23 342zM466 700l17 -254l256 -16v270h-273zM466 811h273v274l-256 -14zM849 430l256 16 l16 254h-272v-270zM849 811h272l-16 260l-256 14v-274z" />
<glyph unicode="&#xfb1e;" d="M34 668v176l332 -27l-23 340h49v51l340 -22l-26 330h176l-29 -330l342 22v-51h49l-22 -340l328 27v-176l-328 28l22 -342h-49v-45l-342 23l29 -332h-176l26 332l-340 -23v45h-49l23 342zM466 700l17 -254l256 -16v270h-273zM466 811h273v274l-256 -14zM849 430l256 16 l16 254h-272v-270zM849 811h272l-16 260l-256 14v-274z" />
<glyph unicode="&#xfb1f;" d="M34 668v176l332 -27l-23 340h49v51l340 -22l-26 330h176l-29 -330l342 22v-51h49l-22 -340l328 27v-176l-328 28l22 -342h-49v-45l-342 23l29 -332h-176l26 332l-340 -23v45h-49l23 342zM466 700l17 -254l256 -16v270h-273zM466 811h273v274l-256 -14zM849 430l256 16 l16 254h-272v-270zM849 811h272l-16 260l-256 14v-274z" />
<glyph unicode="&#xfb20;" d="M34 668v176l332 -27l-23 340h49v51l340 -22l-26 330h176l-29 -330l342 22v-51h49l-22 -340l328 27v-176l-328 28l22 -342h-49v-45l-342 23l29 -332h-176l26 332l-340 -23v45h-49l23 342zM466 700l17 -254l256 -16v270h-273zM466 811h273v274l-256 -14zM849 430l256 16 l16 254h-272v-270zM849 811h272l-16 260l-256 14v-274z" />
<glyph unicode="&#xfb21;" d="M34 668v176l332 -27l-23 340h49v51l340 -22l-26 330h176l-29 -330l342 22v-51h49l-22 -340l328 27v-176l-328 28l22 -342h-49v-45l-342 23l29 -332h-176l26 332l-340 -23v45h-49l23 342zM466 700l17 -254l256 -16v270h-273zM466 811h273v274l-256 -14zM849 430l256 16 l16 254h-272v-270zM849 811h272l-16 260l-256 14v-274z" />
<glyph unicode="&#xfb22;" d="M34 668v176l332 -27l-23 340h49v51l340 -22l-26 330h176l-29 -330l342 22v-51h49l-22 -340l328 27v-176l-328 28l22 -342h-49v-45l-342 23l29 -332h-176l26 332l-340 -23v45h-49l23 342zM466 700l17 -254l256 -16v270h-273zM466 811h273v274l-256 -14zM849 430l256 16 l16 254h-272v-270zM849 811h272l-16 260l-256 14v-274z" />
<glyph unicode="&#xfb23;" d="M34 668v176l332 -27l-23 340h49v51l340 -22l-26 330h176l-29 -330l342 22v-51h49l-22 -340l328 27v-176l-328 28l22 -342h-49v-45l-342 23l29 -332h-176l26 332l-340 -23v45h-49l23 342zM466 700l17 -254l256 -16v270h-273zM466 811h273v274l-256 -14zM849 430l256 16 l16 254h-272v-270zM849 811h272l-16 260l-256 14v-274z" />
<glyph unicode="&#xfb24;" d="M34 668v176l332 -27l-23 340h49v51l340 -22l-26 330h176l-29 -330l342 22v-51h49l-22 -340l328 27v-176l-328 28l22 -342h-49v-45l-342 23l29 -332h-176l26 332l-340 -23v45h-49l23 342zM466 700l17 -254l256 -16v270h-273zM466 811h273v274l-256 -14zM849 430l256 16 l16 254h-272v-270zM849 811h272l-16 260l-256 14v-274z" />
<glyph unicode="&#xfb25;" d="M34 668v176l332 -27l-23 340h49v51l340 -22l-26 330h176l-29 -330l342 22v-51h49l-22 -340l328 27v-176l-328 28l22 -342h-49v-45l-342 23l29 -332h-176l26 332l-340 -23v45h-49l23 342zM466 700l17 -254l256 -16v270h-273zM466 811h273v274l-256 -14zM849 430l256 16 l16 254h-272v-270zM849 811h272l-16 260l-256 14v-274z" />
<glyph unicode="&#xfb26;" d="M34 668v176l332 -27l-23 340h49v51l340 -22l-26 330h176l-29 -330l342 22v-51h49l-22 -340l328 27v-176l-328 28l22 -342h-49v-45l-342 23l29 -332h-176l26 332l-340 -23v45h-49l23 342zM466 700l17 -254l256 -16v270h-273zM466 811h273v274l-256 -14zM849 430l256 16 l16 254h-272v-270zM849 811h272l-16 260l-256 14v-274z" />
<glyph unicode="&#xfb27;" d="M34 668v176l332 -27l-23 340h49v51l340 -22l-26 330h176l-29 -330l342 22v-51h49l-22 -340l328 27v-176l-328 28l22 -342h-49v-45l-342 23l29 -332h-176l26 332l-340 -23v45h-49l23 342zM466 700l17 -254l256 -16v270h-273zM466 811h273v274l-256 -14zM849 430l256 16 l16 254h-272v-270zM849 811h272l-16 260l-256 14v-274z" />
<glyph unicode="&#xfb28;" d="M34 668v176l332 -27l-23 340h49v51l340 -22l-26 330h176l-29 -330l342 22v-51h49l-22 -340l328 27v-176l-328 28l22 -342h-49v-45l-342 23l29 -332h-176l26 332l-340 -23v45h-49l23 342zM466 700l17 -254l256 -16v270h-273zM466 811h273v274l-256 -14zM849 430l256 16 l16 254h-272v-270zM849 811h272l-16 260l-256 14v-274z" />
<glyph unicode="&#xfb29;" d="M34 668v176l332 -27l-23 340h49v51l340 -22l-26 330h176l-29 -330l342 22v-51h49l-22 -340l328 27v-176l-328 28l22 -342h-49v-45l-342 23l29 -332h-176l26 332l-340 -23v45h-49l23 342zM466 700l17 -254l256 -16v270h-273zM466 811h273v274l-256 -14zM849 430l256 16 l16 254h-272v-270zM849 811h272l-16 260l-256 14v-274z" />
<glyph unicode="&#xfb2a;" horiz-adv-x="1370" d="M141 483v785h176v-787q68 -6 139 29q82 39 115 115q31 69 31 247v396h172v-381q0 -135 -17 -209q-24 -109 -96 -178q-133 -129 -338 -115q0 -141 90 -199q78 -49 248 -49q223 0 311.5 84t88.5 316v731h176v-723q0 -299 -136.5 -428t-433.5 -129q-307 0 -422 118 q-104 109 -104 377zM1068 1467q5 66 76 74q71 -6 78 -70q-1 -70 -75 -76q-75 7 -79 72z" />
<glyph unicode="&#xfb2b;" horiz-adv-x="1370" d="M141 483v785h176v-787q68 -6 139 29q82 39 115 115q31 69 31 247v396h172v-381q0 -135 -17 -209q-24 -109 -96 -178q-133 -129 -338 -115q0 -141 90 -199q78 -49 248 -49q223 0 311.5 84t88.5 316v731h176v-723q0 -299 -136.5 -428t-433.5 -129q-307 0 -422 118 q-104 109 -104 377zM148 1467q5 66 76 74q71 -6 78 -70q-1 -70 -75 -76q-75 7 -79 72z" />
<glyph unicode="&#xfb2c;" horiz-adv-x="1370" d="M141 483v785h176v-787q68 -6 139 29q82 39 115 115q31 69 31 247v396h172v-381q0 -135 -17 -209q-24 -109 -96 -178q-133 -129 -338 -115q0 -141 90 -199q78 -49 248 -49q223 0 311.5 84t88.5 316v731h176v-723q0 -299 -136.5 -428t-433.5 -129q-307 0 -422 118 q-104 109 -104 377zM837 674q5 66 76 74q71 -6 78 -70q-1 -70 -75 -76q-75 7 -79 72zM1068 1467q5 66 76 74q71 -6 78 -70q-1 -70 -75 -76q-75 7 -79 72z" />
<glyph unicode="&#xfb2d;" horiz-adv-x="1370" d="M141 483v785h176v-787q68 -6 139 29q82 39 115 115q31 69 31 247v396h172v-381q0 -135 -17 -209q-24 -109 -96 -178q-133 -129 -338 -115q0 -141 90 -199q78 -49 248 -49q223 0 311.5 84t88.5 316v731h176v-723q0 -299 -136.5 -428t-433.5 -129q-307 0 -422 118 q-104 109 -104 377zM148 1467q5 66 76 74q71 -6 78 -70q-1 -70 -75 -76q-75 7 -79 72zM837 674q5 66 76 74q71 -6 78 -70q-1 -70 -75 -76q-75 7 -79 72z" />
<glyph unicode="&#xfb2e;" horiz-adv-x="1130" d="M88 1241v27h184q123 -178 432 -654q58 45 82 97q31 67 31 194v363h176v-297q0 -156 -47 -246q-53 -102 -194 -186q102 -158 303 -525v-14h-181q-159 305 -464 762q-70 -47 -94.5 -105.5t-24.5 -189.5v-467h-174v375q0 182 45 274q51 109 198 189q-159 243 -272 403z M388 -163q0 22 10 37h328q8 -19 8 -41q-2 -21 -8 -37h-328q-10 16 -10 41z" />
<glyph unicode="&#xfb2f;" horiz-adv-x="1130" d="M88 1241v27h184q123 -178 432 -654q58 45 82 97q31 67 31 194v363h176v-297q0 -156 -47 -246q-53 -102 -194 -186q102 -158 303 -525v-14h-181q-159 305 -464 762q-70 -47 -94.5 -105.5t-24.5 -189.5v-467h-174v375q0 182 45 274q51 109 198 189q-159 243 -272 403z M397 -163q0 22 10 37h329q8 -19 8 -41q0 -15 -8 -36h-145v-9q0 -37 21 -71q26 -40 26 -61q0 -65 -69 -65q-66 0 -66 69q0 17 17 46q21 35 24 46q6 19 6 25v20h-143q-10 16 -10 40z" />
<glyph unicode="&#xfb30;" horiz-adv-x="1130" d="M88 1241v27h184q123 -178 432 -654q58 45 82 97q31 67 31 194v363h176v-297q0 -156 -47 -246q-53 -102 -194 -186q102 -158 303 -525v-14h-181q-159 305 -464 762q-70 -47 -94.5 -105.5t-24.5 -189.5v-467h-174v375q0 182 45 274q51 109 198 189q-159 243 -272 403z M517 -196q0 64 65 64q64 0 64 -64q0 -65 -64 -65q-65 0 -65 65z" />
<glyph unicode="&#xfb31;" horiz-adv-x="985" d="M65 0v154h481q60 28 99 125q30 73 30 354q0 182 -10 256q-14 106 -61 158q-60 63 -203 63h-322v158h373q201 0 295 -92q68 -68 90 -201q16 -92 16 -293q0 -186 -16 -268q-22 -123 -98 -201q-31 -31 -70 -59h256v-154h-860zM192 621q5 66 76 74q71 -6 78 -70 q-1 -70 -75 -76q-75 7 -79 72z" />
<glyph unicode="&#xfb32;" horiz-adv-x="745" d="M34 0l35 164q110 0 217 135q102 127 141 293v344q0 92 -35.5 133t-121.5 41h-175v158h222q153 0 218.5 -72t65.5 -235v-449q0 -326 47 -512h-165q-41 119 -41 356q0 9 -7 9q-8 2 -12 -9q-72 -180 -137 -262q-82 -106 -186 -106q-41 0 -66 12zM152 705q5 66 76 74 q71 -6 78 -70q-1 -70 -75 -76q-75 7 -79 72z" />
<glyph unicode="&#xfb33;" horiz-adv-x="946" d="M45 1112v156h811v-156h-135v-1112h-176v1112h-500zM191 568q5 66 76 74q71 -6 78 -70q-1 -70 -75 -76q-75 7 -79 72z" />
<glyph unicode="&#xfb34;" horiz-adv-x="1171" d="M145 1110v158h479q207 0 304.5 -95.5t97.5 -302.5v-870h-174v831q0 152 -63.5 215.5t-213.5 63.5h-430zM153 0v715l174 43v-758h-174zM507 564q5 66 76 74q71 -6 78 -70q-1 -70 -75 -76q-75 7 -79 72z" />
<glyph unicode="&#xfb35;" horiz-adv-x="477" d="M-42 647q5 66 76 74q71 -6 78 -70q-1 -70 -75 -76q-75 7 -79 72zM149 0v1268h178v-1268h-178z" />
<glyph unicode="&#xfb36;" horiz-adv-x="604" d="M-26 579q5 66 76 74q71 -6 78 -70q-1 -70 -75 -76q-75 7 -79 72zM75 1110v158h467l-31 -158h-88q-92 -100 -92 -362q0 -78 8 -166l51 -582h-170l-47 518q-6 76 -6 141q0 316 148 451h-240z" />
<glyph unicode="&#xfb38;" horiz-adv-x="1200" d="M145 481v787h176v-797q0 -188 62.5 -266t218.5 -78q164 0 230.5 83t66.5 288v270q0 203 -58 287q-47 63 -139 63q-86 0 -143 -69l-76 131q86 96 250 96q352 0 352 -461v-299q0 -539 -491 -539q-242 0 -345.5 118t-103.5 386zM540 609q5 66 76 74q71 -6 78 -70 q-1 -70 -75 -76q-75 7 -79 72z" />
<glyph unicode="&#xfb39;" horiz-adv-x="452" d="M-64 925q5 66 76 74q71 -6 78 -70q-1 -70 -75 -76q-75 7 -79 72zM135 567v701h176v-639z" />
<glyph unicode="&#xfb3a;" horiz-adv-x="976" d="M69 1110v158h360q402 0 402 -408v-1227h-174v1198q0 152 -60.5 215.5t-201.5 63.5h-326zM244 735q5 66 76 74q71 -6 78 -70q-1 -70 -75 -76q-75 7 -79 72z" />
<glyph unicode="&#xfb3b;" horiz-adv-x="931" d="M75 0v154h231q213 0 291 108q72 103 72 371q0 258 -83 367.5t-288 109.5h-223v158h248q280 0 404 -147.5t124 -487.5q0 -322 -127 -475q-133 -158 -416 -158h-233zM171 628q5 66 76 74q71 -6 78 -70q-1 -70 -75 -76q-75 7 -79 72z" />
<glyph unicode="&#xfb3c;" horiz-adv-x="940" d="M47 1110v461h176v-303h225q195 0 303.5 -104.5t108.5 -301.5q0 -221 -143 -448q-138 -215 -367 -422l-94 98q231 223 332 416q90 172 90 317q0 287 -291 287h-340zM136 672q5 66 76 74q71 -6 78 -70q-1 -70 -75 -76q-75 7 -79 72z" />
<glyph unicode="&#xfb3e;" horiz-adv-x="1220" d="M114 1112v156h549q235 0 340.5 -140.5t105.5 -498.5q0 -643 -442 -643q-59 0 -174 26l18 150q60 -27 133 -27q160 0 222 109q59 102 59 362q0 289 -68 402q-63 106 -233 106h-109q-145 -59 -172 -442l-47 -672h-168v29l43 630q15 199 66 304q45 94 145 149h-268zM544 613 q5 66 76 74q71 -6 78 -70q-1 -70 -75 -76q-75 7 -79 72z" />
<glyph unicode="&#xfb40;" horiz-adv-x="708" d="M69 0v154h315v794q0 88 -30.5 125t-112.5 37h-154v158h205q142 0 205.5 -69t63.5 -228v-971h-492zM134 639q5 66 76 74q71 -6 78 -70q-1 -70 -75 -76q-75 7 -79 72z" />
<glyph unicode="&#xfb41;" horiz-adv-x="1171" d="M90 1110v158h508q252 0 364 -138q119 -143 119 -473q0 -677 -502 -677q-247 0 -356 153q-100 141 -100 449q0 206 41 323q45 129 155 205h-229zM299 616q0 -282 70 -389q61 -96 208 -96q164 0 236 100q82 115 82 396q0 284 -82 393q-70 94 -244 94h-110q-21 -8 -58 -33 q-63 -63 -86 -192q-16 -94 -16 -273zM512 620q5 66 76 74q71 -6 78 -70q-1 -70 -75 -76q-75 7 -79 72z" />
<glyph unicode="&#xfb43;" horiz-adv-x="1099" d="M79 1110v158h498q376 0 376 -375v-1260h-172v1244q0 237 -231 237h-111q-79 -20 -127.5 -99t-48.5 -167q0 -154 121 -221v-17l-135 -106q-147 92 -147 274q0 209 186 332h-209zM461 503q5 66 76 74q71 -6 78 -70q-1 -70 -75 -76q-75 7 -79 72z" />
<glyph unicode="&#xfb44;" horiz-adv-x="1091" d="M83 1110v158h434q283 0 391 -164q88 -137 88 -463q0 -309 -92 -461q-108 -180 -366 -180h-437v152h433q180 0 233 114q43 90 43 371q0 283 -61.5 380t-243.5 97h-64q-77 -20 -126.5 -99t-49.5 -167q0 -154 121 -221v-17l-135 -106q-148 94 -148 274q0 209 189 332h-209z M454 617q5 66 76 74q71 -6 78 -70q-1 -70 -75 -76q-75 7 -79 72z" />
<glyph unicode="&#xfb46;" horiz-adv-x="1042" d="M34 1239v29h186q121 -219 371 -645q82 55 109.5 120.5t27.5 223.5v301h180v-275q0 -180 -51 -268q-53 -94 -215 -186l234 -385q8 -15 8 -39v-115h-793v152h617v6l-232 348q-75 112 -442 733zM112 601q5 66 76 74q71 -6 78 -70q-1 -70 -75 -76q-75 7 -79 72z" />
<glyph unicode="&#xfb47;" horiz-adv-x="1175" d="M110 1114v154h506q467 0 467 -461q0 -225 -127 -426q-109 -172 -334 -381l-96 102q196 193 295 373q77 143 77 293q0 346 -339 346h-449zM151 -369v1137l178 43v-1180h-178zM527 664q5 66 76 74q71 -6 78 -70q-1 -70 -75 -76q-75 7 -79 72z" />
<glyph unicode="&#xfb48;" horiz-adv-x="966" d="M61 1110v158h360q207 0 304.5 -97.5t97.5 -304.5v-866h-174v823q0 154 -60.5 220.5t-205.5 66.5h-322zM241 571q5 66 76 74q71 -6 78 -70q-1 -70 -75 -76q-75 7 -79 72z" />
<glyph unicode="&#xfb49;" horiz-adv-x="1370" d="M141 483v785h176v-787q68 -6 139 29q82 39 115 115q31 69 31 247v396h172v-381q0 -135 -17 -209q-24 -109 -96 -178q-133 -129 -338 -115q0 -141 90 -199q78 -49 248 -49q223 0 311.5 84t88.5 316v731h176v-723q0 -299 -136.5 -428t-433.5 -129q-307 0 -422 118 q-104 109 -104 377zM837 674q5 66 76 74q71 -6 78 -70q-1 -70 -75 -76q-75 7 -79 72z" />
<glyph unicode="&#xfb4a;" horiz-adv-x="1251" d="M16 12l12 144q41 -21 80 -21q109 0 109 133v1000h508q204 0 292.5 -89t88.5 -288v-891h-181v856q0 141 -54 197.5t-189 56.5h-289v-815q0 -309 -260 -309q-58 0 -117 26zM572 549q5 66 76 74q71 -6 78 -70q-1 -70 -75 -76q-75 7 -79 72z" />
<glyph unicode="&#xfb4b;" horiz-adv-x="477" d="M148 1467q5 66 76 74q71 -6 78 -70q-1 -70 -75 -76q-75 7 -79 72zM149 0v1268h178v-1268h-178z" />
<glyph unicode="&#xfb4c;" horiz-adv-x="985" d="M65 0v154h481q60 28 99 125q30 73 30 354q0 182 -10 256q-14 106 -61 158q-60 63 -203 63h-322v158h373q201 0 295 -92q68 -68 90 -201q16 -92 16 -293q0 -186 -16 -268q-22 -123 -98 -201q-31 -31 -70 -59h256v-154h-860zM220 1431v43q0 28 23 28h373q24 0 24 -28v-43 q0 -27 -24 -27h-373q-23 0 -23 27z" />
</font>
</defs>
</svg>
